<?xml version="1.0" standalone="no"?>
<!DOCTYPE svg PUBLIC "-//W3C//DTD SVG 1.1//EN" "http://www.w3.org/Graphics/SVG/1.1/DTD/svg11.dtd" >
<svg>
<metadata>
Created by FontForge 20120731 at Thu May 30 07:14:08 2019
 By www-data
Copyright \(c\) 2017 by Kastelov. All rights reserved.
</metadata>
<defs>
<font id="Axiforma-Bold" horiz-adv-x="696" >
  <font-face 
    font-family="Axiforma"
    font-weight="700"
    font-stretch="normal"
    units-per-em="1000"
    panose-1="0 0 8 0 0 0 0 0 0 0"
    ascent="772"
    descent="-228"
    x-height="544"
    cap-height="739"
    bbox="-458 -350 1290 1045"
    underline-thickness="50"
    underline-position="-50"
    stemh="129"
    stemv="141"
    unicode-range="U+000D-25CA"
  />
<missing-glyph horiz-adv-x="130" 
 />
    <glyph glyph-name="f_b" unicode="fb" horiz-adv-x="1110" 
d="M112 545v12c0 149 77 226 202 226c50 0 98 -12 144 -36l-34 -110c-31 15 -59 22 -82 22c-56 0 -89 -34 -89 -94v-20h170v-118h-170v-427h-141v427h-84v118h84zM803 559c77 0 142 -28 194 -83s78 -123 78 -204s-26 -149 -78 -204c-52 -54 -117 -81 -194 -81
c-69 0 -125 27 -170 81v-68h-137v760h141v-278c45 51 100 77 166 77zM631 273c0 -44 14 -81 42 -112c28 -30 64 -45 108 -45s80 15 108 45c28 31 42 68 42 112s-14 81 -42 111s-64 45 -108 45s-80 -15 -108 -46c-28 -30 -42 -67 -42 -110z" />
    <glyph glyph-name="f_f" unicode="ff" horiz-adv-x="839" 
d="M759 659c-64 0 -100 -34 -100 -95v-19h170v-118h-170v-427h-140v427h-266v-427h-140v427h-85v118h85v21c0 143 95 218 236 217c58 -1 113 -14 165 -41l-45 -110c-40 18 -74 27 -102 27c-69 0 -114 -34 -114 -94v-20h266v21c0 141 89 217 220 217c51 0 101 -13 151 -40
l-46 -107c-34 15 -62 23 -85 23z" />
    <glyph glyph-name="f_f_i" unicode="ffi" horiz-adv-x="1121" 
d="M749 659c-56 0 -89 -34 -89 -94v-20h190v-118h-190v-427h-141v427h-266v-427h-141v427h-84v118h84v21c0 141 95 217 235 217c55 0 111 -14 169 -41l-45 -111c-43 19 -78 28 -107 28c-67 0 -111 -35 -111 -95v-19h266v12c0 148 80 226 207 226c50 0 98 -12 144 -36
l-39 -110c-31 15 -58 22 -82 22zM1049 632c-33 -33 -90 -33 -125 0c-33 33 -33 91 0 123c35 33 92 33 125 0c33 -32 33 -90 0 -123zM1057 0h-141v545h141v-545z" />
    <glyph glyph-name="f_f_j" unicode="ffj" horiz-adv-x="1120" 
d="M840 545v-118h-181v-427h-140v427h-266v-427h-141v427h-84v118h84v21c0 71 22 124 65 161s100 56 169 56c57 0 113 -14 166 -41l-41 -111c-41 19 -76 28 -106 28c-67 0 -112 -35 -112 -95v-19h266v12c0 148 80 226 207 226c50 0 98 -12 144 -36l-39 -110
c-31 15 -59 22 -83 22c-56 0 -89 -34 -89 -94v-20h181zM987 607c-51 0 -88 38 -88 87s39 86 88 86c48 0 86 -37 86 -86s-38 -87 -86 -87zM915 -1v546h141v-553c0 -148 -84 -224 -208 -224c-55 0 -96 9 -125 28l27 112c29 -11 54 -16 74 -16c61 0 91 36 91 107z" />
    <glyph glyph-name="f_h" unicode="fh" horiz-adv-x="1075" 
d="M112 545v12c0 149 76 226 203 226c50 0 98 -12 144 -36l-35 -110c-31 15 -59 22 -82 22c-56 0 -89 -34 -89 -94v-20h170v-118h-170v-427h-141v427h-84v118h84zM805 560c59 0 109 -20 150 -59s62 -95 62 -168v-333h-141v295c0 87 -45 135 -114 135
c-75 0 -125 -57 -125 -138v-292h-141v760h137v-286c29 49 95 86 172 86z" />
    <glyph glyph-name="f_i" unicode="fi" horiz-adv-x="714" 
d="M112 545v12c0 148 80 226 207 226c50 0 98 -12 144 -36l-39 -110c-31 15 -59 22 -82 22c-56 0 -89 -34 -89 -94v-20h170v-118h-170v-427h-141v427h-84v118h84zM642 631c-33 -32 -90 -32 -125 0c-33 33 -33 91 0 124c35 33 92 33 125 0s33 -91 0 -124zM650 0h-141v545h141
v-545z" />
    <glyph glyph-name="f_j" unicode="fj" horiz-adv-x="714" 
d="M431 545v-118h-178v-427h-141v427h-84v118h84v12c0 148 80 226 207 226c50 0 98 -12 144 -36l-39 -110c-31 15 -59 22 -82 22c-56 0 -89 -34 -89 -94v-20h178zM642 631c-33 -32 -90 -32 -125 0c-33 33 -33 91 0 124c35 33 92 33 125 0s33 -91 0 -124zM509 -1v546h141
v-553c0 -148 -84 -224 -209 -224c-54 0 -96 9 -125 28l27 112c29 -11 54 -16 74 -16c61 0 92 36 92 107z" />
    <glyph glyph-name="f_k" unicode="fk" horiz-adv-x="1016" 
d="M112 545v12c0 149 76 226 201 226c50 0 98 -12 145 -36l-34 -110c-31 15 -59 22 -82 22c-56 0 -89 -34 -89 -94v-20h170v-118h-170v-427h-141v427h-84v118h84zM1027 0h-173l-180 233l-37 -33v-200h-141v760h141v-401l198 186h178l-243 -223z" />
    <glyph glyph-name="f_l" unicode="fl" horiz-adv-x="701" 
d="M112 545v12c0 151 74 226 203 226c51 0 98 -12 141 -36l-32 -110c-31 15 -59 22 -82 22c-56 0 -89 -34 -89 -94v-20h170v-118h-170v-427h-141v427h-84v118h84zM496 0v760h141v-760h-141z" />
    <glyph glyph-name=".notdef" horiz-adv-x="130" 
 />
    <glyph glyph-name="NULL" horiz-adv-x="0" 
 />
    <glyph glyph-name="CR" unicode="&#xd;" horiz-adv-x="333" 
 />
    <glyph glyph-name="space" unicode=" " horiz-adv-x="247" 
 />
    <glyph glyph-name="CR.001" horiz-adv-x="130" 
 />
    <glyph glyph-name="CR.001" horiz-adv-x="130" 
 />
    <glyph glyph-name="exclam" unicode="!" horiz-adv-x="314" 
d="M224 205h-131l-8 548h149zM160 -12c-47 0 -83 34 -83 82c0 45 36 80 83 80c45 0 81 -35 81 -80c0 -48 -36 -82 -81 -82z" />
    <glyph glyph-name="quotedbl" unicode="&#x22;" horiz-adv-x="553" 
d="M171 428h-135l88 309h163zM424 428h-135l88 309h163z" />
    <glyph glyph-name="numbersign" unicode="#" horiz-adv-x="745" 
d="M714 566l-23 -117h-101l-29 -152h101l-22 -118h-102l-34 -179h-139l35 179h-129l-35 -179h-139l37 179h-101l23 118h102l31 152h-105l23 117h106l35 173h134l-34 -173h129l34 173h134l-33 -173h102zM295 297h129l30 152h-129z" />
    <glyph glyph-name="dollar" unicode="$" horiz-adv-x="591" 
d="M552 213c0 -112 -74 -194 -185 -218v-107h-126v103c-93 15 -164 64 -212 147l99 95c36 -65 101 -105 165 -105c59 0 96 32 96 76c0 35 -23 57 -64 78c-7 4 -22 11 -44 21c-44 21 -83 40 -111 59c-69 47 -103 107 -103 178c0 107 70 183 178 206v97h127v-97
c61 -12 116 -43 165 -94l-82 -106c-49 46 -98 69 -148 69c-52 0 -86 -29 -86 -70c0 -19 7 -33 24 -48c17 -13 26 -18 50 -33c7 -4 30 -16 69 -35s68 -34 87 -46c67 -42 101 -99 101 -170z" />
    <glyph glyph-name="percent" unicode="%" horiz-adv-x="903" 
d="M31 567c0 51 19 95 56 131s82 54 135 54s97 -18 134 -54s56 -80 56 -131c0 -50 -19 -93 -56 -129c-37 -35 -81 -53 -134 -53s-98 18 -135 53c-37 36 -56 79 -56 129zM248 0h-137l538 739h138zM222 483c45 0 85 37 85 85s-40 85 -85 85c-48 0 -86 -37 -86 -85
s39 -85 86 -85zM491 170c0 51 18 94 55 130s82 54 135 54s98 -18 135 -54s56 -79 56 -130c0 -50 -19 -93 -56 -129c-37 -35 -82 -53 -135 -53s-98 18 -135 53c-37 36 -55 79 -55 129zM767 171c0 48 -38 85 -86 85c-47 0 -85 -37 -85 -85c0 -49 38 -85 85 -85s86 36 86 85z
" />
    <glyph glyph-name="ampersand" unicode="&#x26;" horiz-adv-x="703" 
d="M593 163l106 -94l-78 -85l-106 96c-67 -60 -143 -90 -228 -90c-74 0 -135 21 -182 62c-47 42 -70 94 -70 155c0 87 44 157 131 212c-29 43 -43 90 -43 140c0 51 19 95 58 134s90 58 152 58c52 0 96 -16 132 -48c37 -31 55 -70 55 -116c0 -51 -18 -91 -58 -124
c-20 -16 -38 -29 -54 -39c-16 -9 -38 -21 -67 -36l38 -34l129 -115c26 30 52 64 77 102l87 -73c-29 -43 -56 -78 -79 -105zM326 645c-49 0 -83 -38 -83 -89c0 -28 8 -56 25 -84l65 32c28 16 60 45 60 77c0 36 -28 64 -67 64zM297 109c45 0 89 17 131 51l-145 131
c-12 10 -31 31 -43 40c-43 -32 -65 -70 -65 -113c0 -63 49 -109 122 -109z" />
    <glyph glyph-name="quotesingle" unicode="'" horiz-adv-x="298" 
d="M170 428h-135l88 309h163z" />
    <glyph glyph-name="parenleft" unicode="(" horiz-adv-x="418" 
d="M413 -111l-65 -109c-203 105 -313 289 -313 514c0 227 110 408 318 515l60 -112c-149 -96 -224 -230 -224 -403c0 -168 75 -303 224 -405z" />
    <glyph glyph-name="parenright" unicode=")" horiz-adv-x="418" 
d="M69 -220l-64 109c149 102 224 237 224 405c0 173 -75 307 -224 403l60 112c208 -107 318 -288 318 -515c0 -225 -110 -409 -314 -514z" />
    <glyph glyph-name="asterisk" unicode="*" horiz-adv-x="493" 
d="M247 482l-95 -115l-78 68l92 104l-132 57l42 94l122 -59l-5 142h107l-4 -142l122 59l41 -93l-131 -58l91 -104l-78 -68z" />
    <glyph glyph-name="plus" unicode="+" horiz-adv-x="575" 
d="M355 414h188v-133h-188v-188l-132 -2v190h-190v133h190v189h132v-189z" />
    <glyph glyph-name="comma" unicode="," horiz-adv-x="262" 
d="M129 145c51 0 89 -41 89 -96c0 -72 -51 -142 -154 -210l-42 56c53 40 85 71 97 94h-3c-39 0 -72 34 -72 74c0 47 38 82 85 82z" />
    <glyph glyph-name="hyphen" unicode="-" horiz-adv-x="530" 
d="M471 211h-411v132h411v-132z" />
    <glyph glyph-name="period" unicode="." horiz-adv-x="248" 
d="M125 -16c-47 0 -83 35 -83 82c0 45 36 80 83 80c44 0 80 -35 80 -80c0 -47 -36 -82 -80 -82z" />
    <glyph glyph-name="slash" unicode="/" horiz-adv-x="671" 
d="M172 -123h-154l480 948h154z" />
    <glyph glyph-name="zero" unicode="0" horiz-adv-x="688" 
d="M344 -12c-66 0 -122 18 -168 54c-92 72 -131 187 -131 328c0 71 10 134 31 190c41 112 136 192 268 192c206 0 299 -178 299 -382s-93 -382 -299 -382zM496 370c0 71 -13 130 -38 175s-63 68 -114 68c-50 0 -88 -23 -113 -68s-38 -104 -38 -175c0 -144 50 -243 151 -243
s152 99 152 243z" />
    <glyph glyph-name="one" unicode="1" horiz-adv-x="418" 
d="M-3 557l229 182h110v-739h-145v543l-118 -91z" />
    <glyph glyph-name="two" unicode="2" horiz-adv-x="580" 
d="M387 275l-130 -139h275v-136h-482v123l230 241c22 23 38 39 47 50s19 27 30 47s17 39 17 57c0 56 -43 95 -102 95c-52 0 -107 -27 -166 -82l-81 106c77 77 164 115 259 115c70 0 128 -21 173 -64c45 -42 68 -96 68 -162c0 -71 -46 -155 -138 -251z" />
    <glyph glyph-name="three" unicode="3" horiz-adv-x="565" 
d="M254 -12c-83 0 -164 24 -241 73l62 118c61 -37 118 -55 171 -55c75 0 120 37 120 93c0 55 -46 92 -114 92h-94v132h81c68 0 112 35 112 87c0 53 -43 85 -103 85c-45 0 -94 -19 -147 -57l-71 106c59 55 147 90 236 90c67 0 122 -19 167 -56s67 -82 67 -137
c0 -79 -52 -141 -125 -166v-4c92 -20 145 -93 145 -182c0 -65 -25 -117 -74 -158s-113 -61 -192 -61z" />
    <glyph glyph-name="four" unicode="4" horiz-adv-x="616" 
d="M497 295h80v-123h-80v-172h-138v172h-325l-29 95l386 472h106v-444zM359 525l-186 -230h186v230z" />
    <glyph glyph-name="five" unicode="5" horiz-adv-x="588" 
d="M303 476c70 0 129 -22 177 -66s72 -101 72 -172c0 -72 -25 -132 -76 -179s-117 -71 -200 -71c-89 0 -172 27 -248 82l59 118c63 -43 123 -64 182 -64c83 0 134 50 134 114s-53 111 -125 111c-47 0 -87 -16 -122 -49l-86 69l40 370h391v-136h-281l-16 -145
c31 12 64 18 99 18z" />
    <glyph glyph-name="six" unicode="6" horiz-adv-x="633" 
d="M354 477c69 0 127 -22 172 -67c46 -45 69 -101 69 -170c0 -71 -25 -131 -75 -178c-49 -47 -113 -71 -191 -71c-92 0 -162 33 -211 100s-73 153 -73 256c0 205 101 405 321 405c77 0 145 -22 204 -65l-64 -111c-43 29 -87 44 -132 44c-57 0 -101 -22 -134 -66
s-51 -97 -54 -158c36 54 92 81 168 81zM329 118c34 0 62 12 85 35s35 52 35 85s-11 61 -34 83s-51 33 -85 33c-68 0 -120 -49 -120 -117c0 -33 11 -62 34 -85s52 -34 85 -34z" />
    <glyph glyph-name="seven" unicode="7" horiz-adv-x="524" 
d="M21 603v136h482v-102l-264 -637h-155l254 603h-317z" />
    <glyph glyph-name="eight" unicode="8" horiz-adv-x="636" 
d="M42 203c0 84 54 158 139 189v2c-67 31 -108 89 -108 161c0 57 22 104 67 141s105 56 178 56s132 -19 177 -56s68 -84 68 -141c0 -72 -42 -130 -109 -161v-3c85 -29 140 -104 140 -188c0 -63 -26 -114 -77 -155c-51 -40 -117 -60 -199 -60s-149 20 -200 60
c-51 41 -76 92 -76 155zM208 539c0 -52 42 -92 109 -92s109 39 109 92s-43 92 -108 92s-110 -39 -110 -92zM445 221c0 59 -50 101 -127 101s-128 -41 -128 -100c0 -61 52 -104 128 -104s127 43 127 103z" />
    <glyph glyph-name="nine" unicode="9" horiz-adv-x="627" 
d="M303 752c90 0 159 -33 207 -99s72 -152 72 -258c0 -214 -98 -407 -315 -407c-80 0 -148 22 -204 65l54 110c43 -30 90 -45 141 -45c109 0 170 86 183 215c-37 -44 -101 -68 -166 -68c-68 0 -124 22 -169 67s-67 101 -67 170c0 73 24 132 73 179s113 71 191 71zM300 388
c67 0 119 51 119 118c0 68 -51 120 -118 120c-68 0 -119 -50 -119 -121c0 -68 50 -117 118 -117z" />
    <glyph glyph-name="colon" unicode=":" horiz-adv-x="278" 
d="M140 343c-47 0 -83 35 -83 82c0 45 36 80 83 80c44 0 80 -35 80 -80c0 -47 -36 -82 -80 -82zM140 -16c-47 0 -83 35 -83 82c0 45 36 80 83 80c44 0 80 -35 80 -80c0 -47 -36 -82 -80 -82z" />
    <glyph glyph-name="semicolon" unicode=";" horiz-adv-x="299" 
d="M154 342c-48 0 -85 36 -85 84c0 45 38 82 85 82c45 0 82 -37 82 -82c0 -48 -37 -84 -82 -84zM148 145c51 0 89 -41 89 -96c0 -72 -51 -142 -154 -210l-42 56c53 40 85 71 97 94h-3c-39 0 -72 34 -72 74c0 47 38 82 85 82z" />
    <glyph glyph-name="less" unicode="&#x3c;" horiz-adv-x="557" 
d="M492 189v-143l-461 219v121l461 218v-140l-310 -137z" />
    <glyph glyph-name="equal" unicode="=" horiz-adv-x="590" 
d="M526 366h-462v117h462v-117zM526 172h-462v117h462v-117z" />
    <glyph glyph-name="greater" unicode="&#x3e;" horiz-adv-x="543" 
d="M514 265l-455 -226v143l294 138l-294 136v141l455 -226v-106z" />
    <glyph glyph-name="question" unicode="?" horiz-adv-x="550" 
d="M313 195h-136v66c0 57 29 107 64 139c52 48 119 91 119 154c0 53 -43 90 -100 90c-49 0 -99 -29 -149 -87l-87 98c66 81 148 122 247 122c70 0 127 -20 172 -61s67 -92 67 -153c0 -63 -31 -116 -70 -152c-54 -51 -127 -98 -127 -158v-58zM164 69c0 45 36 81 83 81
c45 0 81 -36 81 -81c0 -47 -36 -81 -81 -81s-83 34 -83 81z" />
    <glyph glyph-name="at" unicode="@" horiz-adv-x="966" 
d="M587 446v43h107v-258c0 -41 20 -63 45 -63c23 0 44 15 63 46s28 69 28 115c0 89 -33 164 -99 224c-65 61 -145 90 -238 89c-97 -1 -179 -36 -246 -105s-101 -152 -101 -250c0 -99 35 -184 106 -254c71 -69 156 -104 257 -104c98 0 187 30 267 91l49 -82
c-34 -29 -80 -55 -139 -76c-58 -21 -119 -32 -182 -32c-130 0 -240 45 -329 135c-89 89 -134 197 -134 322s44 232 132 320c88 89 195 133 322 133c125 0 229 -40 313 -120c84 -79 126 -175 126 -286c0 -77 -21 -140 -62 -191c-41 -50 -91 -75 -151 -75
c-59 0 -98 25 -118 74c-35 -49 -85 -74 -151 -74c-57 0 -106 21 -145 62s-58 93 -58 155s19 114 58 156s88 63 147 63c56 0 100 -19 133 -58zM473 169c31 0 58 11 80 33c22 23 33 50 33 83s-11 62 -33 85c-21 23 -48 35 -79 35c-64 0 -114 -51 -114 -119
c0 -67 49 -117 113 -117z" />
    <glyph glyph-name="A" unicode="A" 
d="M688 0h-156l-55 160h-258l-57 -160h-155l282 739h121zM435 292l-86 246l-88 -246h174z" />
    <glyph glyph-name="B" unicode="B" horiz-adv-x="692" 
d="M513 405c91 -23 140 -99 140 -190c0 -61 -21 -112 -64 -153c-42 -41 -99 -62 -170 -62h-337v739h322c66 0 117 -18 154 -55s56 -80 56 -129c0 -65 -41 -129 -101 -150zM379 610h-151v-161h145c61 0 94 39 94 83c0 43 -33 78 -88 78zM228 130h162c71 0 110 45 110 97
c0 53 -38 98 -110 98h-162v-195z" />
    <glyph glyph-name="C" unicode="C" horiz-adv-x="765" 
d="M420 -11c-107 0 -198 35 -271 105c-73 71 -109 162 -109 273c0 112 37 204 111 276c75 73 165 109 271 109c133 0 253 -61 318 -153l-99 -97c-58 71 -128 107 -211 107c-67 0 -123 -23 -168 -69c-45 -45 -68 -103 -68 -173c0 -68 22 -124 67 -169s101 -67 168 -67
c86 0 158 36 215 108l102 -93c-68 -93 -189 -157 -326 -157z" />
    <glyph glyph-name="D" unicode="D" horiz-adv-x="770" 
d="M365 0h-283v739h289c111 0 198 -33 261 -100c63 -66 95 -156 95 -271c0 -113 -32 -203 -97 -269c-64 -66 -152 -99 -265 -99zM230 597v-455h142c64 0 113 22 148 65s53 98 53 164c0 65 -18 118 -53 161s-84 65 -148 65h-142z" />
    <glyph glyph-name="E" unicode="E" horiz-adv-x="637" 
d="M583 0h-501v739h501v-138h-352v-159h326v-138h-326v-166h352v-138z" />
    <glyph glyph-name="F" unicode="F" horiz-adv-x="603" 
d="M230 0h-148v739h493v-140h-345v-166h303v-139h-303v-294z" />
    <glyph glyph-name="G" unicode="G" horiz-adv-x="810" 
d="M425 -11c-112 0 -204 36 -277 107c-72 72 -108 163 -108 273c0 111 37 203 112 275s168 108 279 108c120 0 231 -49 298 -120l-97 -106c-55 55 -122 83 -201 83c-69 0 -126 -23 -171 -68s-68 -102 -68 -171c0 -67 22 -124 66 -170c45 -46 102 -69 171 -69
c76 0 151 32 198 79v101h-204v129h339v-304c-94 -98 -206 -147 -337 -147z" />
    <glyph glyph-name="H" unicode="H" horiz-adv-x="770" 
d="M230 0h-148v739h148v-295h310v295h148v-739h-148v301h-310v-301z" />
    <glyph glyph-name="I" unicode="I" horiz-adv-x="313" 
d="M82 0v739h149v-739h-149z" />
    <glyph glyph-name="J" unicode="J" horiz-adv-x="584" 
d="M233 -12c-92 0 -168 30 -229 91l72 116c43 -43 92 -65 146 -65c85 0 140 57 140 152v457h148v-462c0 -96 -26 -168 -78 -217c-52 -48 -118 -72 -199 -72z" />
    <glyph glyph-name="K" unicode="K" 
d="M708 0h-182l-205 293l-91 -109v-184h-148v739h148v-349l280 349h179l-271 -336z" />
    <glyph glyph-name="L" unicode="L" horiz-adv-x="620" 
d="M606 0h-524v739h149v-597h375v-142z" />
    <glyph glyph-name="M" unicode="M" horiz-adv-x="939" 
d="M228 0h-146v739h98l290 -419l287 419h100v-739h-148v419l-215 -309h-51l-215 309v-419z" />
    <glyph glyph-name="N" unicode="N" horiz-adv-x="794" 
d="M566 282v457h146v-739h-101l-383 453v-453h-146v739h94z" />
    <glyph glyph-name="O" unicode="O" horiz-adv-x="848" 
d="M423 -12c-109 0 -201 36 -274 109s-110 163 -110 270s37 198 111 273c75 75 166 112 274 112s199 -37 273 -112c75 -75 112 -165 112 -271s-37 -196 -112 -270c-74 -74 -165 -111 -274 -111zM655 369c0 68 -22 124 -67 169s-99 68 -164 68s-119 -23 -164 -68
s-67 -102 -67 -169s22 -123 66 -168c45 -45 100 -67 165 -67s120 22 165 67s67 101 66 168z" />
    <glyph glyph-name="P" unicode="P" horiz-adv-x="639" 
d="M82 739h273c87 0 152 -24 195 -71c44 -47 66 -105 66 -173c0 -69 -23 -126 -68 -172c-45 -45 -113 -68 -204 -68h-114v-255h-148v739zM230 389h119c76 0 116 48 116 108c0 59 -41 105 -108 105h-127v-213z" />
    <glyph glyph-name="Q" unicode="Q" horiz-adv-x="848" 
d="M803 -10l20 -121c-44 -16 -88 -24 -133 -24c-115 0 -208 48 -281 143c-105 5 -193 45 -264 118s-106 161 -106 264c0 106 37 196 112 270c75 75 166 112 274 112c107 0 198 -37 272 -112c75 -74 112 -164 112 -270c0 -79 -22 -151 -65 -215c-43 -63 -99 -109 -170 -138
c34 -30 76 -45 125 -45c35 0 69 6 104 18zM191 368c0 -67 23 -124 68 -169s101 -67 166 -67s120 22 165 67s68 102 68 169c0 69 -23 126 -68 171c-45 46 -100 69 -165 69s-121 -23 -166 -69c-45 -45 -68 -102 -68 -171z" />
    <glyph glyph-name="R" unicode="R" horiz-adv-x="675" 
d="M647 0h-173l-156 269h-88v-269h-148v739h283c82 0 145 -23 188 -68s65 -100 65 -166c0 -96 -50 -181 -150 -217zM364 602h-134v-200h121c77 0 115 44 115 101c0 56 -38 99 -102 99z" />
    <glyph glyph-name="S" unicode="S" horiz-adv-x="606" 
d="M299 -12c-115 0 -219 49 -280 138l85 103c48 -67 120 -103 196 -103c61 0 106 32 106 79c0 30 -22 56 -67 77c-10 5 -34 14 -73 29c-38 15 -67 29 -87 40c-78 45 -117 106 -117 184c0 62 23 113 70 154s108 62 182 62c96 0 177 -33 243 -100l-79 -108
c-41 44 -107 69 -162 69c-59 0 -95 -28 -95 -71c0 -29 20 -53 60 -73l73 -32c41 -17 71 -30 90 -39c84 -41 126 -102 126 -184c0 -66 -25 -120 -75 -162s-115 -63 -196 -63z" />
    <glyph glyph-name="T" unicode="T" horiz-adv-x="600" 
d="M225 0v596h-211v143h572v-143h-211v-596h-150z" />
    <glyph glyph-name="U" unicode="U" horiz-adv-x="725" 
d="M74 270v469h149v-459c0 -99 53 -149 140 -149c84 0 138 53 138 149v459h150v-469c0 -93 -27 -163 -82 -211c-54 -48 -123 -72 -206 -72s-152 24 -207 72s-82 118 -82 211z" />
    <glyph glyph-name="V" unicode="V" horiz-adv-x="738" 
d="M370 228l194 511h168l-303 -739h-118l-307 739h171z" />
    <glyph glyph-name="W" unicode="W" horiz-adv-x="1065" 
d="M376 0h-125l-245 739h162l149 -497l168 497h94l171 -497l147 497h162l-244 -739h-125l-157 484z" />
    <glyph glyph-name="X" unicode="X" horiz-adv-x="669" 
d="M178 0h-174l237 374l-221 365h171l144 -253l151 253h174l-233 -365l232 -374h-171l-154 259z" />
    <glyph glyph-name="Y" unicode="Y" horiz-adv-x="679" 
d="M498 739h171l-256 -483v-256h-148v256l-253 483h171l156 -324z" />
    <glyph glyph-name="Z" unicode="Z" horiz-adv-x="651" 
d="M614 0h-579v106l366 496h-352v137h554v-110l-359 -492h370v-137z" />
    <glyph glyph-name="bracketleft" unicode="[" horiz-adv-x="407" 
d="M387 -227h-311v1038h311v-125h-167v-788h167v-125z" />
    <glyph glyph-name="backslash" unicode="\" horiz-adv-x="661" 
d="M173 825l471 -948h-153l-472 948h154z" />
    <glyph glyph-name="bracketright" unicode="]" horiz-adv-x="407" 
d="M331 -227h-311v125h167v788h-167v125h311v-1038z" />
    <glyph glyph-name="asciicircum" unicode="^" horiz-adv-x="542" 
d="M173 431h-139l190 332h95l189 -332h-138l-98 188z" />
    <glyph glyph-name="underscore" unicode="_" horiz-adv-x="591" 
d="M591 -191h-591v130h591v-130z" />
    <glyph glyph-name="grave" unicode="`" horiz-adv-x="390" 
d="M197 796l62 -176h-125l-94 176h157z" />
    <glyph glyph-name="a" unicode="a" horiz-adv-x="676" 
d="M479 480v65h134v-545h-134v63c-47 -51 -105 -76 -174 -76c-78 0 -143 27 -194 82s-76 124 -76 206s26 150 77 203c51 54 116 81 193 81c68 0 126 -26 174 -79zM481 273c0 43 -15 80 -44 111s-65 46 -109 46c-45 0 -81 -15 -110 -46c-28 -31 -42 -68 -42 -111
c0 -44 14 -81 43 -112s65 -46 109 -46s80 15 109 46s44 68 44 112z" />
    <glyph glyph-name="b" unicode="b" horiz-adv-x="678" 
d="M371 559c77 0 142 -28 194 -83s78 -123 78 -204s-26 -149 -78 -204c-52 -54 -117 -81 -194 -81c-69 0 -125 27 -170 81v-68h-137v760h141v-278c45 51 100 77 166 77zM199 273c0 -44 14 -81 42 -112c28 -30 64 -45 108 -45s80 15 108 45c28 31 42 68 42 112
s-14 81 -42 111s-64 45 -108 45s-80 -15 -108 -46c-28 -30 -42 -67 -42 -110z" />
    <glyph glyph-name="c" unicode="c" horiz-adv-x="603" 
d="M324 -12c-85 0 -154 27 -208 80s-81 122 -81 205s27 152 82 205c55 54 125 81 211 81c111 0 209 -55 254 -152l-113 -62c-33 55 -80 83 -139 83c-45 0 -82 -15 -111 -45c-29 -29 -44 -66 -44 -110c0 -45 14 -82 43 -112c29 -29 66 -44 109 -44c57 0 115 34 139 82
l114 -67c-47 -88 -144 -144 -256 -144z" />
    <glyph glyph-name="d" unicode="d" horiz-adv-x="676" 
d="M471 482v278h141v-760h-138v67c-44 -53 -100 -80 -169 -80c-77 0 -142 27 -193 81c-51 55 -77 123 -77 205c0 81 26 149 77 204c52 55 116 82 193 82c66 0 121 -26 166 -77zM478 273c0 44 -14 81 -42 111c-28 31 -64 46 -109 46s-81 -15 -110 -46
c-28 -30 -42 -67 -42 -111c0 -45 14 -82 42 -113c29 -30 65 -45 110 -45s81 15 109 45c28 31 42 68 42 113z" />
    <glyph glyph-name="e" unicode="e" horiz-adv-x="626" 
d="M593 285c0 -19 -2 -40 -5 -62h-409c20 -77 73 -116 159 -116c59 0 129 23 176 55l56 -99c-69 -50 -148 -75 -238 -75c-96 0 -169 28 -220 83s-76 123 -76 202c0 83 26 151 79 205s121 81 205 81c79 0 145 -25 196 -74s77 -115 77 -200zM320 442c-71 0 -124 -43 -141 -114
h277c-13 71 -64 114 -136 114z" />
    <glyph glyph-name="f" unicode="f" horiz-adv-x="432" 
d="M354 659c-65 0 -101 -34 -101 -95v-19h169v-118h-169v-427h-141v427h-84v118h84v22c0 70 20 124 61 161s95 56 160 56c53 0 105 -13 155 -40l-46 -108c-34 15 -63 23 -88 23z" />
    <glyph glyph-name="g" unicode="g" horiz-adv-x="675" 
d="M481 485v60h130v-491c0 -87 -28 -157 -84 -208s-129 -77 -218 -77c-93 0 -177 26 -250 79l55 106c63 -43 127 -64 191 -64c108 0 170 63 170 151v28c-42 -47 -98 -70 -168 -70c-80 0 -145 26 -196 79s-76 119 -76 200s27 148 80 201s119 80 198 80c67 0 123 -25 168 -74z
M177 277c0 -45 14 -82 43 -111s65 -44 108 -44s79 15 108 44c29 30 43 67 43 111s-14 80 -43 109s-65 44 -108 44s-79 -15 -108 -44s-43 -65 -43 -109z" />
    <glyph glyph-name="h" unicode="h" horiz-adv-x="642" 
d="M205 0h-141v760h137v-286c29 49 95 86 172 86c59 0 109 -20 150 -59s62 -95 62 -168v-333h-141v295c0 87 -45 135 -114 135c-75 0 -125 -57 -125 -138v-292z" />
    <glyph glyph-name="i" unicode="i" horiz-adv-x="269" 
d="M199 631c-33 -33 -91 -33 -124 0s-33 91 0 123c33 33 91 33 124 0c33 -32 33 -90 0 -123zM207 545v-545h-141v545h141z" />
    <glyph glyph-name="j" unicode="j" horiz-adv-x="293" 
d="M220 631c-33 -33 -91 -33 -124 0s-33 91 0 123c33 33 91 33 124 0c33 -32 33 -90 0 -123zM20 -232c-54 0 -95 9 -124 28l26 112c31 -11 56 -16 75 -16c61 0 91 36 91 107v546h141v-553c0 -148 -84 -224 -209 -224z" />
    <glyph glyph-name="k" unicode="k" horiz-adv-x="583" 
d="M595 0h-173l-180 233l-37 -33v-200h-141v760h141v-401l198 186h178l-243 -223z" />
    <glyph glyph-name="l" unicode="l" horiz-adv-x="268" 
d="M205 760v-760h-141v760h141z" />
    <glyph glyph-name="m" unicode="m" horiz-adv-x="1002" 
d="M723 560c65 0 118 -20 159 -61c42 -41 63 -97 63 -170v-329h-141v303c0 83 -44 127 -109 127c-71 0 -120 -51 -120 -131v-299h-141v302c0 81 -43 128 -110 128c-69 0 -119 -51 -119 -132v-298h-141v545h138v-78c31 57 95 94 166 93c68 0 131 -33 160 -96
c40 60 114 96 195 96z" />
    <glyph glyph-name="n" unicode="n" horiz-adv-x="643" 
d="M205 0h-141v545h138v-76c29 53 94 91 171 91c59 0 110 -20 151 -59s62 -95 62 -168v-333h-141v295c0 87 -46 135 -115 135c-75 0 -125 -57 -125 -138v-292z" />
    <glyph glyph-name="o" unicode="o" horiz-adv-x="654" 
d="M35 273c0 80 27 148 82 203c55 56 125 84 210 84s155 -28 210 -84c55 -55 82 -123 82 -203c0 -81 -27 -149 -82 -204s-125 -83 -210 -83s-155 28 -210 83s-82 123 -82 204zM219 162c29 -30 65 -45 108 -45s78 15 107 45c29 31 44 68 44 111s-15 80 -44 110
s-64 45 -107 45s-79 -15 -108 -45s-43 -67 -43 -110s14 -80 43 -111z" />
    <glyph glyph-name="p" unicode="p" horiz-adv-x="681" 
d="M377 559c77 0 141 -28 192 -83s76 -123 76 -203s-26 -148 -77 -203s-115 -83 -192 -83c-67 0 -124 25 -171 76v-287h-141v769h140v-67c47 54 104 81 173 81zM352 116c45 0 81 15 109 45s42 67 42 111s-14 81 -42 111s-64 45 -109 45c-44 0 -80 -15 -108 -45
s-42 -67 -42 -111s14 -81 42 -111s64 -45 108 -45z" />
    <glyph glyph-name="q" unicode="q" horiz-adv-x="681" 
d="M477 478v67h140v-769h-141v289c-46 -52 -103 -78 -172 -78c-77 0 -142 28 -193 83s-76 123 -76 203s25 148 76 203s116 83 193 83c69 0 126 -27 173 -81zM329 116c44 0 80 15 108 45s42 67 42 111s-14 81 -42 111s-64 45 -108 45c-45 0 -81 -15 -109 -45
s-42 -67 -42 -111s14 -81 42 -111s64 -45 109 -45z" />
    <glyph glyph-name="r" unicode="r" horiz-adv-x="421" 
d="M205 0h-141v545h135v-73c33 59 83 88 150 88c22 0 44 -4 66 -12l-12 -135c-23 7 -45 11 -65 11c-80 0 -133 -52 -133 -165v-259z" />
    <glyph glyph-name="s" unicode="s" horiz-adv-x="496" 
d="M246 -14c-95 0 -170 35 -225 105l75 89c39 -47 96 -76 151 -76c43 0 75 22 75 53c0 19 -13 35 -39 47c-9 4 -30 12 -65 25s-58 23 -70 29c-63 30 -94 77 -94 141c0 48 19 87 56 118s87 46 148 46c77 0 141 -26 191 -78l-70 -91c-38 36 -80 54 -125 54
c-37 0 -62 -21 -62 -46c0 -23 16 -39 48 -50c72 -27 116 -45 131 -53c61 -32 92 -78 92 -138c0 -51 -20 -93 -60 -126c-39 -33 -92 -49 -157 -49z" />
    <glyph glyph-name="t" unicode="t" horiz-adv-x="461" 
d="M416 143l42 -111c-45 -30 -98 -45 -161 -45c-125 0 -190 74 -190 215v225h-89v118h90v193h140v-193h180v-118h-180v-216c0 -64 26 -96 77 -96c27 0 58 9 91 28z" />
    <glyph glyph-name="u" unicode="u" horiz-adv-x="614" 
d="M307 -13c-155 0 -250 90 -250 243v315h141v-315c0 -69 41 -114 109 -114s109 45 109 114v315h141v-315c0 -153 -94 -243 -250 -243z" />
    <glyph glyph-name="v" unicode="v" horiz-adv-x="596" 
d="M300 192l134 353h155l-237 -544h-108l-236 544h155z" />
    <glyph glyph-name="w" unicode="w" horiz-adv-x="877" 
d="M317 1h-123l-186 544h148l109 -357l123 357h99l127 -357l106 357h148l-184 -544h-123l-123 341z" />
    <glyph glyph-name="x" unicode="x" horiz-adv-x="553" 
d="M367 274l175 -274h-162l-104 179l-109 -179h-163l181 278l-161 267h161l93 -167l100 167h159z" />
    <glyph glyph-name="y" unicode="y" horiz-adv-x="599" 
d="M312 190l124 355h154l-219 -572c-53 -139 -123 -205 -231 -205c-41 0 -76 9 -105 27l24 118c25 -12 49 -18 70 -18c44 0 79 29 106 86l11 25l-238 539h163z" />
    <glyph glyph-name="z" unicode="z" horiz-adv-x="538" 
d="M494 449l-268 -332h278v-117h-472v96l273 331h-259v117h448v-95z" />
    <glyph glyph-name="braceleft" unicode="{" horiz-adv-x="407" 
d="M180 291v-3c53 -16 100 -61 100 -125c0 -17 -2 -47 -6 -90c-3 -43 -5 -73 -5 -91c0 -53 27 -79 80 -79h28v-134h-68c-122 0 -183 62 -183 187c0 20 1 51 4 93s5 71 5 88c0 69 -40 89 -115 97v112c36 5 56 10 80 23s35 38 35 74c0 17 -2 46 -5 89s-4 75 -4 97
c0 121 63 182 190 182h61v-134h-28c-53 0 -80 -26 -80 -78c0 -18 2 -49 5 -93c4 -44 6 -74 6 -90c0 -64 -47 -109 -100 -125z" />
    <glyph glyph-name="bar" unicode="|" horiz-adv-x="292" 
d="M216 -179h-140v1026h140v-1026z" />
    <glyph glyph-name="braceright" unicode="}" horiz-adv-x="407" 
d="M227 288v3c-53 16 -100 61 -100 125c0 16 2 46 5 90c4 44 6 75 6 93c0 52 -27 78 -80 78h-28v134h61c127 0 190 -61 190 -182c0 -22 -1 -54 -4 -97s-4 -72 -4 -89c0 -69 39 -88 115 -97v-112c-76 -8 -115 -28 -115 -97c0 -17 1 -46 4 -88s4 -73 4 -93
c0 -125 -61 -187 -182 -187h-69v134h28c53 0 80 26 80 79c0 18 -2 48 -6 91c-3 43 -5 73 -5 90c0 64 47 109 100 125z" />
    <glyph glyph-name="asciitilde" unicode="~" horiz-adv-x="699" 
d="M457 231c-89 0 -173 65 -221 65c-35 0 -58 -16 -98 -64l-90 71c43 79 113 118 193 118c37 0 79 -11 125 -32c47 -21 79 -32 98 -32c36 0 58 16 97 68l93 -74c-48 -80 -114 -120 -197 -120z" />
    <glyph glyph-name="exclamdown" unicode="&#xa1;" horiz-adv-x="278" 
d="M154 526c45 0 81 -34 81 -82c0 -45 -36 -80 -81 -80c-47 0 -83 35 -83 80c0 48 36 82 83 82zM79 -239l8 548h131l10 -548h-149z" />
    <glyph glyph-name="cent" unicode="&#xa2;" horiz-adv-x="620" 
d="M368 424v-302c48 12 82 38 102 77l114 -67c-40 -77 -120 -130 -216 -142v-77h-79v77c-75 9 -135 39 -181 90c-46 52 -69 116 -69 193c0 76 23 140 68 191c46 52 107 83 182 92v77h79v-76c96 -11 178 -63 218 -150l-113 -62c-26 43 -61 69 -105 79zM179 273
c0 -73 45 -133 110 -150v299c-65 -19 -110 -77 -110 -149z" />
    <glyph glyph-name="sterling" unicode="&#xa3;" horiz-adv-x="588" 
d="M282 288c-1 -57 -23 -108 -65 -152h328v-136h-491v115c53 51 84 119 84 179c0 9 0 15 -1 20h-88v112h57c-13 43 -19 79 -19 106c0 63 23 115 70 156c47 42 103 63 168 64c96 1 181 -46 224 -117l-96 -88c-25 40 -69 66 -113 66c-61 0 -105 -44 -105 -104
c0 -21 6 -48 18 -83h227v-112h-199c1 -5 1 -14 1 -26z" />
    <glyph glyph-name="currency" unicode="&#xa4;" horiz-adv-x="644" 
d="M555 367c0 -45 -12 -86 -37 -122l76 -74l-66 -66l-76 75c-39 -26 -83 -39 -133 -39c-49 0 -91 12 -128 37l-75 -73l-66 66l73 72c-25 39 -37 80 -37 124c0 49 14 93 43 134l-79 77l66 66l82 -81c37 22 77 33 121 33c46 0 88 -11 125 -34l84 82l66 -66l-81 -80
c28 -39 42 -82 42 -131zM319 493c-34 0 -63 -12 -86 -36s-34 -53 -34 -88s11 -64 34 -89c23 -24 52 -36 86 -36s63 12 86 36c24 25 36 54 36 89c0 69 -53 124 -122 124z" />
    <glyph glyph-name="yen" unicode="&#xa5;" horiz-adv-x="692" 
d="M500 739h165l-175 -335h97v-107h-154l-14 -28v-18h168v-107h-168v-144h-148v144h-168v107h168v20l-13 26h-155v107h99l-173 335h165l152 -321z" />
    <glyph glyph-name="brokenbar" unicode="&#xa6;" horiz-adv-x="292" 
d="M216 434h-140v413h140v-413zM76 234h140v-413h-140v413z" />
    <glyph glyph-name="section" unicode="&#xa7;" horiz-adv-x="617" 
d="M581 214c0 -59 -24 -104 -72 -137c20 -31 30 -65 30 -100c0 -59 -23 -109 -68 -148c-45 -40 -104 -60 -177 -60c-108 0 -193 42 -256 125l94 97c40 -51 102 -86 159 -86c55 0 90 32 90 72c0 29 -25 58 -75 85c-12 7 -35 18 -69 35c-29 13 -52 25 -69 35
c-17 11 -37 24 -58 41c-41 33 -62 76 -62 127c0 58 24 104 72 138c-21 31 -31 64 -31 101c0 63 23 115 68 154c46 39 105 59 176 59c91 0 165 -35 224 -104l-101 -93c-35 40 -74 60 -118 60c-57 0 -95 -33 -95 -74c0 -25 15 -44 38 -63c16 -9 21 -14 41 -25l23 -12
c11 -4 41 -19 52 -24c53 -25 85 -42 124 -75c40 -32 60 -76 60 -128zM298 219l112 -57c13 11 19 25 19 40c0 12 -5 24 -15 35c-20 24 -41 34 -86 57c-61 31 -99 51 -115 60c-13 -13 -19 -27 -19 -42c0 -13 5 -25 16 -37c21 -23 39 -31 88 -56z" />
    <glyph glyph-name="dieresis" unicode="&#xa8;" horiz-adv-x="509" 
d="M45 707c0 45 37 82 84 82s84 -37 84 -82c0 -49 -36 -85 -84 -85s-84 36 -84 85zM347 622c-48 0 -85 36 -85 85c0 47 37 82 85 82c47 0 83 -37 83 -82c0 -49 -36 -85 -83 -85z" />
    <glyph glyph-name="copyright" unicode="&#xa9;" horiz-adv-x="849" 
d="M40 369c0 105 38 195 113 270s166 113 272 113s197 -38 272 -113s113 -165 113 -270s-38 -194 -113 -269s-166 -112 -272 -112s-197 37 -272 112s-113 164 -113 269zM425 71c83 1 153 30 211 88c59 59 88 129 88 210c0 82 -29 152 -88 211c-58 59 -128 88 -211 88
s-153 -29 -212 -88s-88 -129 -88 -211c0 -81 29 -151 88 -210c59 -58 129 -87 212 -88zM428 163c-59 0 -109 20 -148 59s-59 88 -59 147s19 108 58 147s89 59 149 59c72 0 135 -34 170 -94l-71 -45c-28 33 -61 50 -98 50c-65 0 -113 -49 -113 -117s48 -117 113 -117
c41 0 74 16 98 49l70 -52c-36 -53 -97 -86 -169 -86z" />
    <glyph glyph-name="ordfeminine" unicode="&#xaa;" horiz-adv-x="408" 
d="M195 736c91 0 156 -52 156 -159v-186h-81v34c-25 -29 -61 -43 -107 -43c-77 0 -123 48 -123 111c0 68 57 104 146 104c9 0 23 -1 43 -2s33 -1 38 -1c-4 42 -31 63 -81 63c-37 0 -71 -8 -101 -25l-28 67c41 25 87 37 138 37zM178 456c51 0 85 31 89 79c-32 2 -57 3 -74 2
c-45 0 -68 -14 -68 -41c0 -24 20 -40 53 -40z" />
    <glyph glyph-name="guillemotleft" unicode="&#xab;" horiz-adv-x="586" 
d="M316 88h-147l-136 203l136 203h147l-140 -203zM540 88h-148l-134 203l135 203h147l-139 -203z" />
    <glyph glyph-name="logicalnot" unicode="&#xac;" horiz-adv-x="603" 
d="M409 251h-346v130h472v-241h-126v111z" />
    <glyph glyph-name="uni00AD" unicode="&#xad;" horiz-adv-x="501" 
d="M441 263h-382v130h382v-130z" />
    <glyph glyph-name="registered" unicode="&#xae;" horiz-adv-x="593" 
d="M116 703c50 50 110 75 181 75s131 -25 181 -75c50 -49 75 -109 75 -180s-25 -131 -75 -181c-50 -49 -110 -74 -181 -74s-131 25 -181 74c-50 50 -75 110 -75 181s25 131 75 180zM161 387c37 -38 83 -57 136 -57s98 19 135 57s56 83 56 136s-19 98 -56 136s-82 57 -135 57
s-99 -19 -136 -57s-55 -83 -55 -136s18 -98 55 -136zM398 565c0 -33 -15 -57 -45 -72l50 -88h-65l-43 80h-32v-80h-59v241h110c48 0 84 -33 84 -81zM299 597h-36v-65h36c25 0 38 11 38 34c0 21 -13 31 -38 31z" />
    <glyph glyph-name="overscore" unicode="&#xaf;" horiz-adv-x="454" 
d="M367 638l-327 -2v124h327v-122z" />
    <glyph glyph-name="degree" unicode="&#xb0;" horiz-adv-x="366" 
d="M183 531c-42 0 -78 14 -108 43c-29 29 -44 64 -44 105s15 77 44 106c30 29 66 44 108 44c43 0 79 -15 108 -44s44 -65 44 -106s-15 -76 -44 -105s-65 -43 -108 -43zM183 612c37 0 67 30 67 67s-30 67 -67 67c-36 0 -66 -30 -66 -67s30 -67 66 -67z" />
    <glyph glyph-name="plusminus" unicode="&#xb1;" horiz-adv-x="620" 
d="M564 493v-131h-188v-184h188v-127h-508v127h190v184h-190v131h190v189h130v-189h188z" />
    <glyph glyph-name="uni00B2" unicode="&#xb2;" horiz-adv-x="346" 
d="M251 674l-81 -84h139v-83h-272v75l129 130c31 31 46 56 46 75c0 24 -20 41 -47 41s-59 -17 -96 -52l-45 68c42 45 91 68 147 68c79 0 136 -51 136 -124c0 -38 -19 -76 -56 -114z" />
    <glyph glyph-name="uni00B3" unicode="&#xb3;" horiz-adv-x="333" 
d="M10 540l38 73c37 -19 68 -28 95 -28c82 -5 78 91 0 85h-53v79h47c31 0 59 13 59 40c0 25 -24 38 -52 38c-24 0 -50 -9 -79 -28l-45 66c37 31 82 47 135 47c39 0 71 -10 97 -31c26 -20 39 -45 39 -74c0 -43 -29 -76 -72 -89v-2c52 -12 82 -49 82 -96
c5 -106 -155 -161 -291 -80z" />
    <glyph glyph-name="acute" unicode="&#xb4;" horiz-adv-x="405" 
d="M165 620h-125l62 176h157z" />
    <glyph glyph-name="paragraph" unicode="&#xb6;" horiz-adv-x="761" 
d="M264 734h450v-139h-77v-798h-142v798h-72v-798h-143v483h-29c-65 0 -118 21 -160 62c-42 42 -63 97 -63 164s22 122 65 164c44 43 101 64 171 64z" />
    <glyph glyph-name="middot" unicode="&#xb7;" horiz-adv-x="265" 
d="M134 -16c-47 0 -83 35 -83 82c0 45 36 80 83 80c44 0 80 -35 80 -80c0 -47 -36 -82 -80 -82z" />
    <glyph glyph-name="cedilla" unicode="&#xb8;" horiz-adv-x="345" 
d="M229 18l-27 -66c60 -3 108 -40 108 -100c0 -64 -54 -120 -146 -120c-39 0 -81 10 -124 31l31 81c28 -14 55 -21 81 -21c35 0 52 17 52 38c0 23 -19 34 -56 34h-54l-8 27l39 98z" />
    <glyph glyph-name="uni00B9" unicode="&#xb9;" horiz-adv-x="276" 
d="M10 792l144 109h70v-394h-94v264l-71 -53z" />
    <glyph glyph-name="ordmasculine" unicode="&#xba;" horiz-adv-x="429" 
d="M214 381c-51 0 -93 17 -128 50c-34 34 -51 76 -51 126c0 51 17 93 51 126c34 34 77 51 128 51s94 -17 128 -51c35 -33 52 -75 52 -126c0 -50 -17 -92 -52 -126c-34 -33 -77 -50 -128 -50zM214 465c53 0 92 40 92 92c0 53 -40 93 -93 93c-52 0 -91 -40 -91 -93
s40 -92 92 -92z" />
    <glyph glyph-name="guillemotright" unicode="&#xbb;" horiz-adv-x="586" 
d="M328 291l-134 -203h-148l139 203l-139 203h147zM553 291l-136 -203h-147l140 203l-140 203h147z" />
    <glyph glyph-name="onequarter" unicode="&#xbc;" horiz-adv-x="884" 
d="M244 346h-94v265l-71 -53l-49 74l144 109h70v-395zM106 0l578 739h113l-577 -739h-114zM798 164h42v-75h-42v-89h-85v89h-178l-19 56l210 251h72v-232zM713 278l-95 -114h95v114z" />
    <glyph glyph-name="onehalf" unicode="&#xbd;" horiz-adv-x="865" 
d="M245 346h-94v265l-71 -53l-49 74l144 109h70v-395zM84 0l578 739h113l-576 -739h-115zM765 167l-81 -84h139v-83h-272v75l129 130c31 31 46 56 46 75c0 24 -20 41 -47 41s-59 -17 -96 -52l-45 68c42 45 91 68 147 68c79 0 136 -51 136 -124c0 -38 -19 -76 -56 -114z" />
    <glyph glyph-name="threequarters" unicode="&#xbe;" horiz-adv-x="849" 
d="M153 425c82 -5 78 91 0 85h-53v79h47c31 0 59 13 59 40c0 25 -24 38 -52 38c-24 0 -50 -9 -79 -28l-45 66c37 31 82 47 135 47c39 0 71 -10 97 -31c26 -20 39 -45 39 -74c0 -43 -29 -76 -72 -89v-2c52 -12 82 -49 82 -96c5 -106 -155 -161 -291 -80l38 73
c37 -19 68 -28 95 -28zM112 0l578 739h113l-576 -739h-115zM679 396h72v-232h42v-75h-42v-89h-85v89h-178l-19 56zM666 278l-95 -114h95v114z" />
    <glyph glyph-name="questiondown" unicode="&#xbf;" horiz-adv-x="543" 
d="M381 446c0 -45 -36 -81 -83 -81c-45 0 -81 36 -81 81c0 47 36 81 81 81s83 -34 83 -81zM232 320h136v-66c0 -57 -29 -107 -65 -140c-52 -46 -118 -91 -118 -153c0 -53 43 -90 100 -90c49 0 99 29 149 87l87 -98c-66 -81 -148 -122 -247 -122c-70 0 -127 20 -172 61
s-67 92 -67 153c0 63 31 116 70 151c56 52 127 99 127 159v58z" />
    <glyph glyph-name="Agrave" unicode="&#xc0;" 
d="M352 978l65 -183h-133l-97 183h165zM688 0h-156l-55 160h-258l-57 -160h-155l282 739h121zM435 292l-86 246l-88 -246h174z" />
    <glyph glyph-name="Aacute" unicode="&#xc1;" 
d="M355 977h163l-98 -183h-130zM688 0h-156l-55 160h-258l-57 -160h-155l282 739h121zM435 292l-86 246l-88 -246h174z" />
    <glyph glyph-name="Acircumflex" unicode="&#xc2;" 
d="M415 794l-67 89l-68 -89h-139l154 183h109l155 -183h-144zM688 0h-156l-55 160h-258l-57 -160h-155l282 739h121zM435 292l-86 246l-88 -246h174z" />
    <glyph glyph-name="Atilde" unicode="&#xc3;" 
d="M282 842c-27 0 -48 -17 -65 -52l-92 45c33 79 82 118 147 118c23 0 49 -7 78 -22s48 -22 59 -22c23 0 44 16 61 48l91 -43c-28 -75 -78 -118 -138 -118c-21 0 -47 8 -77 23s-51 23 -64 23zM688 0h-156l-55 160h-258l-57 -160h-155l282 739h121zM435 292l-86 246l-88 -246
h174z" />
    <glyph glyph-name="Adieresis" unicode="&#xc4;" 
d="M155 880c0 45 36 81 83 81s83 -36 83 -81c0 -48 -36 -84 -83 -84s-83 36 -83 84zM452 796c-48 0 -83 36 -83 84c0 45 36 81 83 81c45 0 82 -36 82 -81c0 -48 -37 -84 -82 -84zM688 0h-156l-55 160h-258l-57 -160h-155l282 739h121zM435 292l-86 246l-88 -246h174z" />
    <glyph glyph-name="Aring" unicode="&#xc5;" 
d="M213 911c0 37 13 69 40 95s59 39 98 39s71 -13 97 -39c27 -26 40 -58 40 -95s-13 -69 -40 -94c-26 -25 -58 -38 -97 -38s-71 13 -98 38c-27 26 -40 57 -40 94zM351 966c-31 0 -55 -24 -55 -53c0 -31 24 -55 55 -55c29 0 53 24 53 55c0 29 -24 53 -53 53zM688 0h-156
l-55 160h-258l-57 -160h-155l282 739h121zM435 292l-86 246l-88 -246h174z" />
    <glyph glyph-name="AE" unicode="&#xc6;" horiz-adv-x="1050" 
d="M996 739v-138h-357v-159h329v-138h-329v-166h356v-138h-506v174h-244l-100 -174h-163l447 739h567zM489 598l-168 -292h168v292z" />
    <glyph glyph-name="Ccedilla" unicode="&#xc7;" horiz-adv-x="765" 
d="M644 239l102 -93c-60 -83 -162 -143 -281 -155l-16 -39c60 -3 108 -40 108 -100c0 -64 -54 -120 -146 -120c-39 0 -81 10 -124 31l31 81c28 -14 55 -21 81 -21c35 0 52 17 52 38c0 23 -19 34 -56 34h-54l-8 27l28 71c-93 13 -170 53 -231 121c-60 68 -90 152 -90 253
c0 112 37 204 111 276c75 73 165 109 271 109c133 0 253 -61 318 -153l-99 -97c-58 71 -128 107 -211 107c-67 0 -123 -23 -168 -69c-45 -45 -68 -103 -68 -173c0 -68 22 -124 67 -169s101 -67 168 -67c86 0 158 36 215 108z" />
    <glyph glyph-name="Egrave" unicode="&#xc8;" horiz-adv-x="637" 
d="M345 978l65 -183h-133l-97 183h165zM583 0h-501v739h501v-138h-352v-159h326v-138h-326v-166h352v-138z" />
    <glyph glyph-name="Eacute" unicode="&#xc9;" horiz-adv-x="637" 
d="M390 794h-130l65 183h163zM583 0h-501v739h501v-138h-352v-159h326v-138h-326v-166h352v-138z" />
    <glyph glyph-name="Ecircumflex" unicode="&#xca;" horiz-adv-x="637" 
d="M263 794h-139l154 183h109l155 -183h-144l-67 89zM583 0h-501v739h501v-138h-352v-159h326v-138h-326v-166h352v-138z" />
    <glyph glyph-name="Edieresis" unicode="&#xcb;" horiz-adv-x="637" 
d="M143 880c0 45 36 81 83 81s83 -36 83 -81c0 -48 -36 -84 -83 -84s-83 36 -83 84zM440 796c-48 0 -83 36 -83 84c0 45 36 81 83 81c45 0 82 -36 82 -81c0 -48 -37 -84 -82 -84zM583 0h-501v739h501v-138h-352v-159h326v-138h-326v-166h352v-138z" />
    <glyph glyph-name="Igrave" unicode="&#xcc;" horiz-adv-x="313" 
d="M163 978l65 -183h-133l-97 183h165zM84 0v739h149v-739h-149z" />
    <glyph glyph-name="Iacute" unicode="&#xcd;" horiz-adv-x="311" 
d="M217 795h-130l65 183h163zM82 0v739h149v-739h-149z" />
    <glyph glyph-name="Icircumflex" unicode="&#xce;" horiz-adv-x="313" 
d="M89 796h-139l154 183h109l155 -183h-144l-67 89zM84 0v739h149v-739h-149z" />
    <glyph glyph-name="Idieresis" unicode="&#xcf;" horiz-adv-x="313" 
d="M-37 882c0 45 38 83 85 83s85 -38 85 -83c0 -49 -37 -86 -85 -86s-85 37 -85 86zM268 796c-49 0 -86 37 -86 86c0 47 37 83 86 83c47 0 84 -38 84 -83c0 -49 -37 -86 -84 -86zM84 0v739h149v-739h-149z" />
    <glyph glyph-name="Eth" unicode="&#xd0;" horiz-adv-x="786" 
d="M98 739h289c111 0 198 -33 261 -100c63 -66 95 -156 95 -271c0 -113 -32 -203 -97 -269c-64 -66 -152 -99 -265 -99h-283v310h-82v120h82v309zM246 142h142c64 0 113 22 148 65s53 98 53 164c0 65 -18 118 -53 161s-84 65 -148 65h-142v-167h191v-120h-191v-168z" />
    <glyph glyph-name="Ntilde" unicode="&#xd1;" horiz-adv-x="794" 
d="M272 793l-92 45c33 79 82 118 147 118c23 0 49 -7 78 -22s48 -22 59 -22c23 0 44 16 61 48l91 -43c-28 -75 -78 -118 -138 -118c-21 0 -47 8 -77 23s-51 23 -64 23c-27 0 -48 -17 -65 -52zM566 282v457h146v-739h-101l-383 453v-453h-146v739h94z" />
    <glyph glyph-name="Ograve" unicode="&#xd2;" horiz-adv-x="848" 
d="M437 978l65 -183h-133l-97 183h165zM423 -12c-109 0 -201 36 -274 109s-110 163 -110 270s37 198 111 273c75 75 166 112 274 112s199 -37 273 -112c75 -75 112 -165 112 -271s-37 -196 -112 -270c-74 -74 -165 -111 -274 -111zM655 369c0 68 -22 124 -67 169
s-99 68 -164 68s-119 -23 -164 -68s-67 -102 -67 -169s22 -123 66 -168c45 -45 100 -67 165 -67s120 22 165 67s67 101 66 168z" />
    <glyph glyph-name="Oacute" unicode="&#xd3;" horiz-adv-x="848" 
d="M488 794h-130l65 183h163zM423 -12c-109 0 -201 36 -274 109s-110 163 -110 270s37 198 111 273c75 75 166 112 274 112s199 -37 273 -112c75 -75 112 -165 112 -271s-37 -196 -112 -270c-74 -74 -165 -111 -274 -111zM655 369c0 68 -22 124 -67 169s-99 68 -164 68
s-119 -23 -164 -68s-67 -102 -67 -169s22 -123 66 -168c45 -45 100 -67 165 -67s120 22 165 67s67 101 66 168z" />
    <glyph glyph-name="Ocircumflex" unicode="&#xd4;" horiz-adv-x="848" 
d="M355 794h-139l154 183h109l155 -183h-144l-67 89zM423 -12c-109 0 -201 36 -274 109s-110 163 -110 270s37 198 111 273c75 75 166 112 274 112s199 -37 273 -112c75 -75 112 -165 112 -271s-37 -196 -112 -270c-74 -74 -165 -111 -274 -111zM655 369
c0 68 -22 124 -67 169s-99 68 -164 68s-119 -23 -164 -68s-67 -102 -67 -169s22 -123 66 -168c45 -45 100 -67 165 -67s120 22 165 67s67 101 66 168z" />
    <glyph glyph-name="Otilde" unicode="&#xd5;" horiz-adv-x="848" 
d="M301 790l-92 45c33 79 82 118 147 118c23 0 49 -7 78 -22s48 -22 59 -22c23 0 44 16 61 48l91 -43c-28 -75 -78 -118 -138 -118c-21 0 -47 8 -77 23s-51 23 -64 23c-27 0 -48 -17 -65 -52zM423 -12c-109 0 -201 36 -274 109s-110 163 -110 270s37 198 111 273
c75 75 166 112 274 112s199 -37 273 -112c75 -75 112 -165 112 -271s-37 -196 -112 -270c-74 -74 -165 -111 -274 -111zM655 369c0 68 -22 124 -67 169s-99 68 -164 68s-119 -23 -164 -68s-67 -102 -67 -169s22 -123 66 -168c45 -45 100 -67 165 -67s120 22 165 67
s67 101 66 168z" />
    <glyph glyph-name="Odieresis" unicode="&#xd6;" horiz-adv-x="848" 
d="M237 880c0 45 36 81 83 81s83 -36 83 -81c0 -48 -36 -84 -83 -84s-83 36 -83 84zM534 796c-48 0 -83 36 -83 84c0 45 36 81 83 81c45 0 82 -36 82 -81c0 -48 -37 -84 -82 -84zM423 -12c-109 0 -201 36 -274 109s-110 163 -110 270s37 198 111 273c75 75 166 112 274 112
s199 -37 273 -112c75 -75 112 -165 112 -271s-37 -196 -112 -270c-74 -74 -165 -111 -274 -111zM655 369c0 68 -22 124 -67 169s-99 68 -164 68s-119 -23 -164 -68s-67 -102 -67 -169s22 -123 66 -168c45 -45 100 -67 165 -67s120 22 165 67s67 101 66 168z" />
    <glyph glyph-name="multiply" unicode="&#xd7;" horiz-adv-x="556" 
d="M424 573l88 -85l-149 -150l148 -147l-84 -89l-150 150l-149 -150l-85 89l148 148l-147 147l84 87l148 -148z" />
    <glyph glyph-name="Oslash" unicode="&#xd8;" horiz-adv-x="848" 
d="M756 737l-64 -91c78 -76 117 -168 117 -277c0 -106 -37 -196 -112 -270c-74 -74 -165 -111 -274 -111c-59 0 -116 12 -169 36l-59 -84l-86 59l58 82c-81 69 -128 173 -128 286c0 107 37 198 111 273c75 75 166 112 274 112c67 0 129 -15 184 -46l63 90zM193 369
c0 -65 21 -120 62 -163l267 379c-32 14 -65 21 -98 21c-65 0 -119 -23 -164 -68s-67 -102 -67 -169zM424 134c65 0 120 22 165 67s67 101 66 168c0 59 -17 109 -51 152l-262 -373c26 -9 53 -14 82 -14z" />
    <glyph glyph-name="Ugrave" unicode="&#xd9;" horiz-adv-x="725" 
d="M373 978l65 -183h-133l-97 183h165zM74 270v469h149v-459c0 -99 53 -149 140 -149c84 0 138 53 138 149v459h150v-469c0 -93 -27 -163 -82 -211c-54 -48 -123 -72 -206 -72s-152 24 -207 72s-82 118 -82 211z" />
    <glyph glyph-name="Uacute" unicode="&#xda;" horiz-adv-x="725" 
d="M422 794h-130l65 183h163zM74 270v469h149v-459c0 -99 53 -149 140 -149c84 0 138 53 138 149v459h150v-469c0 -93 -27 -163 -82 -211c-54 -48 -123 -72 -206 -72s-152 24 -207 72s-82 118 -82 211z" />
    <glyph glyph-name="Ucircumflex" unicode="&#xdb;" horiz-adv-x="725" 
d="M293 794h-139l154 183h109l155 -183h-144l-67 89zM74 270v469h149v-459c0 -99 53 -149 140 -149c84 0 138 53 138 149v459h150v-469c0 -93 -27 -163 -82 -211c-54 -48 -123 -72 -206 -72s-152 24 -207 72s-82 118 -82 211z" />
    <glyph glyph-name="Udieresis" unicode="&#xdc;" horiz-adv-x="725" 
d="M172 880c0 45 36 81 83 81s83 -36 83 -81c0 -48 -36 -84 -83 -84s-83 36 -83 84zM469 796c-47 0 -83 36 -83 84c0 45 36 81 83 81c45 0 82 -36 82 -81c0 -48 -37 -84 -82 -84zM74 270v469h149v-459c0 -99 53 -149 140 -149c84 0 138 53 138 149v459h150v-469
c0 -93 -27 -163 -82 -211c-54 -48 -123 -72 -206 -72s-152 24 -207 72s-82 118 -82 211z" />
    <glyph glyph-name="Yacute" unicode="&#xdd;" horiz-adv-x="679" 
d="M398 794h-130l65 183h163zM498 739h171l-256 -483v-256h-148v256l-253 483h171l156 -324z" />
    <glyph glyph-name="Thorn" unicode="&#xde;" horiz-adv-x="652" 
d="M230 619h130c85 0 148 -24 191 -71s65 -103 65 -170s-23 -124 -68 -170s-111 -69 -200 -69h-118v-139h-148v739h148v-120zM230 275h122c75 0 112 48 112 105c0 56 -37 101 -104 101h-130v-206z" />
    <glyph glyph-name="germandbls" unicode="&#xdf;" horiz-adv-x="667" 
d="M500 396c80 -25 132 -102 132 -191c0 -65 -24 -118 -72 -161c-47 -42 -108 -63 -181 -63c-45 0 -87 8 -126 23l29 120c23 -10 50 -15 82 -15c75 0 125 47 125 107c0 69 -67 109 -167 109v112c77 0 129 48 129 111c0 57 -44 99 -109 99c-84 0 -136 -68 -136 -184v-640
h-142v660c0 107 38 189 94 233c57 44 122 65 190 65c71 0 130 -21 177 -62s70 -93 70 -155c0 -71 -34 -132 -95 -168z" />
    <glyph glyph-name="agrave" unicode="&#xe0;" horiz-adv-x="678" 
d="M340 803l62 -176h-125l-94 176h157zM479 480v65h134v-545h-134v63c-47 -51 -105 -76 -174 -76c-78 0 -143 27 -194 82s-76 124 -76 206s26 150 77 203c51 54 116 81 193 81c68 0 126 -26 174 -79zM481 273c0 43 -15 80 -44 111s-65 46 -109 46c-45 0 -81 -15 -110 -46
c-28 -31 -42 -68 -42 -111c0 -44 14 -81 43 -112s65 -46 109 -46s80 15 109 46s44 68 44 112z" />
    <glyph glyph-name="aacute" unicode="&#xe1;" horiz-adv-x="678" 
d="M335 802h157l-94 -176h-125zM479 480v65h134v-545h-134v63c-47 -51 -105 -76 -174 -76c-78 0 -143 27 -194 82s-76 124 -76 206s26 150 77 203c51 54 116 81 193 81c68 0 126 -26 174 -79zM481 273c0 43 -15 80 -44 111s-65 46 -109 46c-45 0 -81 -15 -110 -46
c-28 -31 -42 -68 -42 -111c0 -44 14 -81 43 -112s65 -46 109 -46s80 15 109 46s44 68 44 112z" />
    <glyph glyph-name="acircumflex" unicode="&#xe2;" horiz-adv-x="678" 
d="M401 626l-65 86l-65 -86h-134l148 176h105l149 -176h-138zM479 480v65h134v-545h-134v63c-47 -51 -105 -76 -174 -76c-78 0 -143 27 -194 82s-76 124 -76 206s26 150 77 203c51 54 116 81 193 81c68 0 126 -26 174 -79zM481 273c0 43 -15 80 -44 111s-65 46 -109 46
c-45 0 -81 -15 -110 -46c-28 -31 -42 -68 -42 -111c0 -44 14 -81 43 -112s65 -46 109 -46s80 15 109 46s44 68 44 112z" />
    <glyph glyph-name="atilde" unicode="&#xe3;" horiz-adv-x="678" 
d="M281 673c-26 0 -47 -17 -64 -51l-90 44c33 77 81 115 144 115c22 0 47 -7 75 -22c29 -14 48 -21 59 -21c23 0 42 16 59 47l89 -42c-27 -73 -76 -115 -135 -115c-21 0 -46 7 -75 22s-49 23 -62 23zM479 480v65h134v-545h-134v63c-47 -51 -105 -76 -174 -76
c-78 0 -143 27 -194 82s-76 124 -76 206s26 150 77 203c51 54 116 81 193 81c68 0 126 -26 174 -79zM481 273c0 43 -15 80 -44 111s-65 46 -109 46c-45 0 -81 -15 -110 -46c-28 -31 -42 -68 -42 -111c0 -44 14 -81 43 -112s65 -46 109 -46s80 15 109 46s44 68 44 112z" />
    <glyph glyph-name="adieresis" unicode="&#xe4;" horiz-adv-x="678" 
d="M149 702c0 45 37 82 84 82s84 -37 84 -82c0 -49 -36 -85 -84 -85s-84 36 -84 85zM451 617c-48 0 -85 36 -85 85c0 47 37 82 85 82c47 0 83 -37 83 -82c0 -49 -36 -85 -83 -85zM479 480v65h134v-545h-134v63c-47 -51 -105 -76 -174 -76c-78 0 -143 27 -194 82
s-76 124 -76 206s26 150 77 203c51 54 116 81 193 81c68 0 126 -26 174 -79zM481 273c0 43 -15 80 -44 111s-65 46 -109 46c-45 0 -81 -15 -110 -46c-28 -31 -42 -68 -42 -111c0 -44 14 -81 43 -112s65 -46 109 -46s80 15 109 46s44 68 44 112z" />
    <glyph glyph-name="aring" unicode="&#xe5;" horiz-adv-x="678" 
d="M339 607c-37 0 -69 12 -95 37c-25 25 -38 55 -38 90c0 36 13 66 38 91c26 25 58 38 95 38s68 -13 93 -38c26 -25 39 -55 39 -91c0 -35 -13 -65 -39 -90c-25 -25 -56 -37 -93 -37zM339 787c-29 0 -53 -22 -53 -51s24 -53 53 -53c28 0 51 24 51 53s-23 51 -51 51zM479 480
v65h134v-545h-134v63c-47 -51 -105 -76 -174 -76c-78 0 -143 27 -194 82s-76 124 -76 206s26 150 77 203c51 54 116 81 193 81c68 0 126 -26 174 -79zM481 273c0 43 -15 80 -44 111s-65 46 -109 46c-45 0 -81 -15 -110 -46c-28 -31 -42 -68 -42 -111c0 -44 14 -81 43 -112
s65 -46 109 -46s80 15 109 46s44 68 44 112z" />
    <glyph glyph-name="ae" unicode="&#xe6;" horiz-adv-x="981" 
d="M947 294c0 -19 -1 -40 -4 -63l-401 1c15 -75 69 -127 153 -127c60 0 116 19 167 56l60 -97c-66 -51 -144 -76 -235 -76c-102 0 -178 36 -229 108c-50 -73 -124 -109 -222 -109c-65 0 -116 17 -153 50s-55 76 -55 127c0 64 32 111 83 134c52 24 106 33 167 33h124
c-15 74 -62 111 -140 111c-61 0 -115 -16 -163 -48l-48 100c29 19 63 35 104 47s81 18 118 18c90 0 157 -31 200 -94c53 63 124 94 213 94c75 0 137 -23 186 -69c50 -46 75 -111 75 -196zM544 331h276c-11 71 -63 112 -134 112s-123 -41 -142 -112zM251 105
c72 0 136 47 152 127h-122c-80 0 -120 -21 -120 -63c0 -39 37 -64 90 -64z" />
    <glyph glyph-name="ccedilla" unicode="&#xe7;" horiz-adv-x="603" 
d="M327 117c57 0 115 34 139 82l114 -67c-41 -77 -121 -130 -217 -142l-16 -38c60 -3 108 -40 108 -100c0 -64 -54 -120 -146 -120c-39 0 -81 10 -124 31l31 81c28 -14 55 -21 81 -21c35 0 52 17 52 38c0 23 -19 34 -56 34h-54l-8 27l29 72c-68 13 -123 45 -164 95
c-41 51 -61 112 -61 184c0 83 27 152 82 205c55 54 125 81 211 81c111 0 209 -55 254 -152l-113 -62c-33 55 -80 83 -139 83c-45 0 -82 -15 -111 -45c-29 -29 -44 -66 -44 -110c0 -45 14 -82 43 -112c29 -29 66 -44 109 -44z" />
    <glyph glyph-name="egrave" unicode="&#xe8;" horiz-adv-x="626" 
d="M327 801l62 -176h-125l-94 176h157zM593 285c0 -19 -2 -40 -5 -62h-409c20 -77 73 -116 159 -116c59 0 129 23 176 55l56 -99c-69 -50 -148 -75 -238 -75c-96 0 -169 28 -220 83s-76 123 -76 202c0 83 26 151 79 205s121 81 205 81c79 0 145 -25 196 -74s77 -115 77 -200
zM320 442c-71 0 -124 -43 -141 -114h277c-13 71 -64 114 -136 114z" />
    <glyph glyph-name="eacute" unicode="&#xe9;" horiz-adv-x="626" 
d="M313 802h157l-94 -176h-125zM593 285c0 -19 -2 -40 -5 -62h-409c20 -77 73 -116 159 -116c59 0 129 23 176 55l56 -99c-69 -50 -148 -75 -238 -75c-96 0 -169 28 -220 83s-76 123 -76 202c0 83 26 151 79 205s121 81 205 81c79 0 145 -25 196 -74s77 -115 77 -200z
M320 442c-71 0 -124 -43 -141 -114h277c-13 71 -64 114 -136 114z" />
    <glyph glyph-name="ecircumflex" unicode="&#xea;" horiz-adv-x="626" 
d="M385 629l-65 86l-65 -86h-134l148 176h105l149 -176h-138zM593 285c0 -19 -2 -40 -5 -62h-409c20 -77 73 -116 159 -116c59 0 129 23 176 55l56 -99c-69 -50 -148 -75 -238 -75c-96 0 -169 28 -220 83s-76 123 -76 202c0 83 26 151 79 205s121 81 205 81
c79 0 145 -25 196 -74s77 -115 77 -200zM320 442c-71 0 -124 -43 -141 -114h277c-13 71 -64 114 -136 114z" />
    <glyph glyph-name="edieresis" unicode="&#xeb;" horiz-adv-x="626" 
d="M138 696c0 45 37 82 84 82s84 -37 84 -82c0 -49 -36 -85 -84 -85s-84 36 -84 85zM440 611c-48 0 -85 36 -85 85c0 47 37 82 85 82c47 0 83 -37 83 -82c0 -49 -36 -85 -83 -85zM593 285c0 -19 -2 -40 -5 -62h-409c20 -77 73 -116 159 -116c59 0 129 23 176 55l56 -99
c-69 -50 -148 -75 -238 -75c-96 0 -169 28 -220 83s-76 123 -76 202c0 83 26 151 79 205s121 81 205 81c79 0 145 -25 196 -74s77 -115 77 -200zM320 442c-71 0 -124 -43 -141 -114h277c-13 71 -64 114 -136 114z" />
    <glyph glyph-name="igrave" unicode="&#xec;" horiz-adv-x="271" 
d="M141 801l62 -176h-125l-94 176h157zM207 545v-545h-141v545h141z" />
    <glyph glyph-name="iacute" unicode="&#xed;" horiz-adv-x="267" 
d="M195 626h-125l62 176h157zM205 545v-545h-141v545h141z" />
    <glyph glyph-name="icircumflex" unicode="&#xee;" horiz-adv-x="269" 
d="M70 626h-134l148 176h105l149 -176h-138l-65 86zM207 545v-545h-141v545h141z" />
    <glyph glyph-name="idieresis" unicode="&#xef;" horiz-adv-x="269" 
d="M-56 700c0 45 37 82 84 82s84 -37 84 -82c0 -49 -36 -85 -84 -85s-84 36 -84 85zM246 615c-48 0 -85 36 -85 85c0 47 37 82 85 82c47 0 83 -37 83 -82c0 -49 -36 -85 -83 -85zM207 545v-545h-141v545h141z" />
    <glyph glyph-name="eth" unicode="&#xf0;" horiz-adv-x="655" 
d="M565 749l-79 -56c86 -112 129 -228 129 -347c0 -103 -29 -188 -88 -257c-58 -68 -132 -102 -222 -102c-79 0 -144 25 -195 76c-50 51 -75 113 -75 188c0 74 25 135 76 184s110 73 178 73c79 0 140 -34 182 -101c-15 75 -48 144 -97 206l-84 -60l-53 67l80 57
c-31 31 -64 60 -98 86l99 95c40 -31 77 -64 112 -101l84 60zM453 256c0 39 -14 72 -41 98c-27 27 -59 40 -97 40c-39 0 -72 -14 -99 -41s-40 -61 -40 -100s13 -73 39 -100s59 -40 98 -40s72 14 99 41s41 61 41 102z" />
    <glyph glyph-name="ntilde" unicode="&#xf1;" horiz-adv-x="643" 
d="M204 621l-90 44c33 77 81 115 144 115c22 0 47 -7 75 -22c29 -14 48 -21 59 -21c23 0 42 16 59 47l89 -42c-27 -73 -76 -115 -135 -115c-21 0 -46 7 -75 22s-49 23 -62 23c-25 0 -47 -17 -64 -51zM205 0h-141v545h138v-76c29 53 94 91 171 91c59 0 110 -20 151 -59
s62 -95 62 -168v-333h-141v295c0 87 -46 135 -115 135c-75 0 -125 -57 -125 -138v-292z" />
    <glyph glyph-name="ograve" unicode="&#xf2;" horiz-adv-x="654" 
d="M333 801l62 -176h-125l-94 176h157zM35 273c0 80 27 148 82 203c55 56 125 84 210 84s155 -28 210 -84c55 -55 82 -123 82 -203c0 -81 -27 -149 -82 -204s-125 -83 -210 -83s-155 28 -210 83s-82 123 -82 204zM219 162c29 -30 65 -45 108 -45s78 15 107 45
c29 31 44 68 44 111s-15 80 -44 110s-64 45 -107 45s-79 -15 -108 -45s-43 -67 -43 -110s14 -80 43 -111z" />
    <glyph glyph-name="oacute" unicode="&#xf3;" horiz-adv-x="654" 
d="M381 626h-125l62 176h157zM35 273c0 80 27 148 82 203c55 56 125 84 210 84s155 -28 210 -84c55 -55 82 -123 82 -203c0 -81 -27 -149 -82 -204s-125 -83 -210 -83s-155 28 -210 83s-82 123 -82 204zM219 162c29 -30 65 -45 108 -45s78 15 107 45c29 31 44 68 44 111
s-15 80 -44 110s-64 45 -107 45s-79 -15 -108 -45s-43 -67 -43 -110s14 -80 43 -111z" />
    <glyph glyph-name="ocircumflex" unicode="&#xf4;" horiz-adv-x="654" 
d="M260 628h-134l148 176h105l149 -176h-138l-65 86zM35 273c0 80 27 148 82 203c55 56 125 84 210 84s155 -28 210 -84c55 -55 82 -123 82 -203c0 -81 -27 -149 -82 -204s-125 -83 -210 -83s-155 28 -210 83s-82 123 -82 204zM219 162c29 -30 65 -45 108 -45s78 15 107 45
c29 31 44 68 44 111s-15 80 -44 110s-64 45 -107 45s-79 -15 -108 -45s-43 -67 -43 -110s14 -80 43 -111z" />
    <glyph glyph-name="otilde" unicode="&#xf5;" horiz-adv-x="654" 
d="M206 622l-90 44c33 77 81 115 144 115c22 0 47 -7 75 -22c29 -14 48 -21 59 -21c23 0 42 16 59 47l89 -42c-27 -73 -76 -115 -135 -115c-21 0 -46 7 -75 22s-49 23 -62 23c-25 0 -47 -17 -64 -51zM35 273c0 80 27 148 82 203c55 56 125 84 210 84s155 -28 210 -84
c55 -55 82 -123 82 -203c0 -81 -27 -149 -82 -204s-125 -83 -210 -83s-155 28 -210 83s-82 123 -82 204zM219 162c29 -30 65 -45 108 -45s78 15 107 45c29 31 44 68 44 111s-15 80 -44 110s-64 45 -107 45s-79 -15 -108 -45s-43 -67 -43 -110s14 -80 43 -111z" />
    <glyph glyph-name="odieresis" unicode="&#xf6;" horiz-adv-x="654" 
d="M135 701c0 45 37 82 84 82s84 -37 84 -82c0 -49 -36 -85 -84 -85s-84 36 -84 85zM437 616c-48 0 -85 36 -85 85c0 47 37 82 85 82c47 0 83 -37 83 -82c0 -49 -36 -85 -83 -85zM35 273c0 80 27 148 82 203c55 56 125 84 210 84s155 -28 210 -84c55 -55 82 -123 82 -203
c0 -81 -27 -149 -82 -204s-125 -83 -210 -83s-155 28 -210 83s-82 123 -82 204zM219 162c29 -30 65 -45 108 -45s78 15 107 45c29 31 44 68 44 111s-15 80 -44 110s-64 45 -107 45s-79 -15 -108 -45s-43 -67 -43 -110s14 -80 43 -111z" />
    <glyph glyph-name="divide" unicode="&#xf7;" horiz-adv-x="553" 
d="M277 452c-44 0 -79 34 -79 78c0 43 35 76 79 76c43 0 76 -33 76 -76c0 -44 -33 -78 -76 -78zM510 283h-468v119h468v-119zM277 81c-44 0 -79 34 -79 78c0 43 35 76 79 76c43 0 76 -33 76 -76c0 -44 -33 -78 -76 -78z" />
    <glyph glyph-name="oslash" unicode="&#xf8;" horiz-adv-x="654" 
d="M574 562l-50 -73c63 -56 95 -128 95 -216c0 -81 -27 -149 -82 -204s-125 -83 -210 -83c-47 0 -91 9 -132 28l-55 -79l-64 44l54 78c-63 55 -95 127 -95 216c0 80 27 148 82 203c55 56 125 84 210 84c47 0 91 -9 130 -28l50 73zM176 273c0 -37 11 -71 34 -100l169 246
c-16 6 -33 9 -52 9c-43 0 -79 -15 -108 -45s-43 -67 -43 -110zM327 117c43 0 78 15 107 45c29 31 44 68 44 111c0 38 -12 71 -35 100l-170 -246c19 -7 37 -10 54 -10z" />
    <glyph glyph-name="ugrave" unicode="&#xf9;" horiz-adv-x="614" 
d="M315 802l62 -176h-125l-94 176h157zM307 -13c-155 0 -250 90 -250 243v315h141v-315c0 -69 41 -114 109 -114s109 45 109 114v315h141v-315c0 -153 -94 -243 -250 -243z" />
    <glyph glyph-name="uacute" unicode="&#xfa;" horiz-adv-x="614" 
d="M365 626h-125l62 176h157zM307 -13c-155 0 -250 90 -250 243v315h141v-315c0 -69 41 -114 109 -114s109 45 109 114v315h141v-315c0 -153 -94 -243 -250 -243z" />
    <glyph glyph-name="ucircumflex" unicode="&#xfb;" horiz-adv-x="614" 
d="M241 628h-134l148 176h105l149 -176h-138l-65 86zM307 -13c-155 0 -250 90 -250 243v315h141v-315c0 -69 41 -114 109 -114s109 45 109 114v315h141v-315c0 -153 -94 -243 -250 -243z" />
    <glyph glyph-name="udieresis" unicode="&#xfc;" horiz-adv-x="614" 
d="M115 700c0 45 37 82 84 82s84 -37 84 -82c0 -49 -36 -85 -84 -85s-84 36 -84 85zM417 615c-48 0 -85 36 -85 85c0 47 37 82 85 82c47 0 83 -37 83 -82c0 -49 -36 -85 -83 -85zM307 -13c-155 0 -250 90 -250 243v315h141v-315c0 -69 41 -114 109 -114s109 45 109 114v315
h141v-315c0 -153 -94 -243 -250 -243z" />
    <glyph glyph-name="yacute" unicode="&#xfd;" horiz-adv-x="599" 
d="M295 801h157l-94 -176h-125zM312 190l124 355h154l-219 -572c-53 -139 -123 -205 -231 -205c-41 0 -76 9 -105 27l24 118c25 -12 49 -18 70 -18c44 0 79 29 106 86l11 25l-238 539h163z" />
    <glyph glyph-name="thorn" unicode="&#xfe;" horiz-adv-x="681" 
d="M373 559c78 0 143 -28 195 -83c53 -55 79 -123 79 -203c0 -79 -26 -147 -79 -203c-52 -55 -117 -83 -194 -83c-65 0 -122 26 -169 78v-289h-141v984h139v-281c47 53 103 80 170 80zM351 116c44 0 80 15 108 45c29 30 43 67 43 111s-14 81 -43 111c-28 30 -64 45 -108 45
c-45 0 -81 -15 -109 -45s-42 -67 -42 -111s14 -81 42 -111s64 -45 109 -45z" />
    <glyph glyph-name="ydieresis" unicode="&#xff;" horiz-adv-x="599" 
d="M114 701c0 45 37 82 84 82s84 -37 84 -82c0 -49 -36 -85 -84 -85s-84 36 -84 85zM416 616c-48 0 -85 36 -85 85c0 47 37 82 85 82c47 0 83 -37 83 -82c0 -49 -36 -85 -83 -85zM312 190l124 355h154l-219 -572c-53 -139 -123 -205 -231 -205c-41 0 -76 9 -105 27l24 118
c25 -12 49 -18 70 -18c44 0 79 29 106 86l11 25l-238 539h163z" />
    <glyph glyph-name="Amacron" unicode="&#x100;" 
d="M166 932h368v-122l-368 -2v124zM688 0h-156l-55 160h-258l-57 -160h-155l282 739h121zM435 292l-86 246l-88 -246h174z" />
    <glyph glyph-name="amacron" unicode="&#x101;" horiz-adv-x="678" 
d="M175 759h327v-122l-327 -2v124zM479 480v65h134v-545h-134v63c-47 -51 -105 -76 -174 -76c-78 0 -143 27 -194 82s-76 124 -76 206s26 150 77 203c51 54 116 81 193 81c68 0 126 -26 174 -79zM481 273c0 43 -15 80 -44 111s-65 46 -109 46c-45 0 -81 -15 -110 -46
c-28 -31 -42 -68 -42 -111c0 -44 14 -81 43 -112s65 -46 109 -46s80 15 109 46s44 68 44 112z" />
    <glyph glyph-name="Abreve" unicode="&#x102;" 
d="M154 973h116c3 -53 31 -89 80 -89c48 0 76 36 79 89h118c-7 -117 -82 -188 -197 -188s-188 71 -196 188zM688 0h-156l-55 160h-258l-57 -160h-155l282 739h121zM435 292l-86 246l-88 -246h174z" />
    <glyph glyph-name="abreve" unicode="&#x103;" horiz-adv-x="678" 
d="M337 621c-109 0 -181 69 -188 181h111c3 -51 29 -86 77 -86s74 35 77 86h113c-7 -112 -79 -181 -190 -181zM479 480v65h134v-545h-134v63c-47 -51 -105 -76 -174 -76c-78 0 -143 27 -194 82s-76 124 -76 206s26 150 77 203c51 54 116 81 193 81c68 0 126 -26 174 -79z
M481 273c0 43 -15 80 -44 111s-65 46 -109 46c-45 0 -81 -15 -110 -46c-28 -31 -42 -68 -42 -111c0 -44 14 -81 43 -112s65 -46 109 -46s80 15 109 46s44 68 44 112z" />
    <glyph glyph-name="Aogonek" unicode="&#x104;" horiz-adv-x="693" 
d="M671 -144l31 -90c-33 -20 -69 -30 -106 -30c-77 0 -123 48 -123 115c0 57 33 107 98 149h-39l-55 160h-258l-57 -160h-155l282 739h121l278 -739h-1c-55 -25 -98 -74 -98 -114s35 -51 82 -30zM435 292l-86 246l-88 -246h174z" />
    <glyph glyph-name="aogonek" unicode="&#x105;" horiz-adv-x="672" 
d="M596 -144l31 -90c-33 -20 -69 -30 -106 -30c-77 0 -123 48 -123 115c0 57 33 107 98 149h-17v63c-47 -51 -105 -76 -174 -76c-78 0 -143 27 -194 82s-76 124 -76 206s26 150 77 203c51 54 116 81 193 81c68 0 126 -26 174 -79v65h134v-545h-1c-55 -25 -98 -74 -98 -114
s35 -51 82 -30zM481 273c0 43 -15 80 -44 111s-65 46 -109 46c-45 0 -81 -15 -110 -46c-28 -31 -42 -68 -42 -111c0 -44 14 -81 43 -112s65 -46 109 -46s80 15 109 46s44 68 44 112z" />
    <glyph glyph-name="Cacute" unicode="&#x106;" horiz-adv-x="765" 
d="M491 794h-130l65 183h163zM420 -11c-107 0 -198 35 -271 105c-73 71 -109 162 -109 273c0 112 37 204 111 276c75 73 165 109 271 109c133 0 253 -61 318 -153l-99 -97c-58 71 -128 107 -211 107c-67 0 -123 -23 -168 -69c-45 -45 -68 -103 -68 -173
c0 -68 22 -124 67 -169s101 -67 168 -67c86 0 158 36 215 108l102 -93c-68 -93 -189 -157 -326 -157z" />
    <glyph glyph-name="cacute" unicode="&#x107;" horiz-adv-x="603" 
d="M384 626h-125l62 176h157zM324 -12c-85 0 -154 27 -208 80s-81 122 -81 205s27 152 82 205c55 54 125 81 211 81c111 0 209 -55 254 -152l-113 -62c-33 55 -80 83 -139 83c-45 0 -82 -15 -111 -45c-29 -29 -44 -66 -44 -110c0 -45 14 -82 43 -112c29 -29 66 -44 109 -44
c57 0 115 34 139 82l114 -67c-47 -88 -144 -144 -256 -144z" />
    <glyph glyph-name="Ccircumflex" unicode="&#x108;" horiz-adv-x="765" 
d="M348 794h-139l154 183h109l155 -183h-144l-67 89zM420 -11c-107 0 -198 35 -271 105c-73 71 -109 162 -109 273c0 112 37 204 111 276c75 73 165 109 271 109c133 0 253 -61 318 -153l-99 -97c-58 71 -128 107 -211 107c-67 0 -123 -23 -168 -69
c-45 -45 -68 -103 -68 -173c0 -68 22 -124 67 -169s101 -67 168 -67c86 0 158 36 215 108l102 -93c-68 -93 -189 -157 -326 -157z" />
    <glyph glyph-name="ccircumflex" unicode="&#x109;" horiz-adv-x="603" 
d="M257 627h-134l148 176h105l149 -176h-138l-65 86zM324 -12c-85 0 -154 27 -208 80s-81 122 -81 205s27 152 82 205c55 54 125 81 211 81c111 0 209 -55 254 -152l-113 -62c-33 55 -80 83 -139 83c-45 0 -82 -15 -111 -45c-29 -29 -44 -66 -44 -110c0 -45 14 -82 43 -112
c29 -29 66 -44 109 -44c57 0 115 34 139 82l114 -67c-47 -88 -144 -144 -256 -144z" />
    <glyph glyph-name="Cdotaccent" unicode="&#x10a;" horiz-adv-x="765" 
d="M481 820c-33 -33 -91 -33 -124 0s-33 91 0 123c33 33 91 33 124 0c33 -32 33 -90 0 -123zM420 -11c-107 0 -198 35 -271 105c-73 71 -109 162 -109 273c0 112 37 204 111 276c75 73 165 109 271 109c133 0 253 -61 318 -153l-99 -97c-58 71 -128 107 -211 107
c-67 0 -123 -23 -168 -69c-45 -45 -68 -103 -68 -173c0 -68 22 -124 67 -169s101 -67 168 -67c86 0 158 36 215 108l102 -93c-68 -93 -189 -157 -326 -157z" />
    <glyph glyph-name="cdotaccent" unicode="&#x10b;" horiz-adv-x="603" 
d="M386 633c-33 -33 -91 -33 -124 0s-33 91 0 123c33 33 91 33 124 0c33 -32 33 -90 0 -123zM324 -12c-85 0 -154 27 -208 80s-81 122 -81 205s27 152 82 205c55 54 125 81 211 81c111 0 209 -55 254 -152l-113 -62c-33 55 -80 83 -139 83c-45 0 -82 -15 -111 -45
c-29 -29 -44 -66 -44 -110c0 -45 14 -82 43 -112c29 -29 66 -44 109 -44c57 0 115 34 139 82l114 -67c-47 -88 -144 -144 -256 -144z" />
    <glyph glyph-name="Ccaron" unicode="&#x10c;" horiz-adv-x="765" 
d="M370 794l-148 176h134l65 -86l65 86h138l-149 -176h-105zM420 -11c-107 0 -198 35 -271 105c-73 71 -109 162 -109 273c0 112 37 204 111 276c75 73 165 109 271 109c133 0 253 -61 318 -153l-99 -97c-58 71 -128 107 -211 107c-67 0 -123 -23 -168 -69
c-45 -45 -68 -103 -68 -173c0 -68 22 -124 67 -169s101 -67 168 -67c86 0 158 36 215 108l102 -93c-68 -93 -189 -157 -326 -157z" />
    <glyph glyph-name="ccaron" unicode="&#x10d;" horiz-adv-x="603" 
d="M273 626l-148 176h134l65 -86l65 86h138l-149 -176h-105zM324 -12c-85 0 -154 27 -208 80s-81 122 -81 205s27 152 82 205c55 54 125 81 211 81c111 0 209 -55 254 -152l-113 -62c-33 55 -80 83 -139 83c-45 0 -82 -15 -111 -45c-29 -29 -44 -66 -44 -110
c0 -45 14 -82 43 -112c29 -29 66 -44 109 -44c57 0 115 34 139 82l114 -67c-47 -88 -144 -144 -256 -144z" />
    <glyph glyph-name="Dcaron" unicode="&#x10e;" horiz-adv-x="770" 
d="M299 794l-148 176h134l65 -86l65 86h138l-149 -176h-105zM365 0h-283v739h289c111 0 198 -33 261 -100c63 -66 95 -156 95 -271c0 -113 -32 -203 -97 -269c-64 -66 -152 -99 -265 -99zM230 597v-455h142c64 0 113 22 148 65s53 98 53 164c0 65 -18 118 -53 161
s-84 65 -148 65h-142z" />
    <glyph glyph-name="dcaron" unicode="&#x10f;" horiz-adv-x="706" 
d="M648 625l64 179h147l-92 -179h-119zM471 482v278h141v-760h-138v67c-44 -53 -100 -80 -169 -80c-77 0 -142 27 -193 81c-51 55 -77 123 -77 205c0 81 26 149 77 204c52 55 116 82 193 82c66 0 121 -26 166 -77zM478 273c0 44 -14 81 -42 111c-28 31 -64 46 -109 46
s-81 -15 -110 -46c-28 -30 -42 -67 -42 -111c0 -45 14 -82 42 -113c29 -30 65 -45 110 -45s81 15 109 45c28 31 42 68 42 113z" />
    <glyph glyph-name="Dcroat" unicode="&#x110;" horiz-adv-x="786" 
d="M98 739h289c111 0 198 -33 261 -100c63 -66 95 -156 95 -271c0 -113 -32 -203 -97 -269c-64 -66 -152 -99 -265 -99h-283v310h-82v120h82v309zM246 142h142c64 0 113 22 148 65s53 98 53 164c0 65 -18 118 -53 161s-84 65 -148 65h-142v-167h191v-120h-191v-168z" />
    <glyph glyph-name="dslash" unicode="&#x111;" horiz-adv-x="676" 
d="M612 681h76v-88h-76v-593h-138v67c-44 -53 -100 -80 -169 -80c-77 0 -142 27 -193 81c-51 55 -77 123 -77 205c0 81 26 149 77 204c52 55 116 82 193 82c66 0 121 -26 166 -77v111h-140v88h140v79h141v-79zM478 273c0 44 -14 81 -42 111c-28 31 -64 46 -109 46
s-81 -15 -110 -46c-28 -30 -42 -67 -42 -111c0 -45 14 -82 42 -113c29 -30 65 -45 110 -45s81 15 109 45c28 31 42 68 42 113z" />
    <glyph glyph-name="Emacron" unicode="&#x112;" horiz-adv-x="637" 
d="M520 808l-368 -2v124h368v-122zM583 0h-501v739h501v-138h-352v-159h326v-138h-326v-166h352v-138z" />
    <glyph glyph-name="emacron" unicode="&#x113;" horiz-adv-x="626" 
d="M154 760h327v-122l-327 -2v124zM593 285c0 -19 -2 -40 -5 -62h-409c20 -77 73 -116 159 -116c59 0 129 23 176 55l56 -99c-69 -50 -148 -75 -238 -75c-96 0 -169 28 -220 83s-76 123 -76 202c0 83 26 151 79 205s121 81 205 81c79 0 145 -25 196 -74s77 -115 77 -200z
M320 442c-71 0 -124 -43 -141 -114h277c-13 71 -64 114 -136 114z" />
    <glyph glyph-name="Ebreve" unicode="&#x114;" horiz-adv-x="637" 
d="M144 973h116c3 -53 31 -89 80 -89c48 0 76 36 79 89h118c-7 -117 -82 -188 -197 -188s-188 71 -196 188zM583 0h-501v739h501v-138h-352v-159h326v-138h-326v-166h352v-138z" />
    <glyph glyph-name="ebreve" unicode="&#x115;" horiz-adv-x="626" 
d="M324 619c-109 0 -181 69 -188 181h111c3 -51 29 -86 77 -86s74 35 77 86h113c-7 -112 -79 -181 -190 -181zM593 285c0 -19 -2 -40 -5 -62h-409c20 -77 73 -116 159 -116c59 0 129 23 176 55l56 -99c-69 -50 -148 -75 -238 -75c-96 0 -169 28 -220 83s-76 123 -76 202
c0 83 26 151 79 205s121 81 205 81c79 0 145 -25 196 -74s77 -115 77 -200zM320 442c-71 0 -124 -43 -141 -114h277c-13 71 -64 114 -136 114z" />
    <glyph glyph-name="Edotaccent" unicode="&#x116;" horiz-adv-x="637" 
d="M397 820c-33 -33 -91 -33 -124 0s-33 91 0 123c33 33 91 33 124 0c33 -32 33 -90 0 -123zM583 0h-501v739h501v-138h-352v-159h326v-138h-326v-166h352v-138z" />
    <glyph glyph-name="edotaccent" unicode="&#x117;" horiz-adv-x="626" 
d="M388 635c-33 -33 -91 -33 -124 0s-33 91 0 123c33 33 91 33 124 0c33 -32 33 -90 0 -123zM593 285c0 -19 -2 -40 -5 -62h-409c20 -77 73 -116 159 -116c59 0 129 23 176 55l56 -99c-69 -50 -148 -75 -238 -75c-96 0 -169 28 -220 83s-76 123 -76 202c0 83 26 151 79 205
s121 81 205 81c79 0 145 -25 196 -74s77 -115 77 -200zM320 442c-71 0 -124 -43 -141 -114h277c-13 71 -64 114 -136 114z" />
    <glyph glyph-name="Eogonek" unicode="&#x118;" horiz-adv-x="632" 
d="M566 -144l31 -90c-33 -20 -69 -30 -106 -30c-77 0 -123 48 -123 115c0 57 33 107 98 149h-384v739h501v-138h-352v-159h326v-138h-326v-166h352v-138h-1c-55 -25 -98 -74 -98 -114s35 -51 82 -30z" />
    <glyph glyph-name="eogonek" unicode="&#x119;" horiz-adv-x="626" 
d="M593 285c0 -19 -2 -40 -5 -62h-409c20 -77 73 -116 159 -116c59 0 129 23 176 55l56 -99c-37 -26 -77 -46 -122 -59c-55 -25 -97 -73 -97 -113s35 -51 82 -30l31 -90c-33 -20 -69 -30 -106 -30c-77 0 -123 48 -123 115c0 49 25 94 75 133c-60 3 -111 18 -154 46
c-85 57 -120 141 -120 238c0 83 26 151 79 205s121 81 205 81c79 0 145 -25 196 -74s77 -115 77 -200zM320 442c-71 0 -124 -43 -141 -114h277c-13 71 -64 114 -136 114z" />
    <glyph glyph-name="Ecaron" unicode="&#x11a;" horiz-adv-x="637" 
d="M286 794l-148 176h134l65 -86l65 86h138l-149 -176h-105zM583 0h-501v739h501v-138h-352v-159h326v-138h-326v-166h352v-138z" />
    <glyph glyph-name="ecaron" unicode="&#x11b;" horiz-adv-x="626" 
d="M524 801l-149 -176h-105l-148 176h134l65 -86l65 86h138zM593 285c0 -19 -2 -40 -5 -62h-409c20 -77 73 -116 159 -116c59 0 129 23 176 55l56 -99c-69 -50 -148 -75 -238 -75c-96 0 -169 28 -220 83s-76 123 -76 202c0 83 26 151 79 205s121 81 205 81
c79 0 145 -25 196 -74s77 -115 77 -200zM320 442c-71 0 -124 -43 -141 -114h277c-13 71 -64 114 -136 114z" />
    <glyph glyph-name="Gcircumflex" unicode="&#x11c;" horiz-adv-x="810" 
d="M363 797h-139l154 183h109l155 -183h-144l-67 89zM425 -11c-112 0 -204 36 -277 107c-72 72 -108 163 -108 273c0 111 37 203 112 275s168 108 279 108c120 0 231 -49 298 -120l-97 -106c-55 55 -122 83 -201 83c-69 0 -126 -23 -171 -68s-68 -102 -68 -171
c0 -67 22 -124 66 -170c45 -46 102 -69 171 -69c76 0 151 32 198 79v101h-204v129h339v-304c-94 -98 -206 -147 -337 -147z" />
    <glyph glyph-name="gcircumflex" unicode="&#x11d;" horiz-adv-x="675" 
d="M389 626l-65 86l-65 -86h-134l148 176h105l149 -176h-138zM481 485v60h130v-491c0 -87 -28 -157 -84 -208s-129 -77 -218 -77c-93 0 -177 26 -250 79l55 106c63 -43 127 -64 191 -64c108 0 170 63 170 151v28c-42 -47 -98 -70 -168 -70c-80 0 -145 26 -196 79
s-76 119 -76 200s27 148 80 201s119 80 198 80c67 0 123 -25 168 -74zM177 277c0 -45 14 -82 43 -111s65 -44 108 -44s79 15 108 44c29 30 43 67 43 111s-14 80 -43 109s-65 44 -108 44s-79 -15 -108 -44s-43 -65 -43 -109z" />
    <glyph glyph-name="Gbreve" unicode="&#x11e;" horiz-adv-x="810" 
d="M232 976h116c3 -53 31 -89 80 -89c48 0 76 36 79 89h118c-7 -117 -82 -188 -197 -188s-188 71 -196 188zM425 -11c-112 0 -204 36 -277 107c-72 72 -108 163 -108 273c0 111 37 203 112 275s168 108 279 108c120 0 231 -49 298 -120l-97 -106c-55 55 -122 83 -201 83
c-69 0 -126 -23 -171 -68s-68 -102 -68 -171c0 -67 22 -124 66 -170c45 -46 102 -69 171 -69c76 0 151 32 198 79v101h-204v129h339v-304c-94 -98 -206 -147 -337 -147z" />
    <glyph glyph-name="gbreve" unicode="&#x11f;" horiz-adv-x="675" 
d="M322 621c-109 0 -181 69 -188 181h111c3 -51 29 -86 77 -86s74 35 77 86h113c-7 -112 -79 -181 -190 -181zM481 485v60h130v-491c0 -87 -28 -157 -84 -208s-129 -77 -218 -77c-93 0 -177 26 -250 79l55 106c63 -43 127 -64 191 -64c108 0 170 63 170 151v28
c-42 -47 -98 -70 -168 -70c-80 0 -145 26 -196 79s-76 119 -76 200s27 148 80 201s119 80 198 80c67 0 123 -25 168 -74zM177 277c0 -45 14 -82 43 -111s65 -44 108 -44s79 15 108 44c29 30 43 67 43 111s-14 80 -43 109s-65 44 -108 44s-79 -15 -108 -44s-43 -65 -43 -109z
" />
    <glyph glyph-name="Gdotaccent" unicode="&#x120;" horiz-adv-x="810" 
d="M492 818c-33 -33 -91 -33 -124 0s-33 91 0 123c33 33 91 33 124 0c33 -32 33 -90 0 -123zM425 -11c-112 0 -204 36 -277 107c-72 72 -108 163 -108 273c0 111 37 203 112 275s168 108 279 108c120 0 231 -49 298 -120l-97 -106c-55 55 -122 83 -201 83
c-69 0 -126 -23 -171 -68s-68 -102 -68 -171c0 -67 22 -124 66 -170c45 -46 102 -69 171 -69c76 0 151 32 198 79v101h-204v129h339v-304c-94 -98 -206 -147 -337 -147z" />
    <glyph glyph-name="gdotaccent" unicode="&#x121;" horiz-adv-x="675" 
d="M387 635c-33 -33 -91 -33 -124 0s-33 91 0 123c33 33 91 33 124 0c33 -32 33 -90 0 -123zM481 485v60h130v-491c0 -87 -28 -157 -84 -208s-129 -77 -218 -77c-93 0 -177 26 -250 79l55 106c63 -43 127 -64 191 -64c108 0 170 63 170 151v28c-42 -47 -98 -70 -168 -70
c-80 0 -145 26 -196 79s-76 119 -76 200s27 148 80 201s119 80 198 80c67 0 123 -25 168 -74zM177 277c0 -45 14 -82 43 -111s65 -44 108 -44s79 15 108 44c29 30 43 67 43 111s-14 80 -43 109s-65 44 -108 44s-79 -15 -108 -44s-43 -65 -43 -109z" />
    <glyph glyph-name="Gcommaaccent" unicode="&#x122;" horiz-adv-x="810" 
d="M423 311v129h339v-304c-94 -98 -206 -147 -337 -147c-112 0 -204 36 -277 107c-72 72 -108 163 -108 273c0 111 37 203 112 275s168 108 279 108c120 0 231 -49 298 -120l-97 -106c-55 55 -122 83 -201 83c-69 0 -126 -23 -171 -68s-68 -102 -68 -171
c0 -67 22 -124 66 -170c45 -46 102 -69 171 -69c76 0 151 32 198 79v101h-204zM427 -40c49 0 88 -36 88 -91c0 -64 -48 -122 -147 -191l-49 61c37 27 64 50 81 68c-32 8 -57 39 -57 74c0 44 36 79 84 79z" />
    <glyph glyph-name="gcommaaccent" unicode="&#x123;" horiz-adv-x="675" 
d="M324 601c-48 0 -86 37 -86 89c0 63 47 118 144 187l48 -60c-40 -31 -66 -53 -78 -66c31 -8 54 -39 54 -72c0 -43 -35 -78 -82 -78zM481 485v60h130v-491c0 -87 -28 -157 -84 -208s-129 -77 -218 -77c-93 0 -177 26 -250 79l55 106c63 -43 127 -64 191 -64
c108 0 170 63 170 151v28c-42 -47 -98 -70 -168 -70c-80 0 -145 26 -196 79s-76 119 -76 200s27 148 80 201s119 80 198 80c67 0 123 -25 168 -74zM177 277c0 -45 14 -82 43 -111s65 -44 108 -44s79 15 108 44c29 30 43 67 43 111s-14 80 -43 109s-65 44 -108 44
s-79 -15 -108 -44s-43 -65 -43 -109z" />
    <glyph glyph-name="Hcircumflex" unicode="&#x124;" horiz-adv-x="770" 
d="M317 794h-139l154 183h109l155 -183h-144l-67 89zM230 0h-148v739h148v-295h310v295h148v-739h-148v301h-310v-301z" />
    <glyph glyph-name="hcircumflex" unicode="&#x125;" horiz-adv-x="644" 
d="M65 799h-139l154 183h109l155 -183h-144l-67 89zM206 0h-141v760h137v-286c29 49 95 86 172 86c59 0 109 -20 150 -59s62 -95 62 -168v-333h-141v295c0 87 -45 135 -114 135c-75 0 -125 -57 -125 -138v-292z" />
    <glyph glyph-name="Hbar" unicode="&#x126;" horiz-adv-x="802" 
d="M699 638h81v-102h-81v-536h-148v301h-310v-301h-148v536h-80v102h80v101h148v-101h310v101h148v-101zM241 444h310v92h-310v-92z" />
    <glyph glyph-name="hbar" unicode="&#x127;" horiz-adv-x="644" 
d="M374 560c59 0 109 -20 150 -59s62 -95 62 -168v-333h-141v295c0 87 -45 135 -114 135c-75 0 -125 -57 -125 -138v-292h-141v594h-65v88h65v78h137v-78h155v-88h-155v-120c29 49 95 86 172 86z" />
    <glyph glyph-name="Itilde" unicode="&#x128;" horiz-adv-x="313" 
d="M30 800l-92 45c33 79 82 118 147 118c23 0 49 -7 78 -22s48 -22 59 -22c23 0 44 16 61 48l91 -43c-28 -75 -78 -118 -138 -118c-21 0 -47 8 -77 23s-51 23 -64 23c-27 0 -48 -17 -65 -52zM84 0v739h149v-739h-149z" />
    <glyph glyph-name="itilde" unicode="&#x129;" horiz-adv-x="269" 
d="M14 621l-90 44c33 77 81 115 144 115c22 0 47 -7 75 -22c29 -14 48 -21 59 -21c23 0 42 16 59 47l89 -42c-27 -73 -76 -115 -135 -115c-21 0 -46 7 -75 22s-49 23 -62 23c-25 0 -47 -17 -64 -51zM207 545v-545h-141v545h141z" />
    <glyph glyph-name="Imacron" unicode="&#x12a;" horiz-adv-x="313" 
d="M342 819l-368 -2v124h368v-122zM84 0v739h149v-739h-149z" />
    <glyph glyph-name="imacron" unicode="&#x12b;" horiz-adv-x="269" 
d="M301 639l-327 -2v124h327v-122zM207 545v-545h-141v545h141z" />
    <glyph glyph-name="Ibreve" unicode="&#x12c;" horiz-adv-x="313" 
d="M-38 977h116c3 -53 31 -89 80 -89c48 0 76 36 79 89h118c-7 -117 -82 -188 -197 -188s-188 71 -196 188zM84 0v739h149v-739h-149z" />
    <glyph glyph-name="ibreve" unicode="&#x12d;" horiz-adv-x="269" 
d="M136 621c-109 0 -181 69 -188 181h111c3 -51 29 -86 77 -86s74 35 77 86h113c-7 -112 -79 -181 -190 -181zM207 545v-545h-141v545h141z" />
    <glyph glyph-name="Iogonek" unicode="&#x12e;" horiz-adv-x="313" 
d="M215 -144l31 -90c-33 -20 -69 -30 -106 -30c-77 0 -123 48 -123 115c0 57 33 107 98 149h-32v739h149v-739h-1c-55 -25 -98 -74 -98 -114s35 -51 82 -30z" />
    <glyph glyph-name="iogonek" unicode="&#x12f;" horiz-adv-x="269" 
d="M199 631c-33 -33 -91 -33 -124 0s-33 91 0 123c33 33 91 33 124 0c33 -32 33 -90 0 -123zM191 -144l31 -90c-33 -20 -69 -30 -106 -30c-77 0 -123 48 -123 115c0 57 33 107 98 149h-25v545h141v-545c-55 -25 -98 -74 -98 -114s35 -51 82 -30z" />
    <glyph glyph-name="Idot" unicode="&#x130;" horiz-adv-x="313" 
d="M218 817c-33 -33 -91 -33 -124 0s-33 91 0 123c33 33 91 33 124 0c33 -32 33 -90 0 -123zM82 0v739h149v-739h-149z" />
    <glyph glyph-name="dotlessi" unicode="&#x131;" horiz-adv-x="269" 
d="M205 545v-545h-141v545h141z" />
    <glyph glyph-name="IJ" unicode="&#x132;" horiz-adv-x="892" 
d="M82 0v739h149v-739h-149zM544 -12c-92 0 -168 30 -229 91l72 116c43 -43 92 -65 146 -65c85 0 140 57 140 152v457h148v-462c0 -96 -26 -168 -78 -217c-52 -48 -118 -72 -199 -72z" />
    <glyph glyph-name="ij" unicode="&#x133;" horiz-adv-x="575" 
d="M199 631c-33 -33 -91 -33 -124 0s-33 91 0 123c33 33 91 33 124 0c33 -32 33 -90 0 -123zM479 631c-33 -33 -91 -33 -124 0s-33 91 0 123c33 33 91 33 124 0c33 -32 33 -90 0 -123zM207 545v-545h-141v545h141zM279 -232c-54 0 -95 9 -124 28l26 112
c31 -11 56 -16 75 -16c61 0 91 36 91 107v546h141v-553c0 -148 -84 -224 -209 -224z" />
    <glyph glyph-name="Jcircumflex" unicode="&#x134;" horiz-adv-x="581" 
d="M366 794h-139l154 183h109l155 -183h-144l-67 89zM233 -12c-92 0 -168 30 -229 91l72 116c43 -43 92 -65 146 -65c85 0 140 57 140 152v457h148v-462c0 -96 -26 -168 -78 -217c-52 -48 -118 -72 -199 -72z" />
    <glyph glyph-name="jcircumflex" unicode="&#x135;" horiz-adv-x="293" 
d="M90 626h-134l148 176h105l149 -176h-138l-65 86zM20 -232c-54 0 -95 9 -124 28l26 112c31 -11 56 -16 75 -16c61 0 91 36 91 107v546h141v-553c0 -148 -84 -224 -209 -224z" />
    <glyph glyph-name="Kcommaaccent" unicode="&#x136;" 
d="M689 739l-271 -336l290 -403h-182l-205 293l-91 -109v-184h-148v739h148v-349l280 349h179zM370 -33c49 0 88 -36 88 -91c0 -64 -48 -122 -147 -191l-49 61c37 27 64 50 81 68c-32 8 -57 39 -57 74c0 44 36 79 84 79z" />
    <glyph glyph-name="kcommaaccent" unicode="&#x137;" horiz-adv-x="583" 
d="M581 545l-243 -223l257 -322h-173l-180 233l-37 -33v-200h-141v760h141v-401l198 186h178zM306 -16c48 0 86 -37 86 -89c0 -63 -47 -118 -144 -187l-48 60c40 31 66 53 78 66c-31 8 -54 39 -54 72c0 43 35 78 82 78z" />
    <glyph glyph-name="kgreenlandic" unicode="&#x138;" horiz-adv-x="573" 
d="M581 0h-167l-170 224l-43 -41v-183h-137v545h137v-201l204 201h170l-238 -230z" />
    <glyph glyph-name="Lacute" unicode="&#x139;" horiz-adv-x="620" 
d="M222 794h-130l65 183h163zM606 0h-524v739h149v-597h375v-142z" />
    <glyph glyph-name="lacute" unicode="&#x13a;" horiz-adv-x="266" 
d="M198 796h-130l65 183h163zM205 760v-760h-141v760h141z" />
    <glyph glyph-name="Lcommaaccent" unicode="&#x13b;" horiz-adv-x="620" 
d="M231 739v-597h375v-142h-524v739h149zM351 -34c49 0 88 -36 88 -91c0 -64 -48 -122 -147 -191l-49 61c37 27 64 50 81 68c-32 8 -57 39 -57 74c0 44 36 79 84 79z" />
    <glyph glyph-name="lcommaaccent" unicode="&#x13c;" horiz-adv-x="268" 
d="M66 760h141v-760h-141v760zM132 -41c48 0 86 -37 86 -89c0 -63 -47 -118 -144 -187l-48 60c40 31 66 53 78 66c-31 8 -54 39 -54 72c0 43 35 78 82 78z" />
    <glyph glyph-name="Lcaron" unicode="&#x13d;" horiz-adv-x="625" 
d="M510 624h-119l64 179h147zM606 0h-524v739h149v-597h375v-142z" />
    <glyph glyph-name="lcaron" unicode="&#x13e;" horiz-adv-x="296" 
d="M352 625h-119l64 179h147zM205 760v-760h-141v760h141z" />
    <glyph glyph-name="Ldot" unicode="&#x13f;" horiz-adv-x="622" 
d="M606 0h-524v739h149v-597h375v-142zM468 328c-47 0 -83 35 -83 82c0 45 36 80 83 80c44 0 80 -35 80 -80c0 -47 -36 -82 -80 -82z" />
    <glyph glyph-name="ldot" unicode="&#x140;" horiz-adv-x="412" 
d="M205 760v-760h-141v760h141zM342 284c-47 0 -83 35 -83 82c0 45 36 80 83 80c44 0 80 -35 80 -80c0 -47 -36 -82 -80 -82z" />
    <glyph glyph-name="Lslash" unicode="&#x141;" horiz-adv-x="633" 
d="M244 351v-209h375v-142h-524v257l-69 -43v133l69 44v348h149v-254l106 67v-134z" />
    <glyph glyph-name="lslash" unicode="&#x142;" horiz-adv-x="345" 
d="M243 505l69 50v-136l-69 -50v-369h-141v266l-63 -46v136l63 46v358h141v-255z" />
    <glyph glyph-name="Nacute" unicode="&#x143;" horiz-adv-x="794" 
d="M453 794h-130l65 183h163zM566 282v457h146v-739h-101l-383 453v-453h-146v739h94z" />
    <glyph glyph-name="nacute" unicode="&#x144;" horiz-adv-x="643" 
d="M382 626h-125l62 176h157zM205 0h-141v545h138v-76c29 53 94 91 171 91c59 0 110 -20 151 -59s62 -95 62 -168v-333h-141v295c0 87 -46 135 -115 135c-75 0 -125 -57 -125 -138v-292z" />
    <glyph glyph-name="Ncommaaccent" unicode="&#x145;" horiz-adv-x="794" 
d="M566 282v457h146v-739h-101l-383 453v-453h-146v739h94zM408 -23c49 0 88 -36 88 -91c0 -64 -48 -122 -147 -191l-49 61c37 27 64 50 81 68c-32 8 -57 39 -57 74c0 44 36 79 84 79z" />
    <glyph glyph-name="ncommaaccent" unicode="&#x146;" horiz-adv-x="643" 
d="M373 560c59 0 110 -20 151 -59s62 -95 62 -168v-333h-141v295c0 87 -46 135 -115 135c-75 0 -125 -57 -125 -138v-292h-141v545h138v-76c29 53 94 91 171 91zM329 -26c48 0 86 -37 86 -89c0 -63 -47 -118 -144 -187l-48 60c40 31 66 53 78 66c-31 8 -54 39 -54 72
c0 43 35 78 82 78z" />
    <glyph glyph-name="Ncaron" unicode="&#x147;" horiz-adv-x="794" 
d="M351 794l-148 176h134l65 -86l65 86h138l-149 -176h-105zM566 282v457h146v-739h-101l-383 453v-453h-146v739h94z" />
    <glyph glyph-name="ncaron" unicode="&#x148;" horiz-adv-x="643" 
d="M275 624l-148 176h134l65 -86l65 86h138l-149 -176h-105zM205 0h-141v545h138v-76c29 53 94 91 171 91c59 0 110 -20 151 -59s62 -95 62 -168v-333h-141v295c0 87 -46 135 -115 135c-75 0 -125 -57 -125 -138v-292z" />
    <glyph glyph-name="napostrophe" unicode="&#x149;" horiz-adv-x="699" 
d="M80 624h-119l64 179h147zM260 0h-141v545h138v-76c29 53 94 91 171 91c59 0 110 -20 151 -59s62 -95 62 -168v-333h-141v295c0 87 -46 135 -115 135c-75 0 -125 -57 -125 -138v-292z" />
    <glyph glyph-name="Eng" unicode="&#x14a;" horiz-adv-x="794" 
d="M566 274v465h146v-701c0 -95 -26 -167 -77 -216s-115 -73 -193 -73c-51 0 -101 12 -149 35l39 131c30 -17 64 -25 102 -25c77 0 133 49 133 140v16l-339 408v-454h-146v739h94z" />
    <glyph glyph-name="eng" unicode="&#x14b;" horiz-adv-x="643" 
d="M324 -228l2 125c79 -7 118 20 118 100v303c0 84 -44 130 -113 130c-75 0 -126 -57 -126 -138v-292h-141v545h137v-72c31 49 95 87 172 87c59 0 109 -20 150 -59s62 -96 62 -169v-337c0 -87 -24 -148 -73 -183c-48 -36 -111 -49 -188 -40z" />
    <glyph glyph-name="Omacron" unicode="&#x14c;" horiz-adv-x="848" 
d="M608 810l-368 -2v124h368v-122zM423 -12c-109 0 -201 36 -274 109s-110 163 -110 270s37 198 111 273c75 75 166 112 274 112s199 -37 273 -112c75 -75 112 -165 112 -271s-37 -196 -112 -270c-74 -74 -165 -111 -274 -111zM655 369c0 68 -22 124 -67 169s-99 68 -164 68
s-119 -23 -164 -68s-67 -102 -67 -169s22 -123 66 -168c45 -45 100 -67 165 -67s120 22 165 67s67 101 66 168z" />
    <glyph glyph-name="omacron" unicode="&#x14d;" horiz-adv-x="654" 
d="M491 637l-327 -2v124h327v-122zM35 273c0 80 27 148 82 203c55 56 125 84 210 84s155 -28 210 -84c55 -55 82 -123 82 -203c0 -81 -27 -149 -82 -204s-125 -83 -210 -83s-155 28 -210 83s-82 123 -82 204zM219 162c29 -30 65 -45 108 -45s78 15 107 45
c29 31 44 68 44 111s-15 80 -44 110s-64 45 -107 45s-79 -15 -108 -45s-43 -67 -43 -110s14 -80 43 -111z" />
    <glyph glyph-name="Obreve" unicode="&#x14e;" horiz-adv-x="848" 
d="M233 973h116c3 -53 31 -89 80 -89c48 0 76 36 79 89h118c-7 -117 -82 -188 -197 -188s-188 71 -196 188zM423 -12c-109 0 -201 36 -274 109s-110 163 -110 270s37 198 111 273c75 75 166 112 274 112s199 -37 273 -112c75 -75 112 -165 112 -271s-37 -196 -112 -270
c-74 -74 -165 -111 -274 -111zM655 369c0 68 -22 124 -67 169s-99 68 -164 68s-119 -23 -164 -68s-67 -102 -67 -169s22 -123 66 -168c45 -45 100 -67 165 -67s120 22 165 67s67 101 66 168z" />
    <glyph glyph-name="obreve" unicode="&#x14f;" horiz-adv-x="654" 
d="M326 621c-109 0 -181 69 -188 181h111c3 -51 29 -86 77 -86s74 35 77 86h113c-7 -112 -79 -181 -190 -181zM35 273c0 80 27 148 82 203c55 56 125 84 210 84s155 -28 210 -84c55 -55 82 -123 82 -203c0 -81 -27 -149 -82 -204s-125 -83 -210 -83s-155 28 -210 83
s-82 123 -82 204zM219 162c29 -30 65 -45 108 -45s78 15 107 45c29 31 44 68 44 111s-15 80 -44 110s-64 45 -107 45s-79 -15 -108 -45s-43 -67 -43 -110s14 -80 43 -111z" />
    <glyph glyph-name="Ohungarumlaut" unicode="&#x150;" horiz-adv-x="848" 
d="M382 795h-121l45 183h156zM591 795h-123l59 183h162zM423 -12c-109 0 -201 36 -274 109s-110 163 -110 270s37 198 111 273c75 75 166 112 274 112s199 -37 273 -112c75 -75 112 -165 112 -271s-37 -196 -112 -270c-74 -74 -165 -111 -274 -111zM655 369
c0 68 -22 124 -67 169s-99 68 -164 68s-119 -23 -164 -68s-67 -102 -67 -169s22 -123 66 -168c45 -45 100 -67 165 -67s120 22 165 67s67 101 66 168z" />
    <glyph glyph-name="ohungarumlaut" unicode="&#x151;" horiz-adv-x="654" 
d="M288 626h-117l43 176h151zM489 626h-119l57 176h156zM35 273c0 80 27 148 82 203c55 56 125 84 210 84s155 -28 210 -84c55 -55 82 -123 82 -203c0 -81 -27 -149 -82 -204s-125 -83 -210 -83s-155 28 -210 83s-82 123 -82 204zM219 162c29 -30 65 -45 108 -45
s78 15 107 45c29 31 44 68 44 111s-15 80 -44 110s-64 45 -107 45s-79 -15 -108 -45s-43 -67 -43 -110s14 -80 43 -111z" />
    <glyph glyph-name="OE" unicode="&#x152;" horiz-adv-x="1027" 
d="M973 739v-138h-352v-159h326v-138h-326v-166h352v-138h-495c-27 -1 -46 -2 -57 -2c-125 0 -220 34 -283 101c-63 68 -95 158 -95 269c0 112 31 202 93 270c63 69 156 103 279 103c13 0 32 -1 57 -2h501zM471 142v455c-17 2 -33 3 -48 3c-78 0 -135 -22 -172 -67
c-36 -44 -54 -98 -54 -163s18 -120 54 -165c37 -44 94 -66 172 -66c15 0 31 1 48 3z" />
    <glyph glyph-name="oe" unicode="&#x153;" horiz-adv-x="1066" 
d="M1033 285c0 -19 -2 -40 -5 -62h-409c20 -77 73 -116 159 -116c59 0 129 23 176 55l56 -99c-69 -50 -148 -75 -238 -75c-99 0 -176 31 -229 93c-55 -63 -128 -94 -219 -94c-85 0 -154 28 -208 83s-81 123 -81 203c0 79 27 147 81 202s123 83 208 83c91 0 164 -31 219 -93
c54 63 126 94 217 94c79 0 145 -25 196 -74s77 -115 77 -200zM760 442c-71 0 -124 -43 -141 -114h277c-13 71 -64 114 -136 114zM475 274c0 43 -15 79 -44 109s-65 45 -107 45s-78 -15 -107 -45s-43 -66 -43 -109s14 -80 43 -111c29 -30 64 -45 107 -45s78 15 107 45
c29 31 44 68 44 111z" />
    <glyph glyph-name="Racute" unicode="&#x154;" horiz-adv-x="675" 
d="M300 977h163l-98 -183h-130zM647 0h-173l-156 269h-88v-269h-148v739h283c82 0 145 -23 188 -68s65 -100 65 -166c0 -96 -50 -181 -150 -217zM364 602h-134v-200h121c77 0 115 44 115 101c0 56 -38 99 -102 99z" />
    <glyph glyph-name="racute" unicode="&#x155;" horiz-adv-x="432" 
d="M294 626h-125l62 176h157zM205 0h-141v545h135v-73c33 59 83 88 150 88c22 0 44 -4 66 -12l-12 -135c-23 7 -45 11 -65 11c-80 0 -133 -52 -133 -165v-259z" />
    <glyph glyph-name="Rcommaaccent" unicode="&#x156;" horiz-adv-x="675" 
d="M468 288l179 -288h-173l-156 269h-88v-269h-148v739h283c82 0 145 -23 188 -68s65 -100 65 -166c0 -96 -50 -181 -150 -217zM364 602h-134v-200h121c77 0 115 44 115 101c0 56 -38 99 -102 99zM346 -26c49 0 88 -36 88 -91c0 -64 -48 -122 -147 -191l-49 61
c37 27 64 50 81 68c-32 8 -57 39 -57 74c0 44 36 79 84 79z" />
    <glyph glyph-name="rcommaaccent" unicode="&#x157;" horiz-adv-x="433" 
d="M350 560c22 0 44 -4 66 -12l-12 -135c-23 7 -45 11 -65 11c-80 0 -133 -52 -133 -165v-259h-141v545h135v-73c33 59 83 88 150 88zM133 -35c48 0 86 -37 86 -89c0 -63 -47 -118 -144 -187l-48 60c40 31 66 53 78 66c-31 8 -54 39 -54 72c0 43 35 78 82 78z" />
    <glyph glyph-name="Rcaron" unicode="&#x158;" horiz-adv-x="675" 
d="M523 970l-149 -176h-105l-148 176h134l65 -86l65 86h138zM647 0h-173l-156 269h-88v-269h-148v739h283c82 0 145 -23 188 -68s65 -100 65 -166c0 -96 -50 -181 -150 -217zM364 602h-134v-200h121c77 0 115 44 115 101c0 56 -38 99 -102 99z" />
    <glyph glyph-name="rcaron" unicode="&#x159;" horiz-adv-x="432" 
d="M190 625l-148 176h134l65 -86l65 86h138l-149 -176h-105zM206 0h-141v545h135v-73c33 59 83 88 150 88c22 0 44 -4 66 -12l-12 -135c-23 7 -45 11 -65 11c-80 0 -133 -52 -133 -165v-259z" />
    <glyph glyph-name="Sacute" unicode="&#x15a;" horiz-adv-x="598" 
d="M362 793h-130l65 183h163zM299 -12c-115 0 -219 49 -280 138l85 103c48 -67 120 -103 196 -103c61 0 106 32 106 79c0 30 -22 56 -67 77c-10 5 -34 14 -73 29c-38 15 -67 29 -87 40c-78 45 -117 106 -117 184c0 62 23 113 70 154s108 62 182 62c96 0 177 -33 243 -100
l-79 -108c-41 44 -107 69 -162 69c-59 0 -95 -28 -95 -71c0 -29 20 -53 60 -73l73 -32c41 -17 71 -30 90 -39c84 -41 126 -102 126 -184c0 -66 -25 -120 -75 -162s-115 -63 -196 -63z" />
    <glyph glyph-name="sacute" unicode="&#x15b;" horiz-adv-x="490" 
d="M311 626h-125l62 176h157zM246 -14c-95 0 -170 35 -225 105l75 89c39 -47 96 -76 151 -76c43 0 75 22 75 53c0 19 -13 35 -39 47c-9 4 -30 12 -65 25s-58 23 -70 29c-63 30 -94 77 -94 141c0 48 19 87 56 118s87 46 148 46c77 0 141 -26 191 -78l-70 -91
c-38 36 -80 54 -125 54c-37 0 -62 -21 -62 -46c0 -23 16 -39 48 -50c72 -27 116 -45 131 -53c61 -32 92 -78 92 -138c0 -51 -20 -93 -60 -126c-39 -33 -92 -49 -157 -49z" />
    <glyph glyph-name="Scircumflex" unicode="&#x15c;" horiz-adv-x="598" 
d="M247 793h-139l154 183h109l155 -183h-144l-67 89zM299 -12c-115 0 -219 49 -280 138l85 103c48 -67 120 -103 196 -103c61 0 106 32 106 79c0 30 -22 56 -67 77c-10 5 -34 14 -73 29c-38 15 -67 29 -87 40c-78 45 -117 106 -117 184c0 62 23 113 70 154s108 62 182 62
c96 0 177 -33 243 -100l-79 -108c-41 44 -107 69 -162 69c-59 0 -95 -28 -95 -71c0 -29 20 -53 60 -73l73 -32c41 -17 71 -30 90 -39c84 -41 126 -102 126 -184c0 -66 -25 -120 -75 -162s-115 -63 -196 -63z" />
    <glyph glyph-name="scircumflex" unicode="&#x15d;" horiz-adv-x="488" 
d="M185 627h-134l148 176h105l149 -176h-138l-65 86zM246 -14c-95 0 -170 35 -225 105l75 89c39 -47 96 -76 151 -76c43 0 75 22 75 53c0 19 -13 35 -39 47c-9 4 -30 12 -65 25s-58 23 -70 29c-63 30 -94 77 -94 141c0 48 19 87 56 118s87 46 148 46c77 0 141 -26 191 -78
l-70 -91c-38 36 -80 54 -125 54c-37 0 -62 -21 -62 -46c0 -23 16 -39 48 -50c72 -27 116 -45 131 -53c61 -32 92 -78 92 -138c0 -51 -20 -93 -60 -126c-39 -33 -92 -49 -157 -49z" />
    <glyph glyph-name="Scedilla" unicode="&#x15e;" horiz-adv-x="598" 
d="M570 213c0 -59 -21 -109 -62 -150s-96 -65 -165 -73l-16 -38c60 -3 108 -40 108 -100c0 -64 -54 -120 -146 -120c-39 0 -81 10 -124 31l31 81c28 -14 55 -21 81 -21c35 0 52 17 52 38c0 23 -19 34 -56 34h-54l-8 27l28 71c-95 14 -168 58 -220 133l85 103
c48 -67 120 -103 196 -103c61 0 106 32 106 79c0 30 -22 56 -67 77c-10 5 -34 14 -73 29c-38 15 -67 29 -87 40c-78 45 -117 106 -117 184c0 62 23 113 70 154s108 62 182 62c96 0 177 -33 243 -100l-79 -108c-41 44 -107 69 -162 69c-59 0 -95 -28 -95 -71
c0 -29 20 -53 60 -73l73 -32c41 -17 71 -30 90 -39c84 -41 126 -102 126 -184z" />
    <glyph glyph-name="scedilla" unicode="&#x15f;" horiz-adv-x="490" 
d="M463 161c0 -92 -74 -163 -187 -174l-14 -34c60 -3 108 -40 108 -100c0 -64 -54 -120 -146 -120c-39 0 -81 10 -124 31l31 81c28 -14 55 -21 81 -21c35 0 52 17 52 38c0 23 -19 34 -56 34h-54l-8 27l28 71c-62 15 -113 47 -153 97l75 89c39 -47 96 -76 151 -76
c43 0 75 22 75 53c0 19 -13 35 -39 47c-9 4 -30 12 -65 25s-58 23 -70 29c-63 30 -94 77 -94 141c0 48 19 87 56 118s87 46 148 46c77 0 141 -26 191 -78l-70 -91c-38 36 -80 54 -125 54c-37 0 -62 -21 -62 -46c0 -23 16 -39 48 -50c72 -27 116 -45 131 -53
c61 -32 92 -78 92 -138z" />
    <glyph glyph-name="Scaron" unicode="&#x160;" horiz-adv-x="598" 
d="M267 793l-148 176h134l65 -86l65 86h138l-149 -176h-105zM299 -12c-115 0 -219 49 -280 138l85 103c48 -67 120 -103 196 -103c61 0 106 32 106 79c0 30 -22 56 -67 77c-10 5 -34 14 -73 29c-38 15 -67 29 -87 40c-78 45 -117 106 -117 184c0 62 23 113 70 154
s108 62 182 62c96 0 177 -33 243 -100l-79 -108c-41 44 -107 69 -162 69c-59 0 -95 -28 -95 -71c0 -29 20 -53 60 -73l73 -32c41 -17 71 -30 90 -39c84 -41 126 -102 126 -184c0 -66 -25 -120 -75 -162s-115 -63 -196 -63z" />
    <glyph glyph-name="scaron" unicode="&#x161;" horiz-adv-x="488" 
d="M200 625l-148 176h134l65 -86l65 86h138l-149 -176h-105zM246 -14c-95 0 -170 35 -225 105l75 89c39 -47 96 -76 151 -76c43 0 75 22 75 53c0 19 -13 35 -39 47c-9 4 -30 12 -65 25s-58 23 -70 29c-63 30 -94 77 -94 141c0 48 19 87 56 118s87 46 148 46
c77 0 141 -26 191 -78l-70 -91c-38 36 -80 54 -125 54c-37 0 -62 -21 -62 -46c0 -23 16 -39 48 -50c72 -27 116 -45 131 -53c61 -32 92 -78 92 -138c0 -51 -20 -93 -60 -126c-39 -33 -92 -49 -157 -49z" />
    <glyph glyph-name="Tcaron" unicode="&#x164;" horiz-adv-x="600" 
d="M249 794l-148 176h134l65 -86l65 86h138l-149 -176h-105zM225 0v596h-211v143h572v-143h-211v-596h-150z" />
    <glyph glyph-name="tcaron" unicode="&#x165;" horiz-adv-x="457" 
d="M402 803h147l-92 -179h-119zM325 115c27 0 58 9 91 28l42 -111c-45 -30 -98 -45 -161 -45c-125 0 -190 74 -190 215v225h-89v118h90v193h140v-193h180v-118h-180v-216c0 -64 26 -96 77 -96z" />
    <glyph glyph-name="Tbar" unicode="&#x166;" horiz-adv-x="619" 
d="M596 739v-143h-211v-159h136v-120h-136v-317h-150v317h-135v120h135v159h-211v143h572z" />
    <glyph glyph-name="tbar" unicode="&#x167;" horiz-adv-x="467" 
d="M421 143l42 -111c-45 -30 -98 -45 -161 -45c-125 0 -190 74 -190 215v49h-88v96h88v80h-89v118h90v193h140v-193h180v-118h-180v-80h174v-96h-174v-40c0 -64 26 -96 77 -96c27 0 58 9 91 28z" />
    <glyph glyph-name="Utilde" unicode="&#x168;" horiz-adv-x="725" 
d="M239 791l-92 45c33 79 82 118 147 118c23 0 49 -7 78 -22s48 -22 59 -22c23 0 44 16 61 48l91 -43c-28 -75 -78 -118 -138 -118c-21 0 -47 8 -77 23s-51 23 -64 23c-27 0 -48 -17 -65 -52zM74 270v469h149v-459c0 -99 53 -149 140 -149c84 0 138 53 138 149v459h150v-469
c0 -93 -27 -163 -82 -211c-54 -48 -123 -72 -206 -72s-152 24 -207 72s-82 118 -82 211z" />
    <glyph glyph-name="utilde" unicode="&#x169;" horiz-adv-x="614" 
d="M183 621l-90 44c33 77 81 115 144 115c22 0 47 -7 75 -22c29 -14 48 -21 59 -21c23 0 42 16 59 47l89 -42c-27 -73 -76 -115 -135 -115c-21 0 -46 7 -75 22s-49 23 -62 23c-26 0 -47 -17 -64 -51zM307 -13c-155 0 -250 90 -250 243v315h141v-315c0 -69 41 -114 109 -114
s109 45 109 114v315h141v-315c0 -153 -94 -243 -250 -243z" />
    <glyph glyph-name="Umacron" unicode="&#x16a;" horiz-adv-x="725" 
d="M547 812l-368 -2v124h368v-122zM74 270v469h149v-459c0 -99 53 -149 140 -149c84 0 138 53 138 149v459h150v-469c0 -93 -27 -163 -82 -211c-54 -48 -123 -72 -206 -72s-152 24 -207 72s-82 118 -82 211z" />
    <glyph glyph-name="umacron" unicode="&#x16b;" horiz-adv-x="614" 
d="M470 638l-327 -2v124h327v-122zM307 -13c-155 0 -250 90 -250 243v315h141v-315c0 -69 41 -114 109 -114s109 45 109 114v315h141v-315c0 -153 -94 -243 -250 -243z" />
    <glyph glyph-name="Ubreve" unicode="&#x16c;" horiz-adv-x="725" 
d="M167 973h116c3 -53 31 -89 80 -89c48 0 76 36 79 89h118c-7 -117 -82 -188 -197 -188s-188 71 -196 188zM74 270v469h149v-459c0 -99 53 -149 140 -149c84 0 138 53 138 149v459h150v-469c0 -93 -27 -163 -82 -211c-54 -48 -123 -72 -206 -72s-152 24 -207 72
s-82 118 -82 211z" />
    <glyph glyph-name="ubreve" unicode="&#x16d;" horiz-adv-x="614" 
d="M307 619c-109 0 -181 69 -188 181h111c3 -51 29 -86 77 -86s74 35 77 86h113c-7 -112 -79 -181 -190 -181zM307 -13c-155 0 -250 90 -250 243v315h141v-315c0 -69 41 -114 109 -114s109 45 109 114v315h141v-315c0 -153 -94 -243 -250 -243z" />
    <glyph glyph-name="Uring" unicode="&#x16e;" horiz-adv-x="725" 
d="M224 911c0 37 13 69 40 95s59 39 98 39s71 -13 97 -39c27 -26 40 -58 40 -95s-13 -69 -40 -94c-26 -25 -58 -38 -97 -38s-71 13 -98 38c-27 26 -40 57 -40 94zM362 858c29 0 53 24 53 55c0 29 -24 53 -53 53c-31 0 -55 -24 -55 -53c0 -31 24 -55 55 -55zM74 270v469h149
v-459c0 -99 53 -149 140 -149c84 0 138 53 138 149v459h150v-469c0 -93 -27 -163 -82 -211c-54 -48 -123 -72 -206 -72s-152 24 -207 72s-82 118 -82 211z" />
    <glyph glyph-name="uring" unicode="&#x16f;" horiz-adv-x="614" 
d="M307 598c-37 0 -69 12 -95 37c-25 25 -38 55 -38 90c0 36 13 66 38 91c26 25 58 38 95 38s68 -13 93 -38c26 -25 39 -55 39 -91c0 -35 -13 -65 -39 -90c-25 -25 -56 -37 -93 -37zM307 674c28 0 51 24 51 53s-23 51 -51 51c-29 0 -53 -22 -53 -51s24 -53 53 -53zM307 -13
c-155 0 -250 90 -250 243v315h141v-315c0 -69 41 -114 109 -114s109 45 109 114v315h141v-315c0 -153 -94 -243 -250 -243z" />
    <glyph glyph-name="Uhungarumlaut" unicode="&#x170;" horiz-adv-x="726" 
d="M316 795h-121l45 183h156zM525 795h-123l59 183h162zM74 270v469h149v-459c0 -99 53 -149 140 -149c84 0 138 53 138 149v459h150v-469c0 -93 -27 -163 -82 -211c-54 -48 -123 -72 -206 -72s-152 24 -207 72s-82 118 -82 211z" />
    <glyph glyph-name="uhungarumlaut" unicode="&#x171;" horiz-adv-x="610" 
d="M258 626h-117l43 176h151zM459 626h-119l57 176h156zM307 -13c-155 0 -250 90 -250 243v315h141v-315c0 -69 41 -114 109 -114s109 45 109 114v315h141v-315c0 -153 -94 -243 -250 -243z" />
    <glyph glyph-name="Uogonek" unicode="&#x172;" horiz-adv-x="725" 
d="M501 280v459h150v-469c0 -141 -71 -232 -180 -267c-52 -27 -92 -72 -92 -111c0 -40 35 -51 82 -30l31 -90c-33 -20 -69 -30 -106 -30c-77 0 -123 48 -123 115c0 49 24 93 73 131c-77 5 -140 32 -189 79c-49 48 -73 116 -73 203v469h149v-459c0 -99 53 -149 140 -149
c84 0 138 53 138 149z" />
    <glyph glyph-name="uogonek" unicode="&#x173;" horiz-adv-x="614" 
d="M416 230v315h141v-315c0 -119 -55 -198 -154 -229c-55 -27 -97 -74 -97 -114s35 -51 82 -30l31 -90c-33 -20 -69 -30 -106 -30c-77 0 -123 48 -123 115c0 51 27 96 80 137c-132 13 -213 101 -213 241v315h141v-315c0 -69 41 -114 109 -114s109 45 109 114z" />
    <glyph glyph-name="Wcircumflex" unicode="&#x174;" horiz-adv-x="1065" 
d="M464 794h-139l154 183h109l155 -183h-144l-67 89zM376 0h-125l-245 739h162l149 -497l168 497h94l171 -497l147 497h162l-244 -739h-125l-157 484z" />
    <glyph glyph-name="wcircumflex" unicode="&#x175;" horiz-adv-x="877" 
d="M373 625h-134l148 176h105l149 -176h-138l-65 86zM317 1h-123l-186 544h148l109 -357l123 357h99l127 -357l106 357h148l-184 -544h-123l-123 341z" />
    <glyph glyph-name="Ycircumflex" unicode="&#x176;" horiz-adv-x="679" 
d="M270 794h-139l154 183h109l155 -183h-144l-67 89zM498 739h171l-256 -483v-256h-148v256l-253 483h171l156 -324z" />
    <glyph glyph-name="ycircumflex" unicode="&#x177;" horiz-adv-x="599" 
d="M371 625l-65 86l-65 -86h-134l148 176h105l149 -176h-138zM312 190l124 355h154l-219 -572c-53 -139 -123 -205 -231 -205c-41 0 -76 9 -105 27l24 118c25 -12 49 -18 70 -18c44 0 79 29 106 86l11 25l-238 539h163z" />
    <glyph glyph-name="Ydieresis" unicode="&#x178;" horiz-adv-x="679" 
d="M149 880c0 45 36 81 83 81s83 -36 83 -81c0 -48 -36 -84 -83 -84s-83 36 -83 84zM446 796c-48 0 -83 36 -83 84c0 45 36 81 83 81c45 0 82 -36 82 -81c0 -48 -37 -84 -82 -84zM498 739h171l-256 -483v-256h-148v256l-253 483h171l156 -324z" />
    <glyph glyph-name="Zacute" unicode="&#x179;" horiz-adv-x="651" 
d="M390 795h-130l65 183h163zM614 0h-579v106l366 496h-352v137h554v-110l-359 -492h370v-137z" />
    <glyph glyph-name="zacute" unicode="&#x17a;" horiz-adv-x="538" 
d="M324 626h-125l62 176h157zM494 449l-268 -332h278v-117h-472v96l273 331h-259v117h448v-95z" />
    <glyph glyph-name="Zdotaccent" unicode="&#x17b;" horiz-adv-x="651" 
d="M393 820c-33 -33 -91 -33 -124 0s-33 91 0 123c33 33 91 33 124 0c33 -32 33 -90 0 -123zM614 0h-579v106l366 496h-352v137h554v-110l-359 -492h370v-137z" />
    <glyph glyph-name="zdotaccent" unicode="&#x17c;" horiz-adv-x="538" 
d="M338 633c-33 -33 -91 -33 -124 0s-33 91 0 123c33 33 91 33 124 0c33 -32 33 -90 0 -123zM494 449l-268 -332h278v-117h-472v96l273 331h-259v117h448v-95z" />
    <glyph glyph-name="Zcaron" unicode="&#x17d;" horiz-adv-x="651" 
d="M281 795l-148 176h134l65 -86l65 86h138l-149 -176h-105zM614 0h-579v106l366 496h-352v137h554v-110l-359 -492h370v-137z" />
    <glyph glyph-name="zcaron" unicode="&#x17e;" horiz-adv-x="538" 
d="M216 626l-148 176h134l65 -86l65 86h138l-149 -176h-105zM494 449l-268 -332h278v-117h-472v96l273 331h-259v117h448v-95z" />
    <glyph glyph-name="Scommaaccent" unicode="&#x218;" horiz-adv-x="598" 
d="M444 397c84 -41 126 -102 126 -184c0 -66 -25 -120 -75 -162s-115 -63 -196 -63c-115 0 -219 49 -280 138l85 103c48 -67 120 -103 196 -103c61 0 106 32 106 79c0 30 -22 56 -67 77c-10 5 -34 14 -73 29c-38 15 -67 29 -87 40c-78 45 -117 106 -117 184
c0 62 23 113 70 154s108 62 182 62c96 0 177 -33 243 -100l-79 -108c-41 44 -107 69 -162 69c-59 0 -95 -28 -95 -71c0 -29 20 -53 60 -73l73 -32c41 -17 71 -30 90 -39zM296 -43c49 0 88 -36 88 -91c0 -64 -48 -122 -147 -191l-49 61c37 27 64 50 81 68
c-32 8 -57 39 -57 74c0 44 36 79 84 79z" />
    <glyph glyph-name="scommaaccent" unicode="&#x219;" horiz-adv-x="490" 
d="M371 299c61 -32 92 -78 92 -138c0 -51 -20 -93 -60 -126c-39 -33 -92 -49 -157 -49c-95 0 -170 35 -225 105l75 89c39 -47 96 -76 151 -76c43 0 75 22 75 53c0 19 -13 35 -39 47c-9 4 -30 12 -65 25s-58 23 -70 29c-63 30 -94 77 -94 141c0 48 19 87 56 118s87 46 148 46
c77 0 141 -26 191 -78l-70 -91c-38 36 -80 54 -125 54c-37 0 -62 -21 -62 -46c0 -23 16 -39 48 -50c72 -27 116 -45 131 -53zM245 -48c48 0 86 -37 86 -89c0 -63 -47 -118 -144 -187l-48 60c40 31 66 53 78 66c-31 8 -54 39 -54 72c0 43 35 78 82 78z" />
    <glyph glyph-name="uni021A" unicode="&#x21a;" horiz-adv-x="600" 
d="M14 596v143h572v-143h-211v-596h-150v596h-211zM297 -29c49 0 88 -36 88 -91c0 -64 -48 -122 -147 -191l-49 61c37 27 64 50 81 68c-32 8 -57 39 -57 74c0 44 36 79 84 79z" />
    <glyph glyph-name="uni021B" unicode="&#x21b;" horiz-adv-x="461" 
d="M416 143l42 -111c-45 -30 -98 -45 -161 -45c-125 0 -190 74 -190 215v225h-89v118h90v193h140v-193h180v-118h-180v-216c0 -64 26 -96 77 -96c27 0 58 9 91 28zM279 -49c48 0 86 -37 86 -89c0 -63 -47 -118 -144 -187l-48 60c40 31 66 53 78 66c-31 8 -54 39 -54 72
c0 43 35 78 82 78z" />
    <glyph glyph-name="uni0237" unicode="&#x237;" horiz-adv-x="293" 
d="M20 -232c-54 0 -95 9 -124 28l26 112c31 -11 56 -16 75 -16c61 0 91 36 91 107v546h141v-553c0 -148 -84 -224 -209 -224z" />
    <glyph glyph-name="circumflex" unicode="&#x2c6;" horiz-adv-x="561" 
d="M173 621h-134l148 176h105l149 -176h-138l-65 86z" />
    <glyph glyph-name="caron" unicode="&#x2c7;" horiz-adv-x="548" 
d="M187 623l-148 176h134l65 -86l65 86h138l-149 -176h-105z" />
    <glyph glyph-name="breve" unicode="&#x2d8;" horiz-adv-x="467" 
d="M228 616c-109 0 -181 69 -188 181h111c3 -51 29 -86 77 -86s74 35 77 86h113c-7 -112 -79 -181 -190 -181z" />
    <glyph glyph-name="dotaccent" unicode="&#x2d9;" horiz-adv-x="300" 
d="M189 625c-33 -33 -91 -33 -124 0s-33 91 0 123c33 33 91 33 124 0c33 -32 33 -90 0 -123z" />
    <glyph glyph-name="ring" unicode="&#x2da;" horiz-adv-x="382" 
d="M173 595c-37 0 -69 12 -95 37c-25 25 -38 55 -38 90c0 36 13 66 38 91c26 25 58 38 95 38s68 -13 93 -38c26 -25 39 -55 39 -91c0 -35 -13 -65 -39 -90c-25 -25 -56 -37 -93 -37zM173 671c28 0 51 24 51 53s-23 51 -51 51c-29 0 -53 -22 -53 -51s24 -53 53 -53z" />
    <glyph glyph-name="ogonek" unicode="&#x2db;" horiz-adv-x="360" 
d="M238 -144l31 -90c-33 -20 -69 -30 -106 -30c-77 0 -123 48 -123 115s43 122 129 167l85 -18c-55 -25 -98 -74 -98 -114s35 -51 82 -30z" />
    <glyph glyph-name="tilde" unicode="&#x2dc;" horiz-adv-x="553" 
d="M130 629l-90 44c33 77 81 115 144 115c22 0 47 -7 75 -22c29 -14 48 -21 59 -21c23 0 42 16 59 47l89 -42c-27 -73 -76 -115 -135 -115c-21 0 -46 7 -75 22s-49 23 -62 23c-25 0 -47 -17 -64 -51z" />
    <glyph glyph-name="hungarumlaut" unicode="&#x2dd;" horiz-adv-x="544" 
d="M162 620h-117l43 176h151zM363 620h-119l57 176h156z" />
    <glyph glyph-name="uni0394" unicode="&#x394;" horiz-adv-x="753" 
d="M734 0h-714v102l309 637h96l309 -637v-102zM376 551l-186 -411h374z" />
    <glyph glyph-name="uni03A9" unicode="&#x3a9;" horiz-adv-x="863" 
d="M387 0h-337v130h147c-81 51 -138 151 -138 268c0 99 36 183 108 251c72 69 160 103 265 103s193 -34 264 -103c72 -68 108 -152 108 -251c0 -117 -57 -217 -138 -268h147v-130h-337v133c105 39 173 133 173 244c0 65 -21 119 -63 160c-41 42 -93 63 -154 63
c-62 0 -114 -21 -156 -63c-42 -41 -63 -95 -63 -160c0 -112 69 -205 174 -244v-133z" />
    <glyph glyph-name="uni03BC" unicode="&#x3bc;" horiz-adv-x="653" 
d="M448 274v261h141v-535h-135v78c-29 -59 -76 -89 -141 -89c-49 0 -87 19 -112 58v-265h-137v753h141v-284c0 -87 42 -133 114 -133c76 0 129 56 129 156z" />
    <glyph glyph-name="pi" unicode="&#x3c0;" horiz-adv-x="634" 
d="M247 0h-142v411h-75v124h574v-124h-75v-411h-143v411h-139v-411z" />
    <glyph glyph-name="uni0401" unicode="&#x401;" horiz-adv-x="637" 
d="M144 880c0 45 36 81 83 81s83 -36 83 -81c0 -48 -36 -84 -83 -84s-83 36 -83 84zM441 796c-47 0 -83 36 -83 84c0 45 36 81 83 81c45 0 82 -36 82 -81c0 -48 -37 -84 -82 -84zM583 0h-501v739h501v-138h-352v-159h326v-138h-326v-166h352v-138z" />
    <glyph glyph-name="uni0410" unicode="&#x410;" 
d="M688 0h-156l-55 160h-258l-57 -160h-155l282 739h121zM435 292l-86 246l-88 -246h174z" />
    <glyph glyph-name="uni0411" unicode="&#x411;" horiz-adv-x="666" 
d="M228 466h143c215 0 264 -143 264 -237c0 -65 -22 -119 -67 -163s-106 -66 -185 -66h-301v739h482v-129h-336v-144zM228 130h130c83 0 124 44 124 103c0 57 -38 103 -118 103h-136v-206z" />
    <glyph glyph-name="uni0412" unicode="&#x412;" horiz-adv-x="692" 
d="M513 405c91 -23 140 -99 140 -190c0 -61 -21 -112 -64 -153c-42 -41 -99 -62 -170 -62h-337v739h322c66 0 117 -18 154 -55s56 -80 56 -129c0 -65 -41 -129 -101 -150zM379 610h-151v-161h145c61 0 94 39 94 83c0 43 -33 78 -88 78zM228 130h162c71 0 110 45 110 97
c0 53 -38 98 -110 98h-162v-195z" />
    <glyph glyph-name="uni0413" unicode="&#x413;" horiz-adv-x="555" 
d="M228 0h-146v739h462v-133h-316v-606z" />
    <glyph glyph-name="uni0414" unicode="&#x414;" horiz-adv-x="798" 
d="M470 739l214 -605h84v-284h-143v150h-452v-150h-143v284h81l219 605h140zM399 550l-135 -416h268z" />
    <glyph glyph-name="uni0415" unicode="&#x415;" horiz-adv-x="637" 
d="M583 0h-501v739h501v-138h-352v-159h326v-138h-326v-166h352v-138z" />
    <glyph glyph-name="uni0416" unicode="&#x416;" horiz-adv-x="1034" 
d="M1006 129l7 -125c-23 -10 -51 -15 -82 -15c-32 0 -62 8 -83 17s-46 35 -59 48c-7 7 -15 19 -25 34l-22 37c-5 9 -12 24 -23 43l-23 44c-11 21 -20 37 -27 47c-13 20 -37 41 -61 41h-17v-301h-148v301h-17c-35 0 -55 -27 -87 -88l-23 -44l-23 -43l-22 -36
c-10 -16 -18 -28 -25 -35c-13 -13 -39 -39 -60 -48c-21 -8 -51 -17 -83 -17c-31 0 -59 5 -82 15l8 125c15 -5 33 -8 54 -8c24 0 44 11 61 32s52 78 105 170c20 28 32 44 37 49c-20 16 -39 44 -50 63c-9 20 -26 60 -33 73c-21 42 -39 71 -52 86s-32 23 -56 23
c-11 0 -25 -2 -42 -5l-11 119c22 13 48 19 77 19c49 0 86 -14 112 -42c27 -28 56 -78 89 -150c8 -16 21 -46 25 -57c5 -9 16 -31 20 -36c16 -21 29 -28 65 -28h13v301h148v-301h13c30 0 49 4 62 22c7 11 8 12 16 28l9 19l23 52c33 72 62 122 88 150c27 28 64 42 113 42
c29 0 55 -6 77 -19l-11 -119c-16 3 -30 5 -41 5c-24 0 -43 -8 -56 -23s-31 -43 -52 -86c-7 -12 -25 -53 -36 -73c-9 -19 -29 -48 -46 -65c9 -9 20 -24 35 -47c53 -92 87 -149 104 -170s38 -32 62 -32c21 0 39 3 55 8z" />
    <glyph glyph-name="uni0417" unicode="&#x417;" horiz-adv-x="615" 
d="M277 -12c-91 0 -178 25 -259 74l56 120c70 -39 139 -59 208 -59c85 0 137 38 137 95c0 55 -49 89 -126 89h-129v130h97c81 0 135 39 135 94c1 52 -46 85 -114 85c-56 0 -116 -20 -180 -59l-67 106c67 56 167 89 264 89c75 0 136 -19 181 -58c46 -38 69 -84 69 -137
c0 -68 -42 -127 -118 -155v-4c91 -24 142 -93 142 -182c0 -64 -26 -118 -79 -162c-52 -44 -124 -66 -217 -66z" />
    <glyph glyph-name="uni0418" unicode="&#x418;" horiz-adv-x="784" 
d="M175 0h-93v739h146v-487l381 487h93v-739h-146v483z" />
    <glyph glyph-name="uni0419" unicode="&#x419;" horiz-adv-x="784" 
d="M409 773c-85 0 -158 38 -219 115l75 78c51 -63 91 -84 144 -84s93 21 145 84l75 -78c-63 -77 -136 -115 -220 -115zM175 0h-93v739h146v-487l381 487h93v-739h-146v483z" />
    <glyph glyph-name="uni041A" unicode="&#x41a;" 
d="M708 0h-182l-205 293l-91 -109v-184h-148v739h148v-349l280 349h179l-271 -336z" />
    <glyph glyph-name="uni041B" unicode="&#x41b;" horiz-adv-x="685" 
d="M170 0h-162l266 739h141l261 -739h-161l-171 531z" />
    <glyph glyph-name="uni041C" unicode="&#x41c;" horiz-adv-x="939" 
d="M228 0h-146v739h98l290 -419l287 419h100v-739h-148v419l-215 -309h-51l-215 309v-419z" />
    <glyph glyph-name="uni041D" unicode="&#x41d;" horiz-adv-x="770" 
d="M230 0h-148v739h148v-295h310v295h148v-739h-148v301h-310v-301z" />
    <glyph glyph-name="uni041E" unicode="&#x41e;" horiz-adv-x="848" 
d="M423 -12c-109 0 -201 36 -274 109s-110 163 -110 270s37 198 111 273c75 75 166 112 274 112s199 -37 273 -112c75 -75 112 -165 112 -271s-37 -196 -112 -270c-74 -74 -165 -111 -274 -111zM655 369c0 68 -22 124 -67 169s-99 68 -164 68s-119 -23 -164 -68
s-67 -102 -67 -169s22 -123 66 -168c45 -45 100 -67 165 -67s120 22 165 67s67 101 66 168z" />
    <glyph glyph-name="uni041F" unicode="&#x41f;" horiz-adv-x="770" 
d="M230 0h-148v739h606v-739h-148v596h-310v-596z" />
    <glyph glyph-name="uni0420" unicode="&#x420;" horiz-adv-x="639" 
d="M82 739h273c87 0 152 -24 195 -71c44 -47 66 -105 66 -173c0 -69 -23 -126 -68 -172c-45 -45 -113 -68 -204 -68h-114v-255h-148v739zM230 389h119c76 0 116 48 116 108c0 59 -41 105 -108 105h-127v-213z" />
    <glyph glyph-name="uni0421" unicode="&#x421;" horiz-adv-x="765" 
d="M420 -11c-107 0 -198 35 -271 105c-73 71 -109 162 -109 273c0 112 37 204 111 276c75 73 165 109 271 109c133 0 253 -61 318 -153l-99 -97c-58 71 -128 107 -211 107c-67 0 -123 -23 -168 -69c-45 -45 -68 -103 -68 -173c0 -68 22 -124 67 -169s101 -67 168 -67
c86 0 158 36 215 108l102 -93c-68 -93 -189 -157 -326 -157z" />
    <glyph glyph-name="uni0422" unicode="&#x422;" horiz-adv-x="600" 
d="M225 0v596h-211v143h572v-143h-211v-596h-150z" />
    <glyph glyph-name="uni0423" unicode="&#x423;" horiz-adv-x="630" 
d="M140 -12c-36 0 -68 7 -96 22l12 121c20 -9 41 -13 62 -13c53 0 100 41 140 124l-235 496h174l140 -334l129 334h170l-78 -176c-64 -148 -109 -250 -152 -339c-14 -29 -26 -52 -36 -70c-9 -17 -23 -38 -40 -62c-17 -23 -33 -42 -50 -55c-33 -25 -84 -48 -140 -48z" />
    <glyph glyph-name="uni0424" unicode="&#x424;" horiz-adv-x="945" 
d="M547 11v-91h-149v91c-109 9 -196 46 -263 112c-66 67 -99 149 -99 248s33 181 100 247s155 103 262 112v89h149v-89c108 -9 195 -46 262 -112s100 -148 100 -247s-33 -181 -100 -248c-66 -66 -153 -103 -262 -112zM398 143v454c-128 -12 -213 -100 -213 -228
c0 -64 19 -116 57 -157c39 -41 91 -64 156 -69zM547 597v-455c129 11 212 99 212 227s-84 215 -212 228z" />
    <glyph glyph-name="uni0425" unicode="&#x425;" horiz-adv-x="669" 
d="M178 0h-174l237 374l-221 365h171l144 -253l151 253h174l-233 -365l232 -374h-171l-154 259z" />
    <glyph glyph-name="uni0426" unicode="&#x426;" horiz-adv-x="749" 
d="M708 -150h-148v150h-478v739h149v-596h251v596h149v-596h77v-293z" />
    <glyph glyph-name="uni0427" unicode="&#x427;" horiz-adv-x="698" 
d="M466 377v362h150v-739h-150v236c-53 -19 -103 -28 -150 -28c-147 0 -269 63 -269 262v269h149v-243c0 -104 41 -144 130 -144c47 0 93 8 140 25z" />
    <glyph glyph-name="uni0428" unicode="&#x428;" horiz-adv-x="1098" 
d="M1016 0h-934v739h149v-596h243v596h149v-596h244v596h149v-739z" />
    <glyph glyph-name="uni0429" unicode="&#x429;" horiz-adv-x="1134" 
d="M1093 -150h-148v150h-863v739h149v-596h243v596h149v-596h244v596h149v-596h77v-293z" />
    <glyph glyph-name="uni042A" unicode="&#x42a;" horiz-adv-x="759" 
d="M462 511c79 0 144 -23 195 -69c51 -45 76 -109 76 -190c0 -70 -23 -130 -68 -179s-112 -73 -200 -73h-285v610h-165v129h311v-251c45 15 90 23 136 23zM326 134h112c96 0 142 46 142 122c0 81 -51 121 -136 121c-36 0 -75 -7 -118 -22v-221z" />
    <glyph glyph-name="uni042B" unicode="&#x42b;" horiz-adv-x="958" 
d="M230 487h141c100 0 176 -34 213 -86s53 -104 53 -159c0 -69 -23 -127 -68 -173s-106 -69 -185 -69h-300v739h146v-252zM727 0v739h149v-739h-149zM230 131h129c81 0 125 49 125 114c0 64 -42 111 -121 111h-133v-225z" />
    <glyph glyph-name="uni042C" unicode="&#x42c;" horiz-adv-x="661" 
d="M364 511c79 0 144 -23 195 -69c51 -45 77 -109 77 -190c0 -70 -23 -130 -68 -179s-112 -73 -201 -73h-285v739h146v-251c45 15 90 23 136 23zM228 134h112c96 0 142 46 142 122c0 81 -45 121 -136 121c-37 0 -77 -8 -118 -23v-220z" />
    <glyph glyph-name="uni042D" unicode="&#x42d;" horiz-adv-x="769" 
d="M347 752c106 0 196 -36 270 -109c75 -72 112 -164 112 -276c0 -111 -37 -202 -110 -273c-73 -70 -163 -105 -270 -105c-137 0 -258 64 -326 157l102 93c57 -72 129 -108 215 -108c55 0 103 15 144 46c42 31 70 73 83 124h-343v133h343c-28 105 -119 175 -228 175
c-83 0 -153 -36 -211 -107l-99 97c65 92 185 153 318 153z" />
    <glyph glyph-name="uni042E" unicode="&#x42e;" horiz-adv-x="1129" 
d="M705 752c107 0 198 -37 273 -112s112 -165 112 -271s-37 -196 -112 -270c-74 -74 -165 -111 -274 -111c-97 0 -180 29 -250 87c-69 58 -112 132 -128 221h-95v-296h-149v739h149v-300h95c17 91 60 165 131 224s153 89 248 89zM936 369c0 68 -22 124 -67 169
s-99 68 -164 68s-119 -23 -164 -68s-67 -102 -67 -169s22 -123 66 -168c45 -45 100 -67 165 -67s120 22 165 67s67 101 66 168z" />
    <glyph glyph-name="uni042F" unicode="&#x42f;" horiz-adv-x="677" 
d="M335 739h260v-739h-146v256c-29 -5 -65 -8 -106 -9l-146 -247h-170l170 270c-97 39 -140 123 -140 223c0 71 23 130 70 176c47 47 117 70 208 70zM347 377c33 0 67 3 102 9v217h-105c-90 0 -135 -37 -135 -112c0 -76 46 -114 138 -114z" />
    <glyph glyph-name="uni0430" unicode="&#x430;" horiz-adv-x="678" 
d="M479 480v65h134v-545h-134v63c-47 -51 -105 -76 -174 -76c-78 0 -143 27 -194 82s-76 124 -76 206s26 150 77 203c51 54 116 81 193 81c68 0 126 -26 174 -79zM481 273c0 43 -15 80 -44 111s-65 46 -109 46c-45 0 -81 -15 -110 -46c-28 -31 -42 -68 -42 -111
c0 -44 14 -81 43 -112s65 -46 109 -46s80 15 109 46s44 68 44 112z" />
    <glyph glyph-name="uni0431" unicode="&#x431;" horiz-adv-x="687" 
d="M381 536c71 0 134 -25 188 -74c55 -49 82 -114 82 -196c0 -80 -27 -147 -80 -200s-125 -80 -214 -80c-111 0 -197 47 -245 122c-48 76 -71 167 -71 271c0 207 93 330 245 366c16 4 39 8 68 13s51 10 65 13c29 8 83 32 135 72l54 -114c-27 -28 -56 -48 -87 -60
c-31 -11 -83 -24 -157 -39c-60 -12 -90 -22 -127 -53c-37 -29 -57 -81 -65 -160c40 76 121 119 209 119zM508 264c0 41 -14 76 -43 105s-64 44 -105 44s-76 -14 -106 -42c-29 -27 -44 -62 -44 -105c0 -42 14 -78 42 -109c28 -30 63 -45 106 -45s78 15 107 44
c29 30 43 66 43 108z" />
    <glyph glyph-name="uni0432" unicode="&#x432;" horiz-adv-x="645" 
d="M475 423c85 -24 135 -99 135 -200c0 -65 -25 -120 -74 -167c-49 -46 -115 -69 -199 -69c-73 0 -136 18 -193 61c-56 44 -91 128 -91 243v182c0 100 26 176 77 227c52 52 120 78 203 78c73 0 131 -19 175 -56c45 -37 67 -86 67 -148c0 -65 -40 -128 -100 -151zM331 649
c-87 0 -136 -75 -136 -183v-7h124c83 0 116 44 116 97c0 59 -40 93 -104 93zM338 116c80 0 129 50 129 114s-37 108 -126 108h-146v-46c0 -119 55 -176 143 -176z" />
    <glyph glyph-name="uni0433" unicode="&#x433;" horiz-adv-x="509" 
d="M248 -13c-137 0 -216 59 -216 152c0 72 44 125 97 150c79 38 178 59 178 106c0 27 -23 46 -74 46c-47 0 -96 -10 -149 -31l-33 107c67 28 135 42 206 42c124 0 207 -54 207 -145c0 -182 -273 -154 -273 -254c0 -35 29 -53 87 -53c57 0 114 14 171 43l31 -111
c-73 -35 -151 -52 -232 -52z" />
    <glyph glyph-name="uni0434" unicode="&#x434;" horiz-adv-x="674" 
d="M481 485v60h130v-476c0 -197 -114 -301 -311 -301c-70 0 -144 14 -222 41l30 115c63 -23 125 -34 187 -34c120 0 180 54 180 151v28c-42 -47 -98 -70 -168 -70c-80 0 -145 26 -196 79s-76 119 -76 200s27 148 80 201s119 80 198 80c67 0 123 -25 168 -74zM177 277
c0 -45 14 -82 43 -111s65 -44 108 -44s79 15 108 44c29 30 43 67 43 111s-14 80 -43 109s-65 44 -108 44s-79 -15 -108 -44s-43 -65 -43 -109z" />
    <glyph glyph-name="uni0435" unicode="&#x435;" horiz-adv-x="626" 
d="M593 285c0 -19 -2 -40 -5 -62h-409c20 -77 73 -116 159 -116c59 0 129 23 176 55l56 -99c-69 -50 -148 -75 -238 -75c-96 0 -169 28 -220 83s-76 123 -76 202c0 83 26 151 79 205s121 81 205 81c79 0 145 -25 196 -74s77 -115 77 -200zM320 442c-71 0 -124 -43 -141 -114
h277c-13 71 -64 114 -136 114z" />
    <glyph glyph-name="uni0436" unicode="&#x436;" horiz-adv-x="886" 
d="M859 111l6 -108c-23 -8 -48 -12 -74 -12c-29 0 -55 6 -74 13s-40 25 -51 34c-11 11 -29 37 -36 48l-15 27c-7 13 -12 22 -15 26c-28 48 -45 67 -74 67h-15v-207h-137v207h-14c-29 0 -46 -19 -74 -67l-17 -30l-19 -31c-3 -5 -10 -13 -19 -26c-17 -24 -30 -29 -53 -44
c-23 -13 -50 -17 -83 -17c-26 0 -51 4 -74 12l6 108c16 -4 30 -6 43 -6c19 0 34 6 46 19c13 13 36 45 71 97l14 20c11 15 19 26 25 32c-13 8 -22 19 -31 32c-4 8 -6 10 -11 19c-3 8 -10 22 -15 31c-17 33 -21 43 -36 60c-13 19 -29 23 -50 23c-13 0 -24 -1 -35 -3l-9 103
c19 10 42 15 69 15c84 0 123 -36 160 -119l21 -46c4 -7 14 -27 18 -31c13 -15 28 -23 56 -23h11v211h137v-211h11c23 -4 41 9 50 16c7 4 18 26 21 33c2 3 6 11 11 24c6 13 10 22 13 27c37 83 76 119 161 119c27 0 50 -5 69 -15l-9 -103c-11 2 -22 3 -35 3
c-23 0 -36 -4 -51 -23s-18 -25 -35 -60c-1 -3 -8 -18 -11 -22c-1 -3 -7 -15 -10 -19c-10 -15 -20 -31 -36 -41c6 -6 14 -17 25 -32c39 -60 65 -98 79 -113c15 -15 32 -23 52 -23c13 0 27 2 43 6z" />
    <glyph glyph-name="uni0437" unicode="&#x437;" horiz-adv-x="557" 
d="M257 -230c-90 0 -174 27 -251 81l50 109c63 -42 123 -63 180 -63c88 0 141 44 141 111c0 64 -49 102 -128 102h-106v121h73c92 0 141 45 141 104c0 60 -50 96 -115 96c-50 0 -104 -21 -163 -63l-63 99c59 53 155 92 247 92c69 0 127 -20 172 -59s68 -87 68 -143
c0 -71 -42 -134 -114 -163v-4c84 -23 137 -98 137 -189c0 -65 -24 -120 -72 -164c-48 -45 -114 -67 -197 -67z" />
    <glyph glyph-name="uni0438" unicode="&#x438;" horiz-adv-x="652" 
d="M447 545h141v-545h-136v77c-28 -51 -102 -90 -186 -90c-59 0 -109 19 -149 57c-39 38 -59 96 -59 175v326h141v-305c0 -80 39 -124 110 -124c84 0 138 55 138 147v282z" />
    <glyph glyph-name="uni0439" unicode="&#x439;" horiz-adv-x="652" 
d="M327 581c-77 0 -142 34 -197 103l68 71c45 -57 81 -76 129 -76s84 19 131 76l67 -71c-56 -69 -122 -103 -198 -103zM447 545h141v-545h-136v77c-28 -51 -102 -90 -186 -90c-59 0 -109 19 -149 57c-39 38 -59 96 -59 175v326h141v-305c0 -80 39 -124 110 -124
c84 0 138 55 138 147v282z" />
    <glyph glyph-name="uni043A" unicode="&#x43a;" horiz-adv-x="583" 
d="M595 0h-173l-180 233l-37 -33v-200h-141v760h141v-401l198 186h178l-243 -223z" />
    <glyph glyph-name="uni043B" unicode="&#x43b;" horiz-adv-x="608" 
d="M164 0h-156l229 545h139l224 -545h-156l-137 373z" />
    <glyph glyph-name="uni043C" unicode="&#x43c;" horiz-adv-x="781" 
d="M201 0h-137v545h101l226 -291l226 291h101v-545h-137v289l-166 -206h-49l-165 206v-289z" />
    <glyph glyph-name="uni043D" unicode="&#x43d;" horiz-adv-x="629" 
d="M425 336v209h140v-545h-140v210h-221v-210h-140v545h140v-209h221z" />
    <glyph glyph-name="uni043E" unicode="&#x43e;" horiz-adv-x="654" 
d="M35 273c0 80 27 148 82 203c55 56 125 84 210 84s155 -28 210 -84c55 -55 82 -123 82 -203c0 -81 -27 -149 -82 -204s-125 -83 -210 -83s-155 28 -210 83s-82 123 -82 204zM219 162c29 -30 65 -45 108 -45s78 15 107 45c29 31 44 68 44 111s-15 80 -44 110
s-64 45 -107 45s-79 -15 -108 -45s-43 -67 -43 -110s14 -80 43 -111z" />
    <glyph glyph-name="uni043F" unicode="&#x43f;" horiz-adv-x="643" 
d="M205 0h-141v545h138v-76c29 53 94 91 171 91c59 0 110 -20 151 -59s62 -95 62 -168v-333h-141v295c0 87 -46 135 -115 135c-75 0 -125 -57 -125 -138v-292z" />
    <glyph glyph-name="uni0440" unicode="&#x440;" horiz-adv-x="681" 
d="M377 559c77 0 141 -28 192 -83s76 -123 76 -203s-26 -148 -77 -203s-115 -83 -192 -83c-67 0 -124 25 -171 76v-287h-141v769h140v-67c47 54 104 81 173 81zM352 116c45 0 81 15 109 45s42 67 42 111s-14 81 -42 111s-64 45 -109 45c-44 0 -80 -15 -108 -45
s-42 -67 -42 -111s14 -81 42 -111s64 -45 108 -45z" />
    <glyph glyph-name="uni0441" unicode="&#x441;" horiz-adv-x="603" 
d="M324 -12c-85 0 -154 27 -208 80s-81 122 -81 205s27 152 82 205c55 54 125 81 211 81c111 0 209 -55 254 -152l-113 -62c-33 55 -80 83 -139 83c-45 0 -82 -15 -111 -45c-29 -29 -44 -66 -44 -110c0 -45 14 -82 43 -112c29 -29 66 -44 109 -44c57 0 115 34 139 82
l114 -67c-47 -88 -144 -144 -256 -144z" />
    <glyph glyph-name="uni0442" unicode="&#x442;" horiz-adv-x="1002" 
d="M723 560c65 0 118 -20 159 -61c42 -41 63 -97 63 -170v-329h-141v303c0 83 -44 127 -109 127c-71 0 -120 -51 -120 -131v-299h-141v302c0 81 -43 128 -110 128c-69 0 -119 -51 -119 -132v-298h-141v545h138v-78c31 57 95 94 166 93c68 0 131 -33 160 -96
c40 60 114 96 195 96z" />
    <glyph glyph-name="uni0443" unicode="&#x443;" horiz-adv-x="599" 
d="M311 190l124 355h154l-219 -572c-53 -139 -123 -205 -231 -205c-41 0 -76 9 -105 27l24 118c25 -12 49 -18 70 -18c44 0 79 29 106 86l11 25l-238 539h163z" />
    <glyph glyph-name="uni0444" unicode="&#x444;" horiz-adv-x="851" 
d="M816 272c0 -86 -29 -154 -88 -204c-59 -49 -137 -76 -236 -80v-215h-133v215c-99 4 -177 31 -236 81s-88 118 -88 204c0 85 29 153 88 204s138 79 236 82v201h133v-201c98 -3 176 -30 235 -81s89 -119 89 -206zM492 437v-330c117 1 187 65 187 166
c0 100 -67 161 -187 164zM172 273c0 -101 71 -162 187 -165v329c-119 -3 -187 -64 -187 -164z" />
    <glyph glyph-name="uni0445" unicode="&#x445;" horiz-adv-x="554" 
d="M368 274l175 -274h-162l-104 179l-109 -179h-163l181 278l-161 267h161l93 -167l100 167h159z" />
    <glyph glyph-name="uni0446" unicode="&#x446;" horiz-adv-x="720" 
d="M588 545v-373c-1 -65 38 -80 126 -80v-272h-124v171c-67 0 -119 39 -126 106c-27 -64 -107 -110 -198 -110c-59 0 -109 19 -149 57c-39 38 -59 96 -59 175v326h141v-305c0 -80 39 -124 110 -124c84 0 138 55 138 147v282h141z" />
    <glyph glyph-name="uni0447" unicode="&#x447;" horiz-adv-x="587" 
d="M382 289v256h141v-545h-141v164c-46 -11 -86 -16 -121 -16c-65 0 -113 12 -156 41c-43 31 -67 89 -67 173v183h140v-173c0 -64 33 -96 99 -96c37 0 72 4 105 13z" />
    <glyph glyph-name="uni0448" unicode="&#x448;" horiz-adv-x="978" 
d="M773 255v290h141v-545h-133v77c-13 -25 -36 -47 -67 -64s-65 -26 -102 -26c-67 0 -128 30 -156 91c-36 -61 -109 -91 -184 -91c-60 0 -111 19 -152 58s-62 99 -62 179v321h141v-307c0 -80 36 -122 101 -122c72 0 116 52 116 139v290h141v-311c0 -76 36 -118 99 -118
c71 0 117 56 117 139z" />
    <glyph glyph-name="uni0449" unicode="&#x449;" horiz-adv-x="1049" 
d="M914 545v-373c0 -65 40 -80 127 -80v-272h-123v171c-68 0 -119 39 -126 106c-27 -65 -100 -110 -185 -110c-65 0 -123 30 -151 91c-37 -61 -111 -91 -184 -91c-60 0 -111 19 -152 58s-62 99 -62 179v321h141v-307c0 -80 36 -122 101 -122c72 0 116 52 116 139v290h141
v-311c0 -76 35 -118 98 -118c72 0 118 56 118 139v290h141z" />
    <glyph glyph-name="uni044A" unicode="&#x44a;" horiz-adv-x="654" 
d="M397 444c65 0 119 -21 162 -64c44 -42 66 -96 66 -162c0 -64 -21 -119 -62 -164s-104 -67 -187 -67c-201 0 -240 154 -240 266v173h-124v119h262v-135c38 23 79 34 123 34zM379 109c69 0 107 45 107 108c0 64 -39 105 -111 105c-35 0 -69 -8 -101 -25v-62
c0 -84 35 -126 105 -126z" />
    <glyph glyph-name="uni044B" unicode="&#x44b;" horiz-adv-x="796" 
d="M199 378h111c80 0 142 -24 174 -63c32 -37 46 -80 46 -125c0 -55 -19 -100 -57 -136c-37 -36 -90 -54 -158 -54h-251v545h135v-167zM592 0v545h140v-545h-140zM198 115h103c64 0 92 31 92 75c0 40 -29 72 -88 72h-107v-147z" />
    <glyph glyph-name="uni044C" unicode="&#x44c;" horiz-adv-x="575" 
d="M316 444c65 0 120 -21 164 -64c44 -42 66 -96 66 -162c0 -64 -21 -119 -62 -164s-104 -67 -187 -67c-95 0 -164 36 -197 92c-32 56 -44 110 -44 174v292h139v-133c37 21 77 32 121 32zM300 109c69 0 106 45 106 108c0 64 -38 105 -110 105c-34 0 -68 -8 -101 -24v-63
c0 -84 35 -126 105 -126z" />
    <glyph glyph-name="uni044D" unicode="&#x44d;" horiz-adv-x="603" 
d="M280 559c85 0 154 -27 207 -81c54 -53 81 -122 81 -205s-27 -152 -80 -205s-121 -80 -205 -80c-116 0 -212 57 -259 144l111 66c24 -48 84 -85 144 -85c67 0 125 44 145 109h-195v102h195c-21 64 -80 108 -148 108c-60 0 -112 -34 -143 -85l-111 60
c47 99 146 152 258 152z" />
    <glyph glyph-name="uni044E" unicode="&#x44e;" horiz-adv-x="881" 
d="M554 560c85 0 155 -28 210 -84c55 -55 82 -123 82 -203c0 -81 -27 -149 -82 -204s-125 -83 -210 -83c-74 0 -137 21 -189 63c-51 43 -84 97 -97 164h-65v-213h-139v760h139v-432h64c12 67 44 123 96 166c53 44 116 66 191 66zM446 162c29 -30 65 -45 108 -45
s78 15 107 45c29 31 44 68 44 111s-15 80 -44 110s-64 45 -107 45s-79 -15 -108 -45s-43 -67 -43 -110s14 -80 43 -111z" />
    <glyph glyph-name="uni044F" unicode="&#x44f;" horiz-adv-x="580" 
d="M291 545h225v-545h-137v180c-27 -3 -57 -6 -91 -7l-111 -173h-154l133 193c-71 30 -106 85 -106 166c0 111 81 186 241 186zM292 285c30 0 59 2 87 7v139h-84c-70 0 -105 -25 -105 -74c0 -48 34 -72 102 -72z" />
    <glyph glyph-name="uni0451" unicode="&#x451;" horiz-adv-x="626" 
d="M136 682c0 45 37 82 84 82s84 -37 84 -82c0 -49 -36 -85 -84 -85s-84 36 -84 85zM438 597c-48 0 -85 36 -85 85c0 47 37 82 85 82c47 0 83 -37 83 -82c0 -49 -36 -85 -83 -85zM593 285c0 -19 -2 -40 -5 -62h-409c20 -77 73 -116 159 -116c59 0 129 23 176 55l56 -99
c-69 -50 -148 -75 -238 -75c-96 0 -169 28 -220 83s-76 123 -76 202c0 83 26 151 79 205s121 81 205 81c79 0 145 -25 196 -74s77 -115 77 -200zM320 442c-71 0 -124 -43 -141 -114h277c-13 71 -64 114 -136 114z" />
    <glyph glyph-name="Wgrave" unicode="&#x1e80;" horiz-adv-x="1065" 
d="M538 978l65 -183h-133l-97 183h165zM376 0h-125l-245 739h162l149 -497l168 497h94l171 -497l147 497h162l-244 -739h-125l-157 484z" />
    <glyph glyph-name="wgrave" unicode="&#x1e81;" horiz-adv-x="877" 
d="M447 802l62 -176h-125l-94 176h157zM317 1h-123l-186 544h148l109 -357l123 357h99l127 -357l106 357h148l-184 -544h-123l-123 341z" />
    <glyph glyph-name="Wacute" unicode="&#x1e82;" horiz-adv-x="1065" 
d="M604 794h-130l65 183h163zM376 0h-125l-245 739h162l149 -497l168 497h94l171 -497l147 497h162l-244 -739h-125l-157 484z" />
    <glyph glyph-name="wacute" unicode="&#x1e83;" horiz-adv-x="877" 
d="M504 626h-125l62 176h157zM317 1h-123l-186 544h148l109 -357l123 357h99l127 -357l106 357h148l-184 -544h-123l-123 341z" />
    <glyph glyph-name="Wdieresis" unicode="&#x1e84;" horiz-adv-x="1065" 
d="M343 880c0 45 36 81 83 81s83 -36 83 -81c0 -48 -36 -84 -83 -84s-83 36 -83 84zM640 796c-48 0 -83 36 -83 84c0 45 36 81 83 81c45 0 82 -36 82 -81c0 -48 -37 -84 -82 -84zM376 0h-125l-245 739h162l149 -497l168 497h94l171 -497l147 497h162l-244 -739h-125
l-157 484z" />
    <glyph glyph-name="wdieresis" unicode="&#x1e85;" horiz-adv-x="877" 
d="M246 701c0 45 37 82 84 82s84 -37 84 -82c0 -49 -36 -85 -84 -85s-84 36 -84 85zM548 616c-48 0 -85 36 -85 85c0 47 37 82 85 82c47 0 83 -37 83 -82c0 -49 -36 -85 -83 -85zM317 1h-123l-186 544h148l109 -357l123 357h99l127 -357l106 357h148l-184 -544h-123
l-123 341z" />
    <glyph glyph-name="Ygrave" unicode="&#x1ef2;" horiz-adv-x="679" 
d="M352 978l65 -183h-133l-97 183h165zM498 739h171l-256 -483v-256h-148v256l-253 483h171l156 -324z" />
    <glyph glyph-name="ygrave" unicode="&#x1ef3;" horiz-adv-x="599" 
d="M313 802l62 -176h-125l-94 176h157zM312 190l124 355h154l-219 -572c-53 -139 -123 -205 -231 -205c-41 0 -76 9 -105 27l24 118c25 -12 49 -18 70 -18c44 0 79 29 106 86l11 25l-238 539h163z" />
    <glyph glyph-name="uni2009" unicode="&#x2009;" horiz-adv-x="78" 
 />
    <glyph glyph-name="endash" unicode="&#x2013;" horiz-adv-x="720" 
d="M660 211h-600v132h600v-132z" />
    <glyph glyph-name="emdash" unicode="&#x2014;" horiz-adv-x="1039" 
d="M979 211h-919v132h919v-132z" />
    <glyph glyph-name="quoteleft" unicode="&#x2018;" horiz-adv-x="251" 
d="M131 673h2c39 0 70 -33 70 -73c0 -45 -38 -80 -83 -80c-51 0 -87 40 -87 93c0 69 49 136 147 199l40 -57c-47 -35 -76 -62 -89 -82z" />
    <glyph glyph-name="quoteright" unicode="&#x2019;" horiz-adv-x="249" 
d="M136 807c49 0 87 -39 87 -94c0 -69 -49 -135 -148 -198l-39 56c48 36 77 64 88 83l-1 -1c-37 0 -70 34 -70 74c0 44 38 80 83 80z" />
    <glyph glyph-name="quotesinglbase" unicode="&#x201a;" horiz-adv-x="258" 
d="M127 145c49 0 87 -39 87 -94c0 -69 -49 -135 -148 -198l-39 56c48 36 77 64 88 83l-1 -1c-37 0 -70 34 -70 74c0 44 38 80 83 80z" />
    <glyph glyph-name="quotedblleft" unicode="&#x201c;" horiz-adv-x="503" 
d="M183 812l40 -57c-47 -35 -76 -62 -89 -82h2c39 0 70 -33 70 -73c0 -45 -38 -80 -83 -80c-51 0 -87 40 -87 93c0 69 49 136 147 199zM383 673h2c39 0 70 -33 70 -73c0 -45 -38 -80 -83 -80c-51 0 -87 40 -87 93c0 69 49 136 147 199l40 -57c-47 -35 -76 -62 -89 -82z" />
    <glyph glyph-name="quotedblright" unicode="&#x201d;" horiz-adv-x="497" 
d="M134 810c51 0 87 -40 87 -93c0 -69 -49 -136 -147 -199l-40 57c47 35 76 62 89 82h-2c-39 0 -70 33 -70 73c0 45 38 80 83 80zM383 810c51 0 87 -40 87 -93c0 -69 -49 -136 -147 -199l-40 57c47 35 76 62 89 82h-2c-39 0 -70 33 -70 73c0 45 38 80 83 80z" />
    <glyph glyph-name="quotedblbase" unicode="&#x201e;" horiz-adv-x="505" 
d="M124 144c51 0 87 -40 87 -93c0 -69 -49 -136 -147 -199l-40 57c47 35 76 62 89 82h-2c-39 0 -70 33 -70 73c0 45 38 80 83 80zM373 144c51 0 87 -40 87 -93c0 -69 -49 -136 -147 -199l-40 57c47 35 76 62 89 82h-2c-39 0 -70 33 -70 73c0 45 38 80 83 80z" />
    <glyph glyph-name="dagger" unicode="&#x2020;" horiz-adv-x="508" 
d="M323 534h148v-128h-148v-584h-138v584h-148v128h148v315h138v-315z" />
    <glyph glyph-name="daggerdbl" unicode="&#x2021;" horiz-adv-x="508" 
d="M471 576v-128h-148v-225h148v-128h-148v-273h-138v273h-148v128h148v225h-148v128h148v273h138v-273h148z" />
    <glyph glyph-name="bullet" unicode="&#x2022;" horiz-adv-x="458" 
d="M228 177c-45 0 -83 16 -115 48s-48 70 -48 115s16 84 48 116c32 33 70 49 115 49s84 -16 116 -49c33 -32 49 -71 49 -116s-16 -83 -49 -115c-32 -32 -71 -48 -116 -48z" />
    <glyph glyph-name="ellipsis" unicode="&#x2026;" horiz-adv-x="744" 
d="M124 -16c-47 0 -83 35 -83 82c0 45 36 80 83 80c44 0 80 -35 80 -80c0 -47 -36 -82 -80 -82zM373 -16c-47 0 -83 35 -83 82c0 45 36 80 83 80c44 0 80 -35 80 -80c0 -47 -36 -82 -80 -82zM621 -16c-47 0 -83 35 -83 82c0 45 36 80 83 80c44 0 80 -35 80 -80
c0 -47 -36 -82 -80 -82z" />
    <glyph glyph-name="perthousand" unicode="&#x2030;" horiz-adv-x="1314" 
d="M31 567c0 51 19 95 56 131s82 54 135 54s97 -18 134 -54s56 -80 56 -131c0 -50 -19 -93 -56 -129c-37 -35 -81 -53 -134 -53s-98 18 -135 53c-37 36 -56 79 -56 129zM248 0h-137l538 739h138zM222 483c45 0 85 37 85 85s-40 85 -85 85c-48 0 -86 -37 -86 -85
s39 -85 86 -85zM491 170c0 51 18 94 55 130s82 54 135 54s98 -18 135 -54s56 -79 56 -130c0 -50 -19 -93 -56 -129c-37 -35 -82 -53 -135 -53s-98 18 -135 53c-37 36 -55 79 -55 129zM908 170c0 51 19 94 56 129c37 36 82 54 135 54s98 -18 135 -54c37 -35 56 -78 56 -129
c0 -50 -19 -93 -56 -129c-37 -35 -82 -53 -135 -53s-98 18 -135 53c-37 36 -56 79 -56 129zM1187 170c0 51 -40 89 -88 89s-88 -38 -88 -89c0 -49 40 -87 88 -87s88 38 88 87zM767 171c0 48 -38 85 -86 85c-47 0 -85 -37 -85 -85c0 -49 38 -85 85 -85s86 36 86 85z" />
    <glyph glyph-name="guilsinglleft" unicode="&#x2039;" horiz-adv-x="361" 
d="M316 88h-147l-136 203l136 203h147l-140 -203z" />
    <glyph glyph-name="guilsinglright" unicode="&#x203a;" horiz-adv-x="361" 
d="M328 291l-136 -203h-147l140 203l-140 203h147z" />
    <glyph glyph-name="fraction" unicode="&#x2044;" horiz-adv-x="213" 
d="M-123 0h-115l578 739h113z" />
    <glyph glyph-name="uni2070" unicode="&#x2070;" horiz-adv-x="386" 
d="M319 558c-29 -38 -71 -57 -126 -57s-98 19 -127 57c-29 39 -43 88 -43 148s14 109 43 148s72 58 127 58s97 -19 126 -58s44 -88 44 -148s-15 -109 -44 -148zM193 588c49 0 73 39 73 118s-24 118 -73 118c-48 0 -72 -39 -72 -118s24 -118 72 -118z" />
    <glyph glyph-name="uni2074" unicode="&#x2074;" horiz-adv-x="370" 
d="M296 671h42v-75h-42v-89h-85v89h-178l-19 56l210 251h72v-232zM211 785l-95 -114h95v114z" />
    <glyph glyph-name="uni2075" unicode="&#x2075;" horiz-adv-x="341" 
d="M176 763c81 0 135 -54 135 -129c0 -76 -61 -134 -153 -134c-52 0 -99 15 -140 46l37 72c35 -23 67 -35 98 -35c43 0 69 23 69 55c0 29 -25 53 -64 53c-23 0 -46 -9 -67 -27l-46 43l24 194h216v-78h-153l-9 -69c18 6 36 9 53 9z" />
    <glyph glyph-name="uni2076" unicode="&#x2076;" horiz-adv-x="354" 
d="M329 635c0 -77 -62 -135 -147 -135c-103 0 -158 80 -158 192c0 63 16 115 47 157s77 63 136 63c45 0 83 -12 114 -35l-36 -66c-23 15 -48 23 -73 23c-60 0 -99 -48 -106 -109c20 25 50 38 89 38c79 0 134 -53 134 -128zM122 634c0 -32 25 -58 60 -58s61 26 61 59
s-26 57 -61 57s-60 -25 -60 -58z" />
    <glyph glyph-name="uni2077" unicode="&#x2077;" horiz-adv-x="299" 
d="M13 817v84h273v-64l-149 -328h-100l143 308h-167z" />
    <glyph glyph-name="uni2078" unicode="&#x2078;" horiz-adv-x="376" 
d="M188 501c-96 0 -155 48 -155 115c0 45 30 83 79 102v1c-41 19 -62 47 -62 85c0 64 55 108 138 108s138 -44 138 -108c0 -39 -21 -67 -64 -85v-1c52 -20 81 -58 81 -101c0 -67 -60 -116 -155 -116zM241 794c0 27 -21 46 -53 46s-54 -19 -54 -46c0 -25 22 -45 54 -45
s53 20 53 45zM188 575c37 0 64 21 64 52s-25 52 -64 52c-40 0 -66 -21 -66 -52s27 -52 66 -52z" />
    <glyph glyph-name="uni2079" unicode="&#x2079;" horiz-adv-x="365" 
d="M174 912c103 0 157 -78 157 -194c0 -62 -15 -114 -46 -155s-76 -62 -135 -62c-45 0 -83 11 -114 34l34 67c25 -15 51 -23 76 -23c59 0 96 44 103 109c-24 -26 -54 -39 -90 -39c-80 0 -132 54 -132 127c0 80 60 136 147 136zM174 837c-35 0 -61 -26 -61 -59s25 -57 60 -57
s60 24 60 57s-26 59 -59 59z" />
    <glyph glyph-name="uni2080" unicode="&#x2080;" horiz-adv-x="386" 
d="M319 -103c-29 -39 -71 -58 -126 -58s-98 19 -127 58c-29 38 -43 87 -43 147s14 109 43 148s72 58 127 58s97 -19 126 -58s44 -88 44 -148s-15 -109 -44 -147zM193 -74c49 0 73 39 73 118s-24 118 -73 118c-48 0 -72 -39 -72 -118s24 -118 72 -118z" />
    <glyph glyph-name="uni2081" unicode="&#x2081;" horiz-adv-x="276" 
d="M10 130l144 109h70v-394h-94v264l-71 -53z" />
    <glyph glyph-name="uni2082" unicode="&#x2082;" horiz-adv-x="346" 
d="M251 12l-81 -84h139v-83h-272v75l129 130c31 31 46 56 46 75c0 24 -20 41 -47 41s-59 -17 -96 -52l-45 68c42 45 91 68 147 68c79 0 136 -51 136 -124c0 -38 -19 -76 -56 -114z" />
    <glyph glyph-name="uni2083" unicode="&#x2083;" horiz-adv-x="333" 
d="M10 -122l38 73c37 -19 68 -28 95 -28c82 -5 78 91 0 85h-53v79h47c31 0 59 13 59 40c0 25 -24 38 -52 38c-24 0 -50 -9 -79 -28l-45 66c37 31 82 47 135 47c39 0 71 -10 97 -31c26 -20 39 -45 39 -74c0 -43 -29 -76 -72 -89v-2c52 -12 82 -49 82 -96
c5 -106 -155 -161 -291 -80z" />
    <glyph glyph-name="uni2084" unicode="&#x2084;" horiz-adv-x="370" 
d="M296 9h42v-75h-42v-89h-85v89h-178l-19 56l210 251h72v-232zM211 123l-95 -114h95v114z" />
    <glyph glyph-name="uni2085" unicode="&#x2085;" horiz-adv-x="341" 
d="M176 101c81 0 135 -54 135 -129c0 -76 -61 -134 -153 -134c-52 0 -99 15 -140 46l37 72c35 -23 67 -35 98 -35c43 0 69 23 69 55c0 29 -25 53 -64 53c-23 0 -46 -9 -67 -27l-46 43l24 194h216v-78h-153l-9 -69c18 6 36 9 53 9z" />
    <glyph glyph-name="uni2086" unicode="&#x2086;" horiz-adv-x="354" 
d="M329 -27c0 -77 -62 -135 -147 -135c-103 0 -158 80 -158 192c0 63 16 115 47 157s77 63 136 63c45 0 83 -12 114 -35l-36 -66c-23 15 -48 23 -73 23c-60 0 -99 -48 -106 -109c20 25 50 38 89 38c79 0 134 -53 134 -128zM122 -28c0 -32 25 -58 60 -58s61 26 61 59
s-26 57 -61 57s-60 -25 -60 -58z" />
    <glyph glyph-name="uni2087" unicode="&#x2087;" horiz-adv-x="299" 
d="M13 155v84h273v-64l-149 -328h-100l143 308h-167z" />
    <glyph glyph-name="uni2088" unicode="&#x2088;" horiz-adv-x="376" 
d="M188 -161c-96 0 -155 48 -155 115c0 45 30 83 79 102v1c-41 19 -62 47 -62 85c0 64 55 108 138 108s138 -44 138 -108c0 -39 -21 -67 -64 -85v-1c52 -20 81 -58 81 -101c0 -67 -60 -116 -155 -116zM241 132c0 27 -21 46 -53 46s-54 -19 -54 -46c0 -25 22 -45 54 -45
s53 20 53 45zM188 -87c37 0 64 21 64 52s-25 52 -64 52c-40 0 -66 -21 -66 -52s27 -52 66 -52z" />
    <glyph glyph-name="uni2089" unicode="&#x2089;" horiz-adv-x="365" 
d="M174 250c103 0 157 -78 157 -194c0 -62 -15 -114 -46 -155s-76 -62 -135 -62c-45 0 -83 11 -114 34l34 67c25 -15 51 -23 76 -23c59 0 96 44 103 109c-24 -26 -54 -39 -90 -39c-80 0 -132 54 -132 127c0 80 60 136 147 136zM174 175c-35 0 -61 -26 -61 -59s25 -57 60 -57
s60 24 60 57s-26 59 -59 59z" />
    <glyph glyph-name="Euro" unicode="&#x20ac;" horiz-adv-x="767" 
d="M555 247h-246c40 -75 114 -121 202 -121c62 0 122 17 181 50v-140c-55 -31 -121 -47 -198 -47c-82 0 -155 24 -218 71s-107 110 -130 187h-118l39 95h62c-1 6 -1 15 -1 27c0 11 0 20 1 26h-85l39 95h62c23 79 66 143 129 190c63 48 137 72 220 72c93 0 172 -23 237 -69
l-68 -116c-47 32 -97 48 -151 48c-87 0 -163 -48 -203 -125h344l-43 -95h-329c-1 -6 -1 -15 -1 -26c0 -12 0 -21 1 -27h312z" />
    <glyph glyph-name="trademark" unicode="&#x2122;" horiz-adv-x="817" 
d="M130 660h-97v79h279v-79h-97v-271h-85v271zM545 547l140 192h59v-350h-83v180l-98 -133h-34l-98 133v-180h-83v350h59z" />
    <glyph glyph-name="estimated" unicode="&#x212e;" horiz-adv-x="953" 
d="M483 -17c-123 0 -227 37 -312 110s-127 164 -127 273s42 201 127 274c85 74 189 111 312 111c121 0 225 -36 310 -109c86 -73 129 -166 129 -281v-21c0 -3 -2 -5 -7 -5h-686v-230c0 -2 1 -3 4 -4c69 -48 152 -72 250 -72c137 0 258 51 326 142l35 -29
c-80 -99 -213 -159 -361 -159zM229 628v-243h508v244c0 2 -1 3 -3 4c-71 49 -154 73 -251 73s-181 -24 -252 -73c-1 -1 -2 -3 -2 -5z" />
    <glyph glyph-name="uni2150" unicode="&#x2150;" horiz-adv-x="885" 
d="M246 346h-94v265l-71 -53l-49 74l144 109h70v-395zM88 0l578 739h113l-576 -739h-115zM566 310v84h273v-64l-149 -328h-100l143 308h-167z" />
    <glyph glyph-name="uni2151" unicode="&#x2151;" horiz-adv-x="906" 
d="M244 346h-94v265l-71 -53l-49 74l144 109h70v-395zM90 0l578 739h113l-576 -739h-115zM710 405c103 0 157 -78 157 -194c0 -62 -15 -114 -46 -155s-76 -62 -135 -62c-45 0 -83 11 -114 34l34 67c25 -15 51 -23 76 -23c59 0 96 44 103 109c-24 -26 -54 -39 -90 -39
c-80 0 -132 54 -132 127c0 80 60 136 147 136zM710 330c-35 0 -61 -26 -61 -59s25 -57 60 -57s60 24 60 57s-26 59 -59 59z" />
    <glyph glyph-name="uni2153" unicode="&#x2153;" horiz-adv-x="875" 
d="M245 346h-94v265l-71 -53l-49 74l144 109h70v-395zM85 0l578 739h113l-576 -739h-115zM750 212v-2c52 -12 82 -49 82 -96c5 -106 -155 -161 -291 -80l38 73c37 -19 68 -28 95 -28c82 -5 78 91 0 85h-53v79h47c31 0 59 13 59 40c0 25 -24 38 -52 38c-24 0 -50 -9 -79 -28
l-45 66c37 31 82 47 135 47c39 0 71 -10 97 -31c26 -20 39 -45 39 -74c0 -43 -29 -76 -72 -89z" />
    <glyph glyph-name="uni2154" unicode="&#x2154;" horiz-adv-x="874" 
d="M46 347v75l129 130c31 31 46 56 46 75c0 24 -20 41 -47 41s-59 -17 -96 -52l-45 68c42 45 91 68 147 68c79 0 136 -51 136 -124c0 -38 -19 -76 -56 -114l-81 -84h139v-83h-272zM115 0l578 739h113l-577 -739h-114zM739 210v-2c52 -12 82 -49 82 -96
c5 -106 -155 -161 -291 -80l38 73c37 -19 68 -28 95 -28c82 -5 78 91 0 85h-53v79h47c31 0 59 13 59 40c0 25 -24 38 -52 38c-24 0 -50 -9 -79 -28l-45 66c37 31 82 47 135 47c39 0 71 -10 97 -31c26 -20 39 -45 39 -74c0 -43 -29 -76 -72 -89z" />
    <glyph glyph-name="uni2155" unicode="&#x2155;" horiz-adv-x="869" 
d="M244 346h-94v265l-71 -53l-49 74l144 109h70v-395zM86 0l578 739h113l-577 -739h-114zM701 256c81 0 135 -54 135 -129c0 -76 -61 -134 -153 -134c-52 0 -99 15 -140 46l37 72c35 -23 67 -35 98 -35c43 0 69 23 69 55c0 31 -25 53 -64 53c-23 0 -46 -9 -67 -27l-46 43
l24 194h216v-78h-153l-9 -69c18 6 36 9 53 9z" />
    <glyph glyph-name="uni2156" unicode="&#x2156;" horiz-adv-x="868" 
d="M45 347v75l129 130c31 31 46 56 46 75c0 24 -20 41 -47 41s-59 -17 -96 -52l-45 68c42 45 91 68 147 68c79 0 136 -51 136 -124c0 -38 -19 -76 -56 -114l-81 -84h139v-83h-272zM112 0l578 739h113l-576 -739h-115zM683 256c81 0 135 -54 135 -129
c0 -76 -61 -134 -153 -134c-52 0 -99 15 -140 46l37 72c35 -23 67 -35 98 -35c43 0 69 23 69 55c0 31 -25 53 -64 53c-23 0 -46 -9 -67 -27l-46 43l24 194h216v-78h-153l-9 -69c18 6 36 9 53 9z" />
    <glyph glyph-name="uni2157" unicode="&#x2157;" horiz-adv-x="836" 
d="M153 425c82 -5 78 91 0 85h-53v79h47c31 0 59 13 59 40c0 25 -24 38 -52 38c-24 0 -50 -9 -79 -28l-45 66c37 31 82 47 135 47c39 0 71 -10 97 -31c26 -20 39 -45 39 -74c0 -43 -29 -76 -72 -89v-2c52 -12 82 -49 82 -96c5 -106 -155 -161 -291 -80l38 73
c37 -19 68 -28 95 -28zM81 0l578 739h113l-576 -739h-115zM657 256c81 0 135 -54 135 -129c0 -76 -61 -134 -153 -134c-52 0 -99 15 -140 46l37 72c35 -23 67 -35 98 -35c43 0 69 23 69 55c0 31 -25 53 -64 53c-23 0 -46 -9 -67 -27l-46 43l24 194h216v-78h-153l-9 -69
c18 6 36 9 53 9z" />
    <glyph glyph-name="uni2158" unicode="&#x2158;" horiz-adv-x="893" 
d="M309 347h-85v89h-178l-19 56l210 251h72v-232h42v-75h-42v-89zM131 0l578 739h113l-576 -739h-115zM224 625l-95 -114h95v114zM702 256c81 0 135 -54 135 -129c0 -76 -61 -134 -153 -134c-52 0 -99 15 -140 46l37 72c35 -23 67 -35 98 -35c43 0 69 23 69 55
c0 31 -25 53 -64 53c-23 0 -46 -9 -67 -27l-46 43l24 194h216v-78h-153l-9 -69c18 6 36 9 53 9z" />
    <glyph glyph-name="uni2159" unicode="&#x2159;" horiz-adv-x="862" 
d="M244 346h-94v265l-71 -53l-49 74l144 109h70v-395zM81 0l578 739h113l-577 -739h-114zM693 256c81 0 135 -54 135 -129c0 -76 -61 -134 -153 -134c-52 0 -99 15 -140 46l37 72c35 -23 67 -35 98 -35c43 0 69 23 69 55c0 31 -25 53 -64 53c-23 0 -46 -9 -67 -27l-46 43
l24 194h216v-78h-153l-9 -69c18 6 36 9 53 9z" />
    <glyph glyph-name="uni215A" unicode="&#x215a;" horiz-adv-x="874" 
d="M162 423c43 0 69 23 69 55c0 29 -25 53 -64 53c-23 0 -46 -9 -67 -27l-46 43l24 194h216v-78h-153l-9 -69c18 6 36 9 53 9c81 0 135 -54 135 -129c0 -76 -61 -134 -153 -134c-52 0 -99 15 -140 46l37 72c35 -23 67 -35 98 -35zM100 0l578 739h114l-577 -739h-115z
M826 128c0 -77 -62 -135 -147 -135c-103 0 -158 80 -158 192c0 63 16 115 47 157s77 63 136 63c45 0 83 -12 114 -35l-36 -66c-23 15 -48 23 -73 23c-60 0 -99 -48 -106 -109c20 25 50 38 89 38c79 0 134 -53 134 -128zM619 127c0 -32 25 -58 60 -58s61 26 61 59
s-26 57 -61 57s-60 -25 -60 -58z" />
    <glyph glyph-name="oneeighth" unicode="&#x215b;" horiz-adv-x="890" 
d="M244 346h-94v265l-71 -53l-49 74l144 109h70v-395zM92 0l578 739h113l-576 -739h-115zM772 212v-1c52 -20 81 -58 81 -101c0 -67 -60 -116 -155 -116c-96 0 -155 48 -155 115c0 45 30 83 79 102v1c-41 19 -62 47 -62 85c0 64 55 108 138 108s138 -44 138 -108
c0 -39 -21 -67 -64 -85zM644 287c0 -25 22 -45 54 -45s53 20 53 45c0 27 -21 46 -53 46s-54 -19 -54 -46zM698 68c37 0 64 21 64 52s-25 52 -64 52c-40 0 -66 -21 -66 -52s27 -52 66 -52z" />
    <glyph glyph-name="threeeighths" unicode="&#x215c;" horiz-adv-x="870" 
d="M20 380l38 73c37 -19 68 -28 95 -28c82 -5 78 91 0 85h-53v79h47c31 0 59 13 59 40c0 25 -24 38 -52 38c-24 0 -50 -9 -79 -28l-45 66c37 31 82 47 135 47c39 0 71 -10 97 -31c26 -20 39 -45 39 -74c0 -43 -29 -76 -72 -89v-2c52 -12 82 -49 82 -96
c5 -106 -155 -161 -291 -80zM213 0h-115l578 739h114zM682 -6c-96 0 -155 48 -155 115c0 45 30 83 79 102v1c-41 19 -62 47 -62 85c0 64 55 108 138 108s138 -44 138 -108c0 -39 -21 -67 -64 -85v-1c52 -20 81 -58 81 -101c0 -67 -60 -116 -155 -116zM735 287
c0 27 -21 46 -53 46s-54 -19 -54 -46c0 -25 22 -45 54 -45s53 20 53 45zM682 68c37 0 64 21 64 52s-25 52 -64 52c-40 0 -66 -21 -66 -52s27 -52 66 -52z" />
    <glyph glyph-name="fiveeighths" unicode="&#x215d;" horiz-adv-x="881" 
d="M162 423c43 0 69 23 69 55c0 29 -25 53 -64 53c-23 0 -46 -9 -67 -27l-46 43l24 194h216v-78h-153l-9 -69c18 6 36 9 53 9c81 0 135 -54 135 -129c0 -76 -61 -134 -153 -134c-52 0 -99 15 -140 46l37 72c35 -23 67 -35 98 -35zM110 0l578 739h113l-576 -739h-115z
M767 212v-1c52 -20 81 -58 81 -101c0 -67 -60 -116 -155 -116c-96 0 -155 48 -155 115c0 45 30 83 79 102v1c-41 19 -62 47 -62 85c0 64 55 108 138 108s138 -44 138 -108c0 -39 -21 -67 -64 -85zM639 287c0 -25 22 -45 54 -45s53 20 53 45c0 27 -21 46 -53 46
s-54 -19 -54 -46zM693 68c37 0 64 21 64 52s-25 52 -64 52c-40 0 -66 -21 -66 -52s27 -52 66 -52z" />
    <glyph glyph-name="seveneighths" unicode="&#x215e;" horiz-adv-x="820" 
d="M154 349h-100l143 308h-167v84h273v-64zM42 0l578 739h114l-577 -739h-115zM706 212v-1c52 -20 81 -58 81 -101c0 -67 -60 -116 -155 -116c-96 0 -155 48 -155 115c0 45 30 83 79 102v1c-41 19 -62 47 -62 85c0 64 55 108 138 108s138 -44 138 -108
c0 -39 -21 -67 -64 -85zM578 287c0 -25 22 -45 54 -45s53 20 53 45c0 27 -21 46 -53 46s-54 -19 -54 -46zM632 68c37 0 64 21 64 52s-25 52 -64 52c-40 0 -66 -21 -66 -52s27 -52 66 -52z" />
    <glyph glyph-name="partialdiff" unicode="&#x2202;" horiz-adv-x="622" 
d="M291 -12c-74 0 -135 24 -184 72c-48 48 -72 108 -72 181c0 72 23 132 68 180s103 72 172 73c67 0 120 -27 158 -81c-29 120 -121 229 -248 294l84 99c68 -33 133 -82 200 -158s112 -189 112 -310c0 -100 -27 -183 -81 -250s-124 -100 -209 -100zM295 110
c36 0 66 13 91 39s37 58 37 95c0 36 -12 66 -37 91c-24 25 -53 38 -88 38s-65 -13 -90 -39c-24 -25 -36 -57 -36 -94c0 -36 12 -67 35 -92s53 -38 88 -38z" />
    <glyph glyph-name="product" unicode="&#x220f;" horiz-adv-x="756" 
d="M34 734h688v-143h-93v-709h-149v709h-204v-709h-149v709h-93v143z" />
    <glyph glyph-name="summation" unicode="&#x2211;" horiz-adv-x="654" 
d="M619 -179h-574v120l207 338l-207 340v120h574v-140h-389l187 -320l-187 -318h389v-140z" />
    <glyph glyph-name="minus" unicode="&#x2212;" horiz-adv-x="589" 
d="M525 267h-462v131h462v-131z" />
    <glyph glyph-name="radical" unicode="&#x221a;" horiz-adv-x="737" 
d="M420 -118h-125l-169 432h-124v131h232l126 -348l241 711h157z" />
    <glyph glyph-name="infinity" unicode="&#x221e;" horiz-adv-x="943" 
d="M693 576c57 0 106 -20 147 -61c41 -40 61 -88 61 -145s-21 -105 -62 -146s-91 -61 -148 -61c-38 0 -73 10 -104 30s-69 53 -115 100c-47 -47 -87 -81 -120 -101c-33 -19 -67 -29 -104 -29c-57 0 -105 20 -146 61c-40 41 -60 89 -60 145c0 57 20 105 61 146s91 61 148 61
c34 0 67 -9 100 -28c33 -18 73 -50 121 -97c48 47 88 79 120 97c33 19 66 28 101 28zM249 277c40 0 78 27 145 94c-71 69 -104 89 -139 89c-52 0 -93 -42 -93 -93s38 -90 87 -90zM686 277c52 0 95 41 95 93c0 51 -42 90 -93 90c-43 0 -76 -23 -139 -87c37 -38 64 -64 83 -77
s37 -19 54 -19z" />
    <glyph glyph-name="integral" unicode="&#x222b;" horiz-adv-x="479" 
d="M105 -210c-47 0 -89 11 -126 32l33 117c23 -13 47 -20 71 -20c52 0 90 33 90 113v570c0 149 81 222 196 222c47 0 92 -12 133 -35l-40 -116c-22 13 -46 20 -71 20c-52 0 -89 -34 -89 -114v-569c0 -74 -20 -129 -59 -165c-39 -37 -85 -55 -138 -55z" />
    <glyph glyph-name="approxequal" unicode="&#x2248;" horiz-adv-x="653" 
d="M415 385c-35 0 -73 10 -116 31s-72 31 -88 31c-32 0 -53 -14 -90 -61l-83 68c40 75 105 113 178 113c35 0 73 -10 115 -31c43 -20 73 -30 90 -30c33 0 55 16 90 65l85 -71c-45 -77 -105 -115 -181 -115zM420 165c-35 0 -73 10 -116 31s-72 31 -88 31
c-32 0 -53 -14 -90 -61l-83 68c40 75 105 113 178 113c35 0 73 -10 115 -31c43 -20 73 -30 90 -30c33 0 55 16 90 65l85 -71c-45 -77 -105 -115 -181 -115z" />
    <glyph glyph-name="notequal" unicode="&#x2260;" horiz-adv-x="590" 
d="M526 483v-117h-174l-32 -77h206v-117h-255l-44 -106h-84l44 106h-123v117h172l32 77h-204v117h253l45 107h84l-45 -107h125z" />
    <glyph glyph-name="lessequal" unicode="&#x2264;" horiz-adv-x="578" 
d="M508 326v-133l-452 186v94l452 189v-134l-276 -101zM508 156v-116h-457v116h457z" />
    <glyph glyph-name="greaterequal" unicode="&#x2265;" horiz-adv-x="578" 
d="M522 379l-452 -186v133l276 101l-276 101v134l452 -189v-94zM527 40h-457v116h457v-116z" />
    <glyph glyph-name="lozenge" unicode="&#x25ca;" horiz-adv-x="706" 
d="M412 -42h-118l-264 418l264 416h118l264 -416zM195 378l158 -255l158 255l-158 251z" />
    <glyph glyph-name="Euro.osf" horiz-adv-x="590" 
d="M460 247h-247c19 -92 92 -155 195 -155c47 0 98 14 153 43v-109c-44 -25 -99 -37 -165 -37c-79 0 -147 24 -202 72s-87 110 -97 186h-90l36 81h1l2 4h50c9 79 42 143 99 193s124 75 203 75c78 0 144 -18 198 -55l-48 -90c-43 26 -88 39 -137 39
c-101 0 -183 -66 -200 -162h293l-37 -81h-5z" />
    <glyph glyph-name="I_J.loclNLD" horiz-adv-x="895" 
d="M82 0v739h149v-739h-149zM544 -12c-92 0 -168 30 -229 91l72 116c43 -43 92 -65 146 -65c85 0 140 57 140 152v457h148v-462c0 -96 -26 -168 -78 -217c-52 -48 -118 -72 -199 -72z" />
    <glyph glyph-name="Iacute_J.loclNLD" horiz-adv-x="892" 
d="M220 795h-130l65 183h163zM807 794h-130l65 183h163zM82 0v739h149v-739h-149zM544 -12c-92 0 -168 30 -229 91l72 116c43 -43 92 -65 146 -65c85 0 140 57 140 152v457h148v-462c0 -96 -26 -168 -78 -217c-52 -48 -118 -72 -199 -72z" />
    <glyph glyph-name="J.loclNLD" horiz-adv-x="581" 
d="M496 794h-130l65 183h163zM233 -12c-92 0 -168 30 -229 91l72 116c43 -43 92 -65 146 -65c85 0 140 57 140 152v457h148v-462c0 -96 -26 -168 -78 -217c-52 -48 -118 -72 -199 -72z" />
    <glyph glyph-name="Jacute" horiz-adv-x="581" 
d="M498 794h-130l65 183h163zM233 -12c-92 0 -168 30 -229 91l72 116c43 -43 92 -65 146 -65c85 0 140 57 140 152v457h148v-462c0 -96 -26 -168 -78 -217c-52 -48 -118 -72 -199 -72z" />
    <glyph glyph-name="_1" horiz-adv-x="0" 
 />
    <glyph glyph-name="a.ss02" horiz-adv-x="583" 
d="M277 559c125 0 249 -56 249 -235v-324h-128v60c-41 -49 -99 -74 -174 -74c-61 0 -109 17 -144 50s-52 75 -52 126c0 111 93 172 244 173c78 3 119 4 122 4c-7 65 -48 97 -124 97c-59 0 -115 -15 -169 -45l-50 104c69 43 145 64 226 64zM248 100c39 0 73 13 100 38
s42 58 45 97c-29 -3 -62 -4 -97 -4c-89 -1 -132 -15 -132 -66c0 -40 33 -65 84 -65z" />
    <glyph glyph-name="aacute.ss02" horiz-adv-x="583" 
d="M282 802h157l-94 -176h-125zM277 559c125 0 249 -56 249 -235v-324h-128v60c-41 -49 -99 -74 -174 -74c-61 0 -109 17 -144 50s-52 75 -52 126c0 111 93 172 244 173c78 3 119 4 122 4c-7 65 -48 97 -124 97c-59 0 -115 -15 -169 -45l-50 104c69 43 145 64 226 64z
M248 100c39 0 73 13 100 38s42 58 45 97c-29 -3 -62 -4 -97 -4c-89 -1 -132 -15 -132 -66c0 -40 33 -65 84 -65z" />
    <glyph glyph-name="abreve.ss02" horiz-adv-x="583" 
d="M290 621c-109 0 -181 69 -188 181h111c3 -51 29 -86 77 -86s74 35 77 86h113c-7 -112 -79 -181 -190 -181zM277 559c125 0 249 -56 249 -235v-324h-128v60c-41 -49 -99 -74 -174 -74c-61 0 -109 17 -144 50s-52 75 -52 126c0 111 93 172 244 173c78 3 119 4 122 4
c-7 65 -48 97 -124 97c-59 0 -115 -15 -169 -45l-50 104c69 43 145 64 226 64zM248 100c39 0 73 13 100 38s42 58 45 97c-29 -3 -62 -4 -97 -4c-89 -1 -132 -15 -132 -66c0 -40 33 -65 84 -65z" />
    <glyph glyph-name="acircumflex.ss02" horiz-adv-x="583" 
d="M350 626l-65 86l-65 -86h-134l148 176h105l149 -176h-138zM277 559c125 0 249 -56 249 -235v-324h-128v60c-41 -49 -99 -74 -174 -74c-61 0 -109 17 -144 50s-52 75 -52 126c0 111 93 172 244 173c78 3 119 4 122 4c-7 65 -48 97 -124 97c-59 0 -115 -15 -169 -45
l-50 104c69 43 145 64 226 64zM248 100c39 0 73 13 100 38s42 58 45 97c-29 -3 -62 -4 -97 -4c-89 -1 -132 -15 -132 -66c0 -40 33 -65 84 -65z" />
    <glyph glyph-name="acute.case" horiz-adv-x="341" 
d="M170 795h-130l65 183h163z" />
    <glyph glyph-name="adieresis.ss02" horiz-adv-x="583" 
d="M99 702c0 45 37 82 84 82s84 -37 84 -82c0 -49 -36 -85 -84 -85s-84 36 -84 85zM401 617c-48 0 -85 36 -85 85c0 47 37 82 85 82c47 0 83 -37 83 -82c0 -49 -36 -85 -83 -85zM277 559c125 0 249 -56 249 -235v-324h-128v60c-41 -49 -99 -74 -174 -74
c-61 0 -109 17 -144 50s-52 75 -52 126c0 111 93 172 244 173c78 3 119 4 122 4c-7 65 -48 97 -124 97c-59 0 -115 -15 -169 -45l-50 104c69 43 145 64 226 64zM248 100c39 0 73 13 100 38s42 58 45 97c-29 -3 -62 -4 -97 -4c-89 -1 -132 -15 -132 -66c0 -40 33 -65 84 -65z
" />
    <glyph glyph-name="agrave.ss02" horiz-adv-x="583" 
d="M305 803l62 -176h-125l-94 176h157zM277 559c125 0 249 -56 249 -235v-324h-128v60c-41 -49 -99 -74 -174 -74c-61 0 -109 17 -144 50s-52 75 -52 126c0 111 93 172 244 173c78 3 119 4 122 4c-7 65 -48 97 -124 97c-59 0 -115 -15 -169 -45l-50 104c69 43 145 64 226 64
zM248 100c39 0 73 13 100 38s42 58 45 97c-29 -3 -62 -4 -97 -4c-89 -1 -132 -15 -132 -66c0 -40 33 -65 84 -65z" />
    <glyph glyph-name="amacron.ss02" horiz-adv-x="583" 
d="M128 761h327v-122l-327 -2v124zM277 559c125 0 249 -56 249 -235v-324h-128v60c-41 -49 -99 -74 -174 -74c-61 0 -109 17 -144 50s-52 75 -52 126c0 111 93 172 244 173c78 3 119 4 122 4c-7 65 -48 97 -124 97c-59 0 -115 -15 -169 -45l-50 104c69 43 145 64 226 64z
M248 100c39 0 73 13 100 38s42 58 45 97c-29 -3 -62 -4 -97 -4c-89 -1 -132 -15 -132 -66c0 -40 33 -65 84 -65z" />
    <glyph glyph-name="aogonek.ss02" horiz-adv-x="581" 
d="M509 -144l31 -90c-33 -20 -69 -30 -106 -30c-77 0 -123 48 -123 115c0 57 33 107 98 149h-11v60c-41 -49 -99 -74 -174 -74c-61 0 -109 17 -144 50s-52 75 -52 126c0 111 93 172 244 173c78 3 119 4 122 4c-7 65 -48 97 -124 97c-59 0 -115 -15 -169 -45l-50 104
c69 43 145 64 226 64c125 0 249 -56 249 -235v-324h-1c-55 -25 -98 -74 -98 -114s35 -51 82 -30zM248 100c39 0 73 13 100 38s42 58 45 97c-29 -3 -62 -4 -97 -4c-89 -1 -132 -15 -132 -66c0 -40 33 -65 84 -65z" />
    <glyph glyph-name="aring.ss02" horiz-adv-x="583" 
d="M291 607c-37 0 -69 12 -95 37c-25 25 -38 55 -38 90c0 36 13 66 38 91c26 25 58 38 95 38s68 -13 93 -38c26 -25 39 -55 39 -91c0 -35 -13 -65 -39 -90c-25 -25 -56 -37 -93 -37zM291 787c-29 0 -53 -22 -53 -51s24 -53 53 -53c28 0 51 24 51 53s-23 51 -51 51zM277 559
c125 0 249 -56 249 -235v-324h-128v60c-41 -49 -99 -74 -174 -74c-61 0 -109 17 -144 50s-52 75 -52 126c0 111 93 172 244 173c78 3 119 4 122 4c-7 65 -48 97 -124 97c-59 0 -115 -15 -169 -45l-50 104c69 43 145 64 226 64zM248 100c39 0 73 13 100 38s42 58 45 97
c-29 -3 -62 -4 -97 -4c-89 -1 -132 -15 -132 -66c0 -40 33 -65 84 -65z" />
    <glyph glyph-name="at.case" horiz-adv-x="966" 
d="M587 526v43h107v-258c0 -41 20 -63 45 -63c23 0 44 15 63 46s28 69 28 115c0 89 -33 163 -99 224s-145 90 -238 89c-97 -1 -179 -37 -246 -106s-101 -152 -101 -249c0 -99 35 -184 106 -254s156 -105 257 -105c95 0 195 36 267 92l49 -82c-34 -29 -80 -55 -139 -76
c-58 -21 -119 -32 -182 -32c-130 0 -240 45 -329 134c-89 90 -134 198 -134 323s44 232 132 320c88 89 195 133 322 133c125 0 229 -40 313 -120c84 -79 126 -175 126 -286c0 -77 -21 -140 -62 -191c-41 -50 -91 -75 -151 -75c-59 0 -98 25 -118 74
c-35 -49 -85 -74 -151 -74c-57 0 -106 21 -145 62s-58 93 -58 155s19 114 58 156s88 63 147 63c56 0 100 -19 133 -58zM473 249c31 0 58 11 80 33c22 23 33 50 33 83s-11 62 -33 85c-21 23 -48 35 -79 35c-64 0 -114 -51 -114 -119c0 -67 49 -117 113 -117z" />
    <glyph glyph-name="atilde.ss02" horiz-adv-x="583" 
d="M233 673c-26 0 -47 -17 -64 -51l-90 44c33 77 81 115 144 115c22 0 47 -7 75 -22c29 -14 48 -21 59 -21c23 0 42 16 59 47l89 -42c-27 -73 -76 -115 -135 -115c-21 0 -46 7 -75 22s-49 23 -62 23zM277 559c125 0 249 -56 249 -235v-324h-128v60c-41 -49 -99 -74 -174 -74
c-61 0 -109 17 -144 50s-52 75 -52 126c0 111 93 172 244 173c78 3 119 4 122 4c-7 65 -48 97 -124 97c-59 0 -115 -15 -169 -45l-50 104c69 43 145 64 226 64zM248 100c39 0 73 13 100 38s42 58 45 97c-29 -3 -62 -4 -97 -4c-89 -1 -132 -15 -132 -66c0 -40 33 -65 84 -65z
" />
    <glyph glyph-name="backslash.case" horiz-adv-x="596" 
d="M172 739l404 -739h-153l-405 739h154z" />
    <glyph glyph-name="braceleft.case" horiz-adv-x="415" 
d="M185 369v-3c52 -16 99 -61 99 -124c0 -17 -2 -48 -5 -91s-5 -73 -5 -91c0 -53 27 -79 80 -79h28v-134h-69c-121 0 -182 63 -182 188c0 20 1 51 4 92c3 42 4 71 4 88c0 69 -39 89 -115 97v112c76 9 115 28 115 97c0 17 -1 46 -4 89s-4 75 -4 98c0 121 63 181 190 181h61
v-134h-28c-53 0 -80 -26 -80 -78c0 -18 2 -49 5 -93c3 -43 5 -73 5 -90c0 -63 -47 -109 -99 -125z" />
    <glyph glyph-name="braceright.case" horiz-adv-x="415" 
d="M231 367v3c-52 16 -100 62 -100 125c0 17 2 47 5 90c4 44 6 75 6 93c0 52 -27 78 -80 78h-28v134h61c127 0 190 -61 190 -182c0 -22 -2 -54 -5 -97s-4 -72 -4 -89c0 -36 11 -61 35 -74s44 -18 80 -23v-112c-75 -8 -115 -28 -115 -97c0 -17 1 -46 4 -88c3 -41 5 -72 5 -92
c0 -125 -61 -188 -183 -188h-68v134h28c53 0 80 26 80 79c0 18 -2 48 -6 91c-3 43 -5 74 -5 91c0 63 47 108 100 124z" />
    <glyph glyph-name="bracketleft.case" horiz-adv-x="417" 
d="M394 -147h-312v1038h312v-125h-167v-788h167v-125z" />
    <glyph glyph-name="bracketright.case" horiz-adv-x="417" 
d="M334 -147h-311v125h167v788h-167v125h311v-1038z" />
    <glyph glyph-name="breve.case" horiz-adv-x="482" 
d="M40 976h116c3 -53 31 -89 80 -89c48 0 76 36 79 89h118c-7 -117 -82 -188 -197 -188s-188 71 -196 188z" />
    <glyph glyph-name="brevecombcy" horiz-adv-x="0" 
d="M-239 590c-85 0 -158 38 -219 115l75 78c51 -63 91 -84 144 -84s93 21 145 84l75 -78c-63 -77 -136 -115 -220 -115z" />
    <glyph glyph-name="caron.alt" horiz-adv-x="312" 
d="M144 624h-119l64 179h147z" />
    <glyph glyph-name="caron.case" horiz-adv-x="537" 
d="M217 792l-148 176h134l65 -86l65 86h138l-149 -176h-105z" />
    <glyph glyph-name="cedilla.case" horiz-adv-x="345" 
d="M229 18l-27 -66c60 -3 108 -40 108 -100c0 -64 -54 -120 -146 -120c-39 0 -81 10 -124 31l31 81c28 -14 55 -21 81 -21c35 0 52 17 52 38c0 23 -19 34 -56 34h-54l-8 27l39 98z" />
    <glyph glyph-name="circumflex.case" horiz-adv-x="529" 
d="M178 796h-139l154 183h109l155 -183h-144l-67 89z" />
    <glyph glyph-name="colon.case" horiz-adv-x="292" 
d="M147 441c-47 0 -83 35 -83 82c0 45 36 80 83 80c44 0 80 -35 80 -80c0 -47 -36 -82 -80 -82zM147 102c-47 0 -83 35 -83 82c0 45 36 80 83 80c44 0 80 -35 80 -80c0 -47 -36 -82 -80 -82z" />
    <glyph glyph-name="comma.ss03" horiz-adv-x="253" 
d="M7 -180l79 315h138l-108 -315h-109z" />
    <glyph glyph-name="commaccent" horiz-adv-x="249" 
d="M137 -66c48 0 86 -37 86 -89c0 -63 -47 -118 -144 -187l-48 60c40 31 66 53 78 66c-31 8 -54 39 -54 72c0 43 35 78 82 78z" />
    <glyph glyph-name="commaccent.case" horiz-adv-x="228" 
d="M141 -68c49 0 88 -36 88 -91c0 -64 -48 -122 -147 -191l-49 61c37 27 64 50 81 68c-32 8 -57 39 -57 74c0 44 36 79 84 79z" />
    <glyph glyph-name="dieresis.case" horiz-adv-x="474" 
d="M43 885c0 45 36 81 83 81s83 -36 83 -81c0 -48 -36 -84 -83 -84s-83 36 -83 84zM340 801c-48 0 -83 35 -83 84c0 45 36 81 83 81c45 0 82 -36 82 -81c0 -48 -37 -84 -82 -84z" />
    <glyph glyph-name="dollar.osf" horiz-adv-x="520" 
d="M494 168c0 -87 -67 -153 -164 -174v-116h-122v113c-82 14 -143 54 -184 120l86 81c35 -53 91 -86 154 -86c52 0 86 22 86 57c0 27 -19 39 -59 58c-69 29 -116 51 -139 64c-63 38 -95 85 -95 142c0 87 61 148 157 167v109h123v-110c52 -10 100 -35 143 -74l-73 -90
c-44 37 -89 55 -135 55c-49 0 -81 -20 -81 -52c0 -24 22 -42 70 -63l68 -30c35 -15 59 -26 73 -33c61 -35 92 -81 92 -138z" />
    <glyph glyph-name="dotaccent.case" horiz-adv-x="301" 
d="M189 824c-33 -33 -91 -33 -124 0s-33 91 0 123c33 33 91 33 124 0c33 -32 33 -90 0 -123z" />
    <glyph glyph-name="eight.dnom" horiz-adv-x="376" 
d="M188 -6c-96 0 -155 48 -155 115c0 45 30 83 79 102v1c-41 19 -62 47 -62 85c0 64 55 108 138 108s138 -44 138 -108c0 -39 -21 -67 -64 -85v-1c52 -20 81 -58 81 -101c0 -67 -60 -116 -155 -116zM241 287c0 27 -21 46 -53 46s-54 -19 -54 -46c0 -25 22 -45 54 -45
s53 20 53 45zM188 68c37 0 64 21 64 52s-25 52 -64 52c-40 0 -66 -21 -66 -52s27 -52 66 -52z" />
    <glyph glyph-name="eight.lf" horiz-adv-x="636" 
d="M42 203c0 84 54 158 139 189v2c-67 31 -108 89 -108 161c0 57 22 104 67 141s105 56 178 56s132 -19 177 -56s68 -84 68 -141c0 -72 -42 -130 -109 -161v-3c85 -29 140 -104 140 -188c0 -63 -26 -114 -77 -155c-51 -40 -117 -60 -199 -60s-149 20 -200 60
c-51 41 -76 92 -76 155zM208 539c0 -52 42 -92 109 -92s109 39 109 92s-43 92 -108 92s-110 -39 -110 -92zM445 221c0 59 -50 101 -127 101s-128 -41 -128 -100c0 -61 52 -104 128 -104s127 43 127 103z" />
    <glyph glyph-name="eight.num" horiz-adv-x="376" 
d="M188 341c-96 0 -155 48 -155 115c0 45 30 83 79 102v1c-41 19 -62 47 -62 85c0 64 55 108 138 108s138 -44 138 -108c0 -39 -21 -67 -64 -85v-1c52 -20 81 -58 81 -101c0 -67 -60 -116 -155 -116zM241 634c0 27 -21 46 -53 46s-54 -19 -54 -46c0 -25 22 -45 54 -45
s53 20 53 45zM188 415c37 0 64 21 64 52s-25 52 -64 52c-40 0 -66 -21 -66 -52s27 -52 66 -52z" />
    <glyph glyph-name="eight.osf" horiz-adv-x="629" 
d="M315 -11c-82 0 -149 19 -200 57c-51 39 -76 88 -76 149c0 80 54 151 139 180v2c-67 31 -108 84 -108 153c0 55 22 101 67 136s105 53 178 53s132 -18 177 -53s68 -81 68 -136c0 -68 -42 -124 -109 -153v-3c85 -28 139 -99 139 -179c0 -61 -26 -110 -77 -149
c-51 -38 -117 -57 -198 -57zM424 514c0 51 -44 88 -109 88c-67 0 -111 -37 -111 -88c0 -48 43 -86 110 -86s110 37 110 86zM443 212c0 55 -51 95 -128 95c-79 0 -129 -39 -129 -94c0 -57 53 -98 129 -98s128 41 128 97z" />
    <glyph glyph-name="eight.tf" horiz-adv-x="619" 
d="M33 203c0 84 54 158 139 189v2c-67 31 -108 89 -108 161c0 57 22 104 67 141s105 56 178 56s132 -19 177 -56s68 -84 68 -141c0 -72 -42 -130 -109 -161v-3c85 -29 140 -104 140 -188c0 -63 -26 -114 -77 -155c-51 -40 -117 -60 -199 -60s-149 20 -200 60
c-51 41 -76 92 -76 155zM199 539c0 -52 42 -92 109 -92s109 39 109 92s-43 92 -108 92s-110 -39 -110 -92zM436 221c0 59 -50 101 -127 101s-128 -41 -128 -100c0 -61 52 -104 128 -104s127 43 127 103z" />
    <glyph glyph-name="eight_fraction_nine" horiz-adv-x="873" 
d="M345 457c0 -67 -60 -116 -155 -116c-96 0 -155 48 -155 115c0 45 30 83 79 102v1c-41 19 -62 47 -62 85c0 64 55 108 138 108s138 -44 138 -108c0 -39 -21 -67 -64 -85v-1c52 -20 81 -58 81 -101zM94 -1l578 739h113l-576 -739h-115zM136 634c0 -25 22 -45 54 -45
s53 20 53 45c0 27 -21 46 -53 46s-54 -19 -54 -46zM190 415c37 0 64 21 64 52s-25 52 -64 52c-40 0 -66 -21 -66 -52s27 -52 66 -52zM678 405c103 0 157 -78 157 -194c0 -62 -15 -114 -46 -155s-76 -62 -135 -62c-45 0 -83 11 -114 34l34 67c25 -15 51 -23 76 -23
c59 0 96 44 103 109c-24 -26 -54 -39 -90 -39c-80 0 -132 54 -132 127c0 80 60 136 147 136zM678 330c-35 0 -61 -26 -61 -59s25 -57 60 -57s60 24 60 57s-26 59 -59 59z" />
    <glyph glyph-name="emdash.case" horiz-adv-x="1047" 
d="M983 303h-919v142h919v-142z" />
    <glyph glyph-name="endash.case" horiz-adv-x="728" 
d="M664 303h-600v142h600v-142z" />
    <glyph glyph-name="exclamdown.case" horiz-adv-x="301" 
d="M166 756c45 0 81 -34 81 -82c0 -45 -36 -80 -81 -80c-47 0 -83 35 -83 80c0 48 36 82 83 82zM91 -9l8 548h131l10 -548h-149z" />
    <glyph glyph-name="five.dnom" horiz-adv-x="341" 
d="M176 256c81 0 135 -54 135 -129c0 -76 -61 -134 -153 -134c-52 0 -99 15 -140 46l37 72c35 -23 67 -35 98 -35c43 0 69 23 69 55c0 31 -25 53 -64 53c-23 0 -46 -9 -67 -27l-46 43l24 194h216v-78h-153l-9 -69c18 6 36 9 53 9z" />
    <glyph glyph-name="five.lf" horiz-adv-x="588" 
d="M303 476c70 0 129 -22 177 -66s72 -101 72 -172c0 -72 -25 -132 -76 -179s-117 -71 -200 -71c-89 0 -172 27 -248 82l59 118c63 -43 123 -64 182 -64c83 0 134 50 134 114s-53 111 -125 111c-47 0 -87 -16 -122 -49l-86 69l40 370h391v-136h-281l-16 -145
c31 12 64 18 99 18z" />
    <glyph glyph-name="five.num" horiz-adv-x="341" 
d="M176 603c81 0 135 -54 135 -129c0 -76 -61 -134 -153 -134c-52 0 -99 15 -140 46l37 72c35 -23 67 -35 98 -35c43 0 69 23 69 55c0 29 -25 53 -64 53c-23 0 -46 -9 -67 -27l-46 43l24 194h216v-78h-153l-9 -69c18 6 36 9 53 9z" />
    <glyph glyph-name="five.osf" horiz-adv-x="572" 
d="M295 341c70 0 129 -21 176 -62c48 -41 72 -94 72 -159c0 -67 -25 -123 -76 -167c-50 -44 -116 -66 -199 -66c-89 0 -172 25 -247 75l59 112c61 -39 122 -58 181 -58c83 0 134 45 134 102c0 56 -53 101 -125 101c-45 0 -86 -15 -122 -45l-85 67l39 344h390v-127h-280
l-16 -135c31 12 64 18 99 18z" />
    <glyph glyph-name="five.tf" horiz-adv-x="619" 
d="M314 476c70 0 129 -22 177 -66s72 -101 72 -172c0 -72 -25 -132 -76 -179s-117 -71 -200 -71c-89 0 -172 27 -248 82l59 118c63 -43 123 -64 182 -64c83 0 134 50 134 114s-53 111 -125 111c-47 0 -87 -16 -122 -49l-86 69l40 370h391v-136h-281l-16 -145
c31 12 64 18 99 18z" />
    <glyph glyph-name="five_fraction_nine" horiz-adv-x="871" 
d="M162 423c43 0 69 23 69 55c0 29 -25 53 -64 53c-23 0 -46 -9 -67 -27l-46 43l24 194h216v-78h-153l-9 -69c18 6 36 9 53 9c81 0 135 -54 135 -129c0 -76 -61 -134 -153 -134c-52 0 -99 15 -140 46l37 72c35 -23 67 -35 98 -35zM91 -1l578 739h113l-576 -739h-115z
M675 405c103 0 157 -78 157 -194c0 -62 -15 -114 -46 -155s-76 -62 -135 -62c-45 0 -83 11 -114 34l34 67c25 -15 51 -23 76 -23c59 0 96 44 103 109c-24 -26 -54 -39 -90 -39c-80 0 -132 54 -132 127c0 80 60 136 147 136zM675 330c-35 0 -61 -26 -61 -59s25 -57 60 -57
s60 24 60 57s-26 59 -59 59z" />
    <glyph glyph-name="five_fraction_seven" horiz-adv-x="867" 
d="M166 423c43 0 69 23 69 55c0 29 -25 53 -64 53c-23 0 -46 -9 -67 -27l-46 43l24 194h216v-78h-153l-9 -69c18 6 36 9 53 9c81 0 135 -54 135 -129c0 -76 -61 -134 -153 -134c-52 0 -99 15 -140 46l37 72c35 -23 67 -35 98 -35zM91 0l578 739h113l-577 -739h-114zM550 310
v84h273v-64l-149 -328h-100l143 308h-167z" />
    <glyph glyph-name="four.dnom" horiz-adv-x="370" 
d="M296 164h42v-75h-42v-89h-85v89h-178l-19 56l210 251h72v-232zM211 278l-95 -114h95v114z" />
    <glyph glyph-name="four.lf" horiz-adv-x="616" 
d="M497 295h80v-123h-80v-172h-138v172h-325l-29 95l386 472h106v-444zM359 525l-186 -230h186v230z" />
    <glyph glyph-name="four.num" horiz-adv-x="370" 
d="M296 511h42v-75h-42v-89h-85v89h-178l-19 56l210 251h72v-232zM211 625l-95 -114h95v114z" />
    <glyph glyph-name="four.osf" horiz-adv-x="616" 
d="M501 177h79v-117h-79v-159h-138v159h-320l-29 93l381 434h106v-410zM363 385l-180 -208h180v208z" />
    <glyph glyph-name="four.tf" horiz-adv-x="619" 
d="M509 295h80v-123h-80v-172h-138v172h-325l-29 95l386 472h106v-444zM371 525l-186 -230h186v230z" />
    <glyph glyph-name="four_fraction_nine" horiz-adv-x="949" 
d="M309 347h-85v89h-178l-19 56l210 251h72v-232h42v-75h-42v-89zM155 -1l578 739h113l-577 -739h-114zM224 625l-95 -114h95v114zM744 405c103 0 157 -78 157 -194c0 -62 -15 -114 -46 -155s-76 -62 -135 -62c-45 0 -83 11 -114 34l34 67c25 -15 51 -23 76 -23
c59 0 96 44 103 109c-24 -26 -54 -39 -90 -39c-80 0 -132 54 -132 127c0 80 60 136 147 136zM744 330c-35 0 -61 -26 -61 -59s25 -57 60 -57s60 24 60 57s-26 59 -59 59z" />
    <glyph glyph-name="four_fraction_seven" horiz-adv-x="912" 
d="M309 347h-85v89h-178l-19 56l210 251h72v-232h42v-75h-42v-89zM131 0l578 739h113l-576 -739h-115zM224 625l-95 -114h95v114zM590 310v84h273v-64l-149 -328h-100l143 308h-167z" />
    <glyph glyph-name="grave.case" horiz-adv-x="333" 
d="M205 978l65 -183h-133l-97 183h165z" />
    <glyph glyph-name="guillemotleft.case" horiz-adv-x="595" 
d="M320 173h-147l-136 203l137 203h146l-140 -203zM545 173h-148l-135 203l135 203h148l-140 -203z" />
    <glyph glyph-name="guillemotright.case" horiz-adv-x="595" 
d="M332 376l-134 -203h-148l139 203l-139 203h147zM557 376l-136 -203h-147l140 203l-140 203h147z" />
    <glyph glyph-name="guilsinglleft.case" horiz-adv-x="370" 
d="M320 173h-147l-136 203l137 203h146l-140 -203z" />
    <glyph glyph-name="guilsinglright.case" horiz-adv-x="370" 
d="M333 376l-136 -203h-147l140 203l-140 203h147z" />
    <glyph glyph-name="hungarumlaut.case" horiz-adv-x="557" 
d="M166 795h-121l45 183h156zM375 795h-123l59 183h162z" />
    <glyph glyph-name="hyphen.case" horiz-adv-x="538" 
d="M475 303h-411v142h411v-142z" />
    <glyph glyph-name="i.loclTRK" horiz-adv-x="269" 
d="M199 631c-33 -33 -91 -33 -124 0s-33 91 0 123c33 33 91 33 124 0c33 -32 33 -90 0 -123zM207 545v-545h-141v545h141z" />
    <glyph glyph-name="i_j.loclNLD" horiz-adv-x="586" 
d="M199 631c-33 -33 -91 -33 -124 0s-33 91 0 123c33 33 91 33 124 0c33 -32 33 -90 0 -123zM478 631c-33 -33 -91 -33 -124 0s-33 91 0 123c33 33 91 33 124 0c33 -32 33 -90 0 -123zM207 545v-545h-141v545h141zM279 -232c-54 0 -95 9 -124 28l26 112
c31 -11 56 -16 75 -16c61 0 91 36 91 107v546h141v-553c0 -148 -84 -224 -209 -224z" />
    <glyph glyph-name="iacute_j.loclNLD" horiz-adv-x="552" 
d="M195 626h-125l62 176h157zM483 626h-125l62 176h157zM205 545v-545h-141v545h141zM279 -232c-54 0 -95 9 -124 28l26 112c31 -11 56 -16 75 -16c61 0 91 36 91 107v546h141v-553c0 -148 -84 -224 -209 -224z" />
    <glyph glyph-name="j.loclNLD" horiz-adv-x="293" 
d="M219 631c-33 -33 -91 -33 -124 0s-33 91 0 123c33 33 91 33 124 0c33 -32 33 -90 0 -123zM20 -232c-54 0 -95 9 -124 28l26 112c31 -11 56 -16 75 -16c61 0 91 36 91 107v546h141v-553c0 -148 -84 -224 -209 -224z" />
    <glyph glyph-name="jacute" horiz-adv-x="293" 
d="M215 626h-125l62 176h157zM20 -232c-54 0 -95 9 -124 28l26 112c31 -11 56 -16 75 -16c61 0 91 36 91 107v546h141v-553c0 -148 -84 -224 -209 -224z" />
    <glyph glyph-name="macron.case" horiz-adv-x="479" 
d="M410 817l-368 -2v124h368v-122z" />
    <glyph glyph-name="nine.dnom" horiz-adv-x="365" 
d="M174 405c103 0 157 -78 157 -194c0 -62 -15 -114 -46 -155s-76 -62 -135 -62c-45 0 -83 11 -114 34l34 67c25 -15 51 -23 76 -23c59 0 96 44 103 109c-24 -26 -54 -39 -90 -39c-80 0 -132 54 -132 127c0 80 60 136 147 136zM174 330c-35 0 -61 -26 -61 -59s25 -57 60 -57
s60 24 60 57s-26 59 -59 59z" />
    <glyph glyph-name="nine.lf" horiz-adv-x="622" 
d="M303 752c90 0 159 -33 207 -99s72 -152 72 -258c0 -214 -98 -407 -315 -407c-80 0 -148 22 -204 65l54 110c43 -30 90 -45 141 -45c109 0 170 86 183 215c-37 -44 -101 -68 -166 -68c-68 0 -124 22 -169 67s-67 101 -67 170c0 73 24 132 73 179s113 71 191 71zM300 388
c67 0 119 51 119 118c0 68 -51 120 -118 120c-68 0 -119 -50 -119 -121c0 -68 50 -117 118 -117z" />
    <glyph glyph-name="nine.num" horiz-adv-x="365" 
d="M174 752c103 0 157 -78 157 -194c0 -62 -15 -114 -46 -155s-76 -62 -135 -62c-45 0 -83 11 -114 34l34 67c25 -15 51 -23 76 -23c59 0 96 44 103 109c-24 -26 -54 -39 -90 -39c-80 0 -132 54 -132 127c0 80 60 136 147 136zM174 677c-35 0 -61 -26 -61 -59s25 -57 60 -57
s60 24 60 57s-26 59 -59 59z" />
    <glyph glyph-name="nine.osf" horiz-adv-x="608" 
d="M293 611c89 0 157 -31 204 -94c48 -63 72 -144 72 -244c0 -71 -11 -134 -32 -191s-56 -103 -104 -140s-107 -55 -176 -55c-80 0 -147 20 -202 61l55 107c42 -29 88 -43 139 -43c108 0 168 80 181 203c-37 -43 -92 -65 -164 -65c-67 0 -123 21 -168 63
c-44 43 -66 97 -66 162c0 69 24 125 73 169c49 45 111 67 188 67zM290 267c67 0 118 47 118 110c0 31 -11 58 -34 79s-50 32 -83 32c-67 0 -118 -47 -118 -112c0 -64 49 -109 117 -109z" />
    <glyph glyph-name="nine.tf" horiz-adv-x="619" 
d="M302 752c90 0 159 -33 207 -99s72 -152 72 -258c0 -214 -98 -407 -315 -407c-80 0 -148 22 -204 65l54 110c43 -30 90 -45 141 -45c109 0 170 86 183 215c-37 -44 -101 -68 -166 -68c-68 0 -124 22 -169 67s-67 101 -67 170c0 73 24 132 73 179s113 71 191 71zM299 388
c67 0 119 51 119 118c0 68 -51 120 -118 120c-68 0 -119 -50 -119 -121c0 -68 50 -117 118 -117z" />
    <glyph glyph-name="ogonek.case" horiz-adv-x="327" 
d="M238 -144l31 -90c-33 -20 -69 -30 -106 -30c-77 0 -123 48 -123 115s43 122 129 167l85 -18c-55 -25 -98 -74 -98 -114s35 -51 82 -30z" />
    <glyph glyph-name="one.dnom" horiz-adv-x="276" 
d="M10 285l144 109h70v-395h-94v265l-71 -53z" />
    <glyph glyph-name="one.lf" horiz-adv-x="418" 
d="M-3 557l229 182h110v-739h-145v543l-118 -91z" />
    <glyph glyph-name="one.num" horiz-adv-x="276" 
d="M10 632l144 109h70v-394h-94v264l-71 -53z" />
    <glyph glyph-name="one.numalt" horiz-adv-x="338" 
d="M20 632l144 109h70v-395h-94v265l-71 -53z" />
    <glyph glyph-name="one.osf" horiz-adv-x="505" 
d="M358 591v-469h134v-122h-446v122h171v301l-149 -96l-66 105l241 159h115z" />
    <glyph glyph-name="one.tf" horiz-adv-x="619" 
d="M404 739v-603h152v-136h-456v136h159v407l-118 -91l-76 105l229 182h110z" />
    <glyph glyph-name="parenleft.case" horiz-adv-x="418" 
d="M406 -34l-65 -110c-197 105 -304 288 -304 515s107 408 308 515l61 -112c-143 -96 -215 -230 -215 -403c0 -169 72 -304 215 -405z" />
    <glyph glyph-name="parenright.case" horiz-adv-x="418" 
d="M76 -144l-64 110c143 101 215 236 215 405c0 173 -72 307 -215 403l60 112c201 -107 309 -288 309 -515s-108 -410 -305 -515z" />
    <glyph glyph-name="periodcentered.case" horiz-adv-x="265" 
d="M134 282c-47 0 -83 35 -83 82c0 45 36 80 83 80c44 0 80 -35 80 -80c0 -47 -36 -82 -80 -82z" />
    <glyph glyph-name="questiondown.case" horiz-adv-x="551" 
d="M387 675c0 -45 -36 -81 -83 -81c-45 0 -81 36 -81 81c0 47 36 81 81 81s83 -34 83 -81zM238 549h136v-66c0 -57 -29 -107 -65 -140c-52 -46 -118 -91 -118 -153c0 -53 43 -90 100 -90c49 0 99 29 149 87l87 -98c-66 -81 -148 -122 -247 -122c-70 0 -127 20 -172 61
s-67 92 -67 153c0 63 31 116 70 151c56 52 127 99 127 159v58z" />
    <glyph glyph-name="quotedblbase.ss03" horiz-adv-x="505" 
d="M22 -151l79 315h138l-108 -315h-109zM257 -151l79 315h138l-108 -315h-109z" />
    <glyph glyph-name="quotedblleft.ss03" horiz-adv-x="488" 
d="M247 850l-79 -315h-138l108 315h109zM484 850l-79 -315h-138l108 315h109z" />
    <glyph glyph-name="quotedblright.ss03" horiz-adv-x="497" 
d="M29 535l79 315h138l-108 -315h-109zM264 535l79 315h138l-108 -315h-109z" />
    <glyph glyph-name="quoteleft.ss03" horiz-adv-x="251" 
d="M242 850l-79 -315h-138l108 315h109z" />
    <glyph glyph-name="quoteright.ss03" horiz-adv-x="249" 
d="M29 535l79 315h138l-108 -315h-109z" />
    <glyph glyph-name="quotesinglbase.ss03" horiz-adv-x="258" 
d="M2 -151l79 315h138l-108 -315h-109z" />
    <glyph glyph-name="ring.case" horiz-adv-x="363" 
d="M40 908c0 37 13 69 40 95s59 39 98 39s71 -13 97 -39c27 -26 40 -58 40 -95s-13 -69 -40 -94c-26 -25 -58 -38 -97 -38s-71 13 -98 38c-27 26 -40 57 -40 94zM178 855c29 0 53 24 53 55c0 29 -24 53 -53 53c-31 0 -55 -24 -55 -53c0 -31 24 -55 55 -55z" />
    <glyph glyph-name="semicolon.case" horiz-adv-x="305" 
d="M162 439c-48 0 -85 36 -85 84c0 45 38 82 85 82c45 0 82 -37 82 -82c0 -48 -37 -84 -82 -84zM158 274c51 0 89 -41 89 -96c0 -72 -51 -142 -154 -210l-42 56c53 40 85 71 97 94h-3c-39 0 -72 34 -72 74c0 47 38 82 85 82z" />
    <glyph glyph-name="semicolon.case.ss03" horiz-adv-x="305" 
d="M162 439c-48 0 -85 36 -85 84c0 45 38 82 85 82c45 0 82 -37 82 -82c0 -48 -37 -84 -82 -84zM10 -150l79 315h138l-108 -315h-109z" />
    <glyph glyph-name="semicolon.ss03" horiz-adv-x="289" 
d="M154 342c-48 0 -85 36 -85 84c0 45 38 82 85 82c45 0 82 -37 82 -82c0 -48 -37 -84 -82 -84zM8 -180l79 315h138l-108 -315h-109z" />
    <glyph glyph-name="seven.dnom" horiz-adv-x="299" 
d="M13 310v84h273v-64l-149 -328h-100l143 308h-167z" />
    <glyph glyph-name="seven.lf" horiz-adv-x="524" 
d="M21 603v136h482v-102l-264 -637h-155l254 603h-317z" />
    <glyph glyph-name="seven.num" horiz-adv-x="299" 
d="M13 657v84h273v-64l-149 -328h-100l143 308h-167z" />
    <glyph glyph-name="seven.osf" horiz-adv-x="513" 
d="M16 453v132h482v-100l-266 -584h-155l253 552h-314z" />
    <glyph glyph-name="seven.tf" horiz-adv-x="619" 
d="M70 606v133h500v-93l-312 -646h-156l299 606h-331z" />
    <glyph glyph-name="seven_fraction_nine" horiz-adv-x="830" 
d="M153 349h-100l143 308h-167v84h273v-64zM32 -1l578 739h114l-577 -739h-115zM633 405c103 0 157 -78 157 -194c0 -62 -15 -114 -46 -155s-76 -62 -135 -62c-45 0 -83 11 -114 34l34 67c25 -15 51 -23 76 -23c59 0 96 44 103 109c-24 -26 -54 -39 -90 -39
c-80 0 -132 54 -132 127c0 80 60 136 147 136zM633 330c-35 0 -61 -26 -61 -59s25 -57 60 -57s60 24 60 57s-26 59 -59 59z" />
    <glyph glyph-name="six.dnom" horiz-adv-x="354" 
d="M329 128c0 -77 -62 -135 -147 -135c-103 0 -158 80 -158 192c0 63 16 115 47 157s77 63 136 63c45 0 83 -12 114 -35l-36 -66c-23 15 -48 23 -73 23c-60 0 -99 -48 -106 -109c20 25 50 38 89 38c79 0 134 -53 134 -128zM122 127c0 -32 25 -58 60 -58s61 26 61 59
s-26 57 -61 57s-60 -25 -60 -58z" />
    <glyph glyph-name="six.lf" horiz-adv-x="627" 
d="M354 477c69 0 127 -22 172 -67c46 -45 69 -101 69 -170c0 -71 -25 -131 -75 -178c-49 -47 -113 -71 -191 -71c-92 0 -162 33 -211 100s-73 153 -73 256c0 205 101 405 321 405c77 0 145 -22 204 -65l-64 -111c-43 29 -87 44 -132 44c-57 0 -101 -22 -134 -66
s-51 -97 -54 -158c36 54 92 81 168 81zM329 118c34 0 62 12 85 35s35 52 35 85s-11 61 -34 83s-51 33 -85 33c-68 0 -120 -49 -120 -117c0 -33 11 -62 34 -85s52 -34 85 -34z" />
    <glyph glyph-name="six.num" horiz-adv-x="354" 
d="M329 475c0 -77 -62 -135 -147 -135c-103 0 -158 80 -158 192c0 63 16 115 47 157s77 63 136 63c45 0 83 -12 114 -35l-36 -66c-23 15 -48 23 -73 23c-60 0 -99 -48 -106 -109c20 25 50 38 89 38c79 0 134 -53 134 -128zM122 474c0 -32 25 -58 60 -58s61 26 61 59
s-26 57 -61 57s-60 -25 -60 -58z" />
    <glyph glyph-name="six.osf" horiz-adv-x="616" 
d="M341 455c68 0 124 -22 169 -65s68 -97 68 -162c0 -69 -25 -126 -74 -171s-112 -67 -189 -67c-91 0 -160 32 -208 96s-72 145 -72 244c0 68 11 131 33 188s57 105 106 143s109 57 178 57c75 0 142 -21 202 -63l-64 -107c-41 27 -84 41 -130 41c-57 0 -101 -21 -133 -62
s-50 -91 -53 -150c35 52 90 78 167 78zM434 226c0 63 -50 109 -117 109s-119 -45 -119 -109c0 -65 51 -113 118 -113s118 49 118 113z" />
    <glyph glyph-name="six.tf" horiz-adv-x="619" 
d="M350 477c69 0 127 -22 172 -67c46 -45 69 -101 69 -170c0 -71 -25 -131 -75 -178c-49 -47 -113 -71 -191 -71c-92 0 -162 33 -211 100s-73 153 -73 256c0 205 101 405 321 405c77 0 145 -22 204 -65l-64 -111c-43 29 -87 44 -132 44c-57 0 -101 -22 -134 -66
s-51 -97 -54 -158c36 54 92 81 168 81zM325 118c34 0 62 12 85 35s35 52 35 85s-11 61 -34 83s-51 33 -85 33c-68 0 -120 -49 -120 -117c0 -33 11 -62 34 -85s52 -34 85 -34z" />
    <glyph glyph-name="six_fraction_seven" horiz-adv-x="870" 
d="M333 475c0 -77 -62 -135 -147 -135c-103 0 -158 80 -158 192c0 63 16 115 47 157s77 63 136 63c45 0 83 -12 114 -35l-36 -66c-23 15 -48 23 -73 23c-60 0 -99 -48 -106 -109c20 25 50 38 89 38c79 0 134 -53 134 -128zM92 0l578 739h113l-577 -739h-114zM126 474
c0 -32 25 -58 60 -58s61 26 61 59s-26 57 -61 57s-60 -25 -60 -58zM553 310v84h273v-64l-149 -328h-100l143 308h-167z" />
    <glyph glyph-name="slash.case" horiz-adv-x="596" 
d="M173 0h-153l404 739h154z" />
    <glyph glyph-name="sterling.osf" horiz-adv-x="495" 
d="M247 246v-9c0 -41 -18 -80 -53 -117h292v-120h-446v97c51 44 77 89 77 134c0 7 0 12 -1 15h-80v94h47c-8 23 -12 45 -12 66c0 57 21 103 62 138c42 36 94 54 155 55c87 0 163 -39 204 -108l-89 -74c-25 42 -59 63 -103 63c-57 0 -95 -42 -95 -93c0 -15 3 -30 10 -47h213
v-94h-181z" />
    <glyph glyph-name="three.dnom" horiz-adv-x="333" 
d="M10 33l38 73c37 -19 68 -28 95 -28c82 -5 78 91 0 85h-53v79h47c31 0 59 13 59 40c0 25 -24 38 -52 38c-24 0 -50 -9 -79 -28l-45 66c37 31 82 47 135 47c39 0 71 -10 97 -31c26 -20 39 -45 39 -74c0 -43 -29 -76 -72 -89v-2c52 -12 82 -49 82 -96
c5 -106 -155 -161 -291 -80z" />
    <glyph glyph-name="three.lf" horiz-adv-x="565" 
d="M254 -12c-83 0 -164 24 -241 73l62 118c61 -37 118 -55 171 -55c75 0 120 37 120 93c0 55 -46 92 -114 92h-94v132h81c68 0 112 35 112 87c0 53 -43 85 -103 85c-45 0 -94 -19 -147 -57l-71 106c59 55 147 90 236 90c67 0 122 -19 167 -56s67 -82 67 -137
c0 -79 -52 -141 -125 -166v-4c92 -20 145 -93 145 -182c0 -65 -25 -117 -74 -158s-113 -61 -192 -61z" />
    <glyph glyph-name="three.num" horiz-adv-x="333" 
d="M10 380l38 73c37 -19 68 -28 95 -28c82 -5 78 91 0 85h-53v79h47c31 0 59 13 59 40c0 25 -24 38 -52 38c-24 0 -50 -9 -79 -28l-45 66c37 31 82 47 135 47c39 0 71 -10 97 -31c26 -20 39 -45 39 -74c0 -43 -29 -76 -72 -89v-2c52 -12 82 -49 82 -96
c5 -106 -155 -161 -291 -80z" />
    <glyph glyph-name="three.osf" horiz-adv-x="548" 
d="M246 -114c-82 0 -162 23 -240 69l62 114c59 -34 117 -51 174 -51c76 0 121 34 121 83s-46 82 -114 82h-98v128h85c67 0 111 33 111 78c0 48 -43 77 -102 77c-48 0 -98 -17 -151 -52l-71 102c57 52 146 84 235 84c66 0 121 -17 166 -52s67 -77 67 -128
c0 -73 -52 -131 -124 -154v-4c92 -19 144 -86 144 -170c0 -61 -25 -111 -74 -149s-112 -57 -191 -57z" />
    <glyph glyph-name="three.tf" horiz-adv-x="619" 
d="M276 -12c-83 0 -164 24 -241 73l62 118c61 -37 118 -55 171 -55c75 0 120 37 120 93c0 55 -46 92 -114 92h-94v132h81c68 0 112 35 112 87c0 53 -43 85 -103 85c-45 0 -94 -19 -147 -57l-71 106c59 55 147 90 236 90c67 0 122 -19 167 -56s67 -82 67 -137
c0 -79 -52 -141 -125 -166v-4c92 -20 145 -93 145 -182c0 -65 -25 -117 -74 -158s-113 -61 -192 -61z" />
    <glyph glyph-name="three_fraction_seven" horiz-adv-x="877" 
d="M156 425c82 -5 78 91 0 85h-53v79h47c31 0 59 13 59 40c0 25 -24 38 -52 38c-24 0 -50 -9 -79 -28l-45 66c37 31 82 47 135 47c39 0 71 -10 97 -31c26 -20 39 -45 39 -74c0 -43 -29 -76 -72 -89v-2c52 -12 82 -49 82 -96c5 -106 -155 -161 -291 -80l38 73
c37 -19 68 -28 95 -28zM96 0l578 739h113l-577 -739h-114zM560 310v84h273v-64l-149 -328h-100l143 308h-167z" />
    <glyph glyph-name="tilde.case" horiz-adv-x="563" 
d="M132 811l-92 45c33 79 82 118 147 118c23 0 49 -7 78 -22s48 -22 59 -22c23 0 44 16 61 48l91 -43c-28 -75 -78 -118 -138 -118c-21 0 -47 8 -77 23s-51 23 -64 23c-27 0 -48 -17 -65 -52z" />
    <glyph glyph-name="two.dnom" horiz-adv-x="346" 
d="M251 167l-81 -84h139v-83h-272v75l129 130c31 31 46 56 46 75c0 24 -20 41 -47 41s-59 -17 -96 -52l-45 68c42 45 91 68 147 68c79 0 136 -51 136 -124c0 -38 -19 -76 -56 -114z" />
    <glyph glyph-name="two.lf" horiz-adv-x="584" 
d="M387 275l-130 -139h275v-136h-482v123l230 241c22 23 38 39 47 50s19 27 30 47s17 39 17 57c0 56 -43 95 -102 95c-52 0 -107 -27 -166 -82l-81 106c77 77 164 115 259 115c70 0 128 -21 173 -64c45 -42 68 -96 68 -162c0 -71 -46 -155 -138 -251z" />
    <glyph glyph-name="two.num" horiz-adv-x="346" 
d="M251 514l-81 -84h139v-83h-272v75l129 130c31 31 46 56 46 75c0 24 -20 41 -47 41s-59 -17 -96 -52l-45 68c42 45 91 68 147 68c79 0 136 -51 136 -124c0 -38 -19 -76 -56 -114z" />
    <glyph glyph-name="two.osf" horiz-adv-x="547" 
d="M340 194l-86 -72h245v-122h-449v111l195 165c75 63 103 91 103 131c0 37 -32 65 -81 65c-43 0 -99 -28 -168 -85l-74 101c81 74 164 111 249 111c65 0 118 -18 159 -54c41 -35 61 -78 61 -129c0 -73 -50 -137 -154 -222z" />
    <glyph glyph-name="two.tf" horiz-adv-x="619" 
d="M404 275l-130 -139h275v-136h-482v123l230 241c22 23 38 39 47 50s19 27 30 47s17 39 17 57c0 56 -45 95 -102 95c-52 0 -107 -27 -166 -82l-81 106c77 77 164 115 259 115c70 0 128 -21 173 -64c45 -42 68 -96 68 -162c0 -71 -46 -155 -138 -251z" />
    <glyph glyph-name="two_fraction_nine" horiz-adv-x="914" 
d="M45 347v75l129 130c31 31 46 56 46 75c0 24 -20 41 -47 41s-59 -17 -96 -52l-45 68c42 45 91 68 147 68c79 0 136 -51 136 -124c0 -38 -19 -76 -56 -114l-81 -84h139v-83h-272zM130 0l578 739h113l-576 -739h-115zM719 405c103 0 157 -78 157 -194
c0 -62 -15 -114 -46 -155s-76 -62 -135 -62c-45 0 -83 11 -114 34l34 67c25 -15 51 -23 76 -23c59 0 96 44 103 109c-24 -26 -54 -39 -90 -39c-80 0 -132 54 -132 127c0 80 60 136 147 136zM719 330c-35 0 -61 -26 -61 -59s25 -57 60 -57s60 24 60 57s-26 59 -59 59z" />
    <glyph glyph-name="two_fraction_seven" horiz-adv-x="906" 
d="M49 347v75l129 130c31 31 46 56 46 75c0 24 -20 41 -47 41s-59 -17 -96 -52l-45 68c42 45 91 68 147 68c79 0 136 -51 136 -124c0 -38 -19 -76 -56 -114l-81 -84h139v-83h-272zM129 0l578 739h114l-577 -739h-115zM588 310v84h273v-64l-149 -328h-100l143 308h-167z" />
    <glyph glyph-name="uni0414.ss01" horiz-adv-x="779" 
d="M661 739v-600h78v-289h-148v150h-412v-150h-148v289h63c23 41 43 95 60 162s33 160 47 279l19 159h441zM252 139h261v460h-163l-7 -48c-25 -190 -56 -327 -91 -412z" />
    <glyph glyph-name="uni0416.ss01" horiz-adv-x="937" 
d="M656 377l290 -377h-173l-232 308v-308h-144v308l-232 -308h-173l290 377l-275 362h168l222 -302v302h144v-302l221 302h169z" />
    <glyph glyph-name="uni041B.ss01" horiz-adv-x="746" 
d="M76 -9c-16 0 -30 1 -43 4l-25 127c11 -1 18 -2 23 -2c41 0 74 18 97 55c10 15 19 35 27 60s14 48 19 71s11 55 16 95l12 100l12 118l12 120h438v-739h-150v596h-155l-8 -76l-9 -82c-1 -15 -4 -40 -9 -73c-4 -33 -8 -59 -12 -78s-9 -41 -16 -67c-12 -51 -27 -88 -46 -121
c-42 -72 -103 -108 -183 -108z" />
    <glyph glyph-name="uni0424.ss01" horiz-adv-x="973" 
d="M561 40v-120h-149v120c-113 5 -205 37 -274 95c-69 59 -103 137 -103 236c0 98 34 176 102 234c69 59 160 91 275 96v118h149v-118c113 -5 204 -37 273 -96s104 -137 104 -234s-35 -176 -105 -235c-69 -59 -160 -91 -272 -96zM561 568v-396c69 2 124 21 165 57
c41 37 62 84 62 142c0 57 -21 103 -62 138c-41 36 -96 56 -165 59zM185 371c0 -119 87 -195 227 -199v396c-140 -7 -227 -81 -227 -197z" />
    <glyph glyph-name="uni042A.ss01" horiz-adv-x="757" 
d="M327 487h141c100 0 176 -34 213 -86s53 -104 53 -159c0 -69 -23 -127 -68 -173s-106 -69 -185 -69h-300v610h-166v129h312v-252zM327 131h129c81 0 125 49 125 114c0 64 -42 111 -121 111h-133v-225z" />
    <glyph glyph-name="uni042C.ss01" horiz-adv-x="658" 
d="M228 487h141c100 0 176 -34 213 -86s53 -104 53 -159c0 -69 -23 -127 -68 -173s-106 -69 -185 -69h-300v739h146v-252zM228 131h129c81 0 125 49 125 114c0 64 -42 111 -121 111h-133v-225z" />
    <glyph glyph-name="uni0431.ss01" horiz-adv-x="678" 
d="M370 536c46 0 89 -10 130 -31c81 -40 142 -129 142 -241c0 -78 -27 -144 -80 -198c-53 -53 -122 -80 -207 -80c-107 0 -193 48 -241 121s-72 160 -72 253c-1 205 82 301 189 355c51 25 122 49 178 62c57 13 134 36 183 56v-134c-29 -13 -65 -26 -106 -37l-106 -28
c-91 -24 -186 -70 -211 -192c43 60 118 94 201 94zM356 113c41 0 76 15 105 44c29 30 43 66 43 108c0 41 -14 76 -43 105c-28 29 -62 43 -103 43s-77 -14 -106 -42c-29 -27 -44 -62 -44 -105c0 -42 14 -78 42 -108s63 -45 106 -45z" />
    <glyph glyph-name="uni0432.ss01" horiz-adv-x="586" 
d="M441 302c72 -16 110 -71 110 -139c0 -47 -17 -86 -52 -117s-82 -46 -141 -46h-294v545h286c108 0 169 -62 169 -134c0 -53 -29 -93 -78 -109zM336 436h-140v-102h140c40 0 58 24 58 52c0 27 -19 50 -58 50zM196 111h150c43 0 69 26 69 63c0 36 -23 62 -67 62h-152v-125z
" />
    <glyph glyph-name="uni0433.ss01" horiz-adv-x="451" 
d="M64 545h375v-125h-235v-420h-140v545z" />
    <glyph glyph-name="uni0434.ss01" horiz-adv-x="658" 
d="M563 546v-425h59v-240h-133v119h-332v-119h-133v240h60c37 65 67 175 90 328l14 97h375zM305 433l-7 -36c-17 -115 -40 -207 -70 -276h197v312h-120z" />
    <glyph glyph-name="uni0436.ss01" horiz-adv-x="784" 
d="M565 278l225 -278h-157l-176 222v-222h-130v221l-176 -221h-157l225 278l-209 267h152l165 -220v220h130v-220l164 220h153z" />
    <glyph glyph-name="uni0437.ss01" horiz-adv-x="528" 
d="M245 -12c-82 0 -158 19 -227 57l46 103c65 -29 125 -44 182 -44c69 0 109 25 109 64c0 36 -32 54 -95 54h-117v108h86c71 0 107 19 107 57c0 35 -36 54 -91 54c-49 0 -101 -14 -155 -43l-58 94c57 41 145 67 226 67c64 0 115 -14 154 -43s59 -63 59 -102
c0 -51 -38 -94 -103 -115v-3c77 -19 125 -72 125 -137c0 -47 -22 -88 -66 -121s-105 -50 -182 -50z" />
    <glyph glyph-name="uni0438.ss01" horiz-adv-x="649" 
d="M154 0h-90v545h137v-329l294 329h91v-545h-138v325z" />
    <glyph glyph-name="uni0439.ss01" horiz-adv-x="649" 
d="M333 579c-77 0 -142 34 -197 103l68 71c45 -57 81 -76 129 -76s84 19 131 76l67 -71c-56 -69 -122 -103 -198 -103zM154 0h-90v545h137v-329l294 329h91v-545h-138v325z" />
    <glyph glyph-name="uni043A.ss01" horiz-adv-x="573" 
d="M581 0h-167l-170 224l-43 -41v-183h-137v545h137v-201l204 201h170l-238 -230z" />
    <glyph glyph-name="uni043B.ss01" horiz-adv-x="627" 
d="M73 -8c-11 0 -22 1 -34 3l-34 106h22c35 0 62 14 81 43c13 19 25 48 35 87s17 76 21 110c5 35 11 87 19 158l5 46h375v-545h-141v419h-112l-6 -46l-6 -49l-7 -45c-3 -21 -6 -37 -8 -47c-4 -20 -14 -63 -22 -86c-8 -21 -21 -50 -34 -71c-35 -55 -86 -83 -154 -83z" />
    <glyph glyph-name="uni043F.ss01" horiz-adv-x="618" 
d="M64 545h490v-545h-140v419h-210v-419h-140v545z" />
    <glyph glyph-name="uni0442.ss01" horiz-adv-x="495" 
d="M12 545h471v-122h-166v-423h-140v423h-165v122z" />
    <glyph glyph-name="uni0444.ss01" horiz-adv-x="853" 
d="M817 272c0 -86 -29 -154 -88 -204c-59 -49 -137 -76 -236 -80v-146h-133v146c-99 4 -177 31 -236 81s-88 118 -88 204s29 154 88 205s137 78 236 81v146h133v-146c97 -3 176 -30 235 -81s89 -119 89 -206zM493 437v-330c117 1 187 65 187 166c0 100 -67 161 -187 164z
M360 108v329c-120 -3 -187 -63 -187 -164s71 -162 187 -165z" />
    <glyph glyph-name="uni0446.ss01" horiz-adv-x="667" 
d="M645 -180h-135v180h-446v545h141v-415h211v415h141v-415h88v-310z" />
    <glyph glyph-name="uni0448.ss01" horiz-adv-x="931" 
d="M867 0h-803v545h141v-415h190v415h141v-415h190v415h141v-545z" />
    <glyph glyph-name="uni0449.ss01" horiz-adv-x="977" 
d="M867 545v-415h87v-310h-135v180h-755v545h141v-415h190v415h141v-415h190v415h141z" />
    <glyph glyph-name="uni044A.ss01" horiz-adv-x="620" 
d="M272 378h106c170 0 221 -103 221 -188c0 -55 -19 -100 -57 -136c-37 -36 -90 -54 -158 -54h-248v420h-119v125h255v-167zM271 115h99c64 0 91 31 91 75c0 40 -30 72 -87 72h-103v-147z" />
    <glyph glyph-name="uni044C.ss01" horiz-adv-x="551" 
d="M199 378h111c80 0 142 -24 174 -63c32 -37 46 -80 46 -125c0 -55 -19 -100 -57 -136c-37 -36 -90 -54 -158 -54h-251v545h135v-167zM198 115h103c64 0 92 31 92 75c0 40 -29 72 -88 72h-107v-147z" />
    <glyph glyph-name="uni044E.ss01" horiz-adv-x="881" 
d="M554 560c85 0 155 -28 210 -84c55 -55 82 -123 82 -203c0 -81 -27 -149 -82 -204s-125 -83 -210 -83c-74 0 -137 21 -189 63c-51 43 -84 97 -97 164h-65v-213h-139v545h139v-217h64c12 67 44 123 96 166c53 44 116 66 191 66zM446 162c29 -30 65 -45 108 -45
s78 15 107 45c29 31 44 68 44 111s-15 80 -44 110s-64 45 -107 45s-79 -15 -108 -45s-43 -67 -43 -110s14 -80 43 -111z" />
    <glyph glyph-name="yen.osf" horiz-adv-x="510" 
d="M383 591h143l-145 -260h83v-92h-134l-6 -10v-22h140v-92h-140v-115h-135v115h-141v92h141v23l-5 9h-136v92h85l-144 260h144l124 -245z" />
    <glyph glyph-name="zero.dnom" horiz-adv-x="386" 
d="M319 52c-29 -38 -71 -57 -126 -57s-98 19 -127 57c-29 39 -43 88 -43 148s14 109 43 148s72 58 127 58s97 -19 126 -58s44 -88 44 -148s-15 -109 -44 -148zM193 82c49 0 73 39 73 118s-24 118 -73 118c-48 0 -72 -39 -72 -118s24 -118 72 -118z" />
    <glyph glyph-name="zero.lf" horiz-adv-x="688" 
d="M344 -12c-66 0 -122 18 -168 54c-92 72 -131 187 -131 328c0 71 10 134 31 190c41 112 136 192 268 192c206 0 299 -178 299 -382s-93 -382 -299 -382zM496 370c0 71 -13 130 -38 175s-63 68 -114 68c-50 0 -88 -23 -113 -68s-38 -104 -38 -175c0 -144 50 -243 151 -243
s152 99 152 243z" />
    <glyph glyph-name="zero.num" horiz-adv-x="386" 
d="M319 398c-29 -38 -71 -57 -126 -57s-98 19 -127 57c-29 39 -43 88 -43 148s14 109 43 148s72 58 127 58s97 -19 126 -58s44 -88 44 -148s-15 -109 -44 -148zM193 428c49 0 73 39 73 118s-24 118 -73 118c-48 0 -72 -39 -72 -118s24 -118 72 -118z" />
    <glyph glyph-name="zero.osf" horiz-adv-x="623" 
d="M311 -12c-86 0 -152 29 -198 86c-45 58 -68 131 -68 220s23 162 68 220c46 58 112 87 198 87c87 0 153 -29 198 -87c46 -58 69 -131 69 -220s-23 -162 -69 -220c-45 -57 -111 -86 -198 -86zM311 111c42 0 74 16 95 49c22 33 33 78 33 134s-11 100 -32 133s-53 50 -95 50
c-84 0 -127 -71 -127 -183c0 -111 43 -183 126 -183z" />
    <glyph glyph-name="zero.slash" horiz-adv-x="688" 
d="M344 752c206 0 299 -178 299 -382s-93 -382 -299 -382c-66 0 -122 18 -168 54c-92 72 -131 187 -131 328c0 71 10 134 31 190c41 112 136 192 268 192zM344 628c-53 0 -93 -24 -120 -72s-40 -110 -40 -186c0 -55 7 -104 21 -146l236 363c-26 27 -58 41 -97 41zM344 112
c54 0 94 24 121 71c27 48 40 110 40 187c0 50 -6 95 -18 135l-233 -359c25 -23 55 -34 90 -34z" />
    <glyph glyph-name="zero.tf" horiz-adv-x="619" 
d="M309 -12c-62 0 -115 18 -159 54c-88 72 -125 187 -125 328c0 71 10 134 29 190c40 112 131 192 255 192c63 0 116 -18 160 -54c88 -72 126 -188 126 -328c0 -70 -10 -133 -30 -190c-40 -112 -131 -192 -256 -192zM451 370c0 71 -12 130 -36 175c-23 45 -58 68 -105 68
s-83 -23 -107 -68c-23 -45 -35 -104 -35 -175c0 -144 47 -243 142 -243s141 99 141 243z" />
    </font>
</defs>
</svg>
